*
*
G04 PADS 9.5 Build Number: 522968 generated Gerber (RS-274-X) file*
G04 PC Version=2.1*
*
%IN "PIC32USB_01.pcb"*%
*
%MOIN*%
*
%FSLAX35Y35*%
*
*
*
*
G04 PC Standard Apertures*
*
*
G04 Thermal Relief Aperture macro.*
%AMTER*
1,1,$1,0,0*
1,0,$1-$2,0,0*
21,0,$3,$4,0,0,45*
21,0,$3,$4,0,0,135*
%
*
*
G04 Annular Aperture macro.*
%AMANN*
1,1,$1,0,0*
1,0,$2,0,0*
%
*
*
G04 Odd Aperture macro.*
%AMODD*
1,1,$1,0,0*
1,0,$1-0.005,0,0*
%
*
*
G04 PC Custom Aperture Macros*
*
*
*
*
*
*
G04 PC Aperture Table*
*
%ADD010C,0.001*%
%ADD025C,0.02*%
%ADD028C,0.09*%
%ADD031C,0.002*%
%ADD032C,0.01*%
%ADD042R,0.04724X0.04724*%
%ADD066C,0.012*%
%ADD136R,0.05512X0.05512*%
%ADD137C,0.05512*%
%ADD150C,0.04724*%
%ADD162O,0.09843X0.04724*%
*
*
*
*
G04 PC Circuitry*
G04 Layer Name PIC32USB_01.pcb - circuitry*
%LPD*%
*
*
G04 PC Custom Flashes*
G04 Layer Name PIC32USB_01.pcb - flashes*
%LPD*%
*
*
G04 PC Circuitry*
G04 Layer Name PIC32USB_01.pcb - circuitry*
%LPD*%
*
G54D10*
G54D25*
G01X481080Y243410D03*
X269761Y256454D02*
X269765Y256450D01*
X272010*
X275360Y259800*
X285070*
X309920*
Y273380*
X315880Y279430*
X404290*
X411901Y265674D02*
Y271819D01*
X404290Y279430*
X448601Y265624D02*
X516351D01*
X310090Y204280D03*
X373480D03*
X305090Y213170D03*
X300110Y216550D03*
X295050Y219820D03*
X290070Y223160D03*
X364160Y219820D03*
X361100Y223160D03*
X370410Y213170D03*
X367170Y216550D03*
X419320Y219830D03*
X305100Y249480D03*
X315100Y233960D03*
X320130Y245440D03*
X315100Y241370D03*
X350070Y237480D03*
X285070Y259800D03*
X295090Y256250D03*
X300120Y252460D03*
X309920Y259800D03*
X335090Y254270D03*
X340090Y260460D03*
X345130Y257160D03*
G54D28*
X445270Y279250D03*
Y207710D03*
X516830Y279250D03*
Y207710D03*
G54D31*
X478010Y246370D02*
X484130D01*
Y240770*
X478010*
Y246370*
Y246349D02*
X484130D01*
X478010Y246169D02*
X484130D01*
X478010Y245989D02*
X484130D01*
X478010Y245809D02*
X484130D01*
X478010Y245629D02*
X484130D01*
X478010Y245449D02*
X484130D01*
X478010Y245269D02*
X484130D01*
X478010Y245089D02*
X484130D01*
X478010Y244909D02*
X484130D01*
X478010Y244729D02*
X484130D01*
X478010Y244549D02*
X484130D01*
X478010Y244369D02*
X484130D01*
X478010Y244189D02*
X484130D01*
X478010Y244009D02*
X484130D01*
X478010Y243829D02*
X484130D01*
X478010Y243649D02*
X484130D01*
X478010Y243469D02*
X484130D01*
X478010Y243289D02*
X484130D01*
X478010Y243109D02*
X484130D01*
X478010Y242929D02*
X484130D01*
X478010Y242749D02*
X484130D01*
X478010Y242569D02*
X484130D01*
X478010Y242389D02*
X484130D01*
X478010Y242209D02*
X484130D01*
X478010Y242029D02*
X484130D01*
X478010Y241849D02*
X484130D01*
X478010Y241669D02*
X484130D01*
X478010Y241489D02*
X484130D01*
X478010Y241309D02*
X484130D01*
X478010Y241129D02*
X484130D01*
X478010Y240949D02*
X484130D01*
X522030Y207710D02*
G75*
G03X522030I-5200J0D01*
G01X519807Y225624D02*
G03X519807I-3456J0D01*
G01X450470Y207710D02*
G03X450470I-5200J0D01*
G01X452057Y225624D02*
G03X452057I-3456J0D01*
G01X522030Y279250D02*
G03X522030I-5200J0D01*
G01X450470D02*
G03X450470I-5200J0D01*
G01X482780Y243410D02*
G03X482780I-1700J0D01*
G01X223872Y259034D02*
G03X223872I-3062J0D01*
G01X214010Y236734D02*
G03X214010I-3200J0D01*
G01Y253834D02*
G03X214010I-3200J0D01*
G01X380367Y225674D02*
G03X380367I-3456J0D01*
G01X273217Y226454D02*
G03X273217I-3456J0D01*
G01X380367Y235674D02*
G03X380367I-3456J0D01*
G01X415357Y225674D02*
G03X415357I-3456J0D01*
G01X523430Y201680D02*
Y285350D01*
G03X523330Y285450I-100J0*
G01X438980*
G03X438880Y285350I0J-100*
G01Y201680*
G03X438980Y201580I100J0*
G01X523330*
G03X523430Y201680I0J100*
G01X430080Y201660D02*
Y285040D01*
G03X429980Y285140I-100J0*
G01X201630*
G03X201530Y285040I0J-100*
G01Y201660*
G03X201630Y201560I100J0*
G01X429980*
G03X430080Y201660I0J100*
G01X522030Y207710D02*
G03X522030I-5200J0D01*
G01X519807Y225624D02*
G03X519807I-3456J0D01*
G01X450470Y207710D02*
G03X450470I-5200J0D01*
G01X452057Y225624D02*
G03X452057I-3456J0D01*
G01X513174Y234264D02*
G03Y236985I3177J1360D01*
G01Y234264D02*
G03X513082Y234324I-92J-40D01*
G01X451869*
G03X451777Y234264I0J-100*
G01Y236985D02*
G03Y234264I-3176J-1361D01*
G01Y236985D02*
G03X451869Y236924I92J39D01*
G01X513082*
G03X513174Y236985I-0J100*
G01X512939Y246174D02*
G03X514865Y248744I3412J-550D01*
G01X512939Y246174D02*
G03X512840Y246290I-99J16D01*
G01X452112*
G03X452013Y246174I-0J-100*
G01X450259Y248656D02*
G03X452013Y246174I-1658J-3032D01*
G01X450259Y248656D02*
G03X450364Y248661I48J88D01*
G01X451100Y248890D02*
G03X450364Y248661I0J-1300D01*
G01X451100Y248890D02*
X514180D01*
X514776Y248745D02*
G03X514180Y248890I-596J-1155D01*
G01X514776Y248745D02*
G03X514865Y248744I46J89D01*
G01X513174Y254264D02*
G03Y256985I3177J1360D01*
G01Y254264D02*
G03X513082Y254324I-92J-40D01*
G01X451869*
G03X451777Y254264I0J-100*
G01Y256985D02*
G03Y254264I-3176J-1361D01*
G01Y256985D02*
G03X451869Y256924I92J39D01*
G01X513082*
G03X513174Y256985I-0J100*
G01X519807Y268380D02*
Y262868D01*
X519107Y262168D02*
G03X519807Y262868I-0J700D01*
G01X519107Y262168D02*
X513595D01*
X512895Y262868D02*
G03X513595Y262168I700J0D01*
G01X512895Y262868D02*
Y263824D01*
G03X512795Y263924I-100J0*
G01X452157*
G03X452057Y263824I-0J-100*
G01Y262868*
X451357Y262168D02*
G03X452057Y262868I-0J700D01*
G01X451357Y262168D02*
X445845D01*
X445145Y262868D02*
G03X445845Y262168I700J0D01*
G01X445145Y262868D02*
Y268380D01*
X445845Y269080D02*
G03X445145Y268380I-0J-700D01*
G01X445845Y269080D02*
X451357D01*
X452057Y268380D02*
G03X451357Y269080I-700J0D01*
G01X452057Y268380D02*
Y267424D01*
G03X452157Y267324I100J0*
G01X512795*
G03X512895Y267424I-0J100*
G01Y268380*
X513595Y269080D02*
G03X512895Y268380I-0J-700D01*
G01X513595Y269080D02*
X519107D01*
X519807Y268380D02*
G03X519107Y269080I-700J0D01*
G01X522030Y279250D02*
G03X522030I-5200J0D01*
G01X450470D02*
G03X450470I-5200J0D01*
G01X482780Y243410D02*
G03X482780I-1700J0D01*
G01X417998Y220899D02*
G03X420642I1322J-1069D01*
G01X417998D02*
G03X418020Y220961I-78J62D01*
G01Y247870*
G03X417991Y247941I-100J0*
G01X413430Y252502*
G03X413318Y252522I-71J-71*
G01X408957Y257486D02*
G03X413318Y252522I2944J-1812D01*
G01X408957Y257486D02*
G03X408943Y257609I-85J52D01*
G01X393611Y272941*
G03X393540Y272970I-71J-71*
G01X371430*
G03X371359Y272941I-0J-100*
G01X357959Y259541*
X357040Y259160D02*
G03X357959Y259541I0J1300D01*
G01X357040Y259160D02*
X341221D01*
G03X341159Y259138I0J-100*
G01Y261782D02*
G03Y259138I-1069J-1322D01*
G01Y261782D02*
G03X341221Y261760I62J78D01*
G01X356460*
G03X356531Y261789I0J100*
G01X369931Y275189*
X370850Y275570D02*
G03X369931Y275189I0J-1300D01*
G01X370850Y275570D02*
X394120D01*
X395039Y275189D02*
G03X394120Y275570I-919J-919D01*
G01X395039Y275189D02*
X411137Y259091D01*
G03X411227Y259064I71J71*
G01X415161Y254528D02*
G03X411227Y259064I-3260J1146D01*
G01X415161Y254528D02*
G03X415184Y254424I94J-33D01*
G01X420239Y249369*
X420620Y248450D02*
G03X420239Y249369I-1300J0D01*
G01X420620Y248450D02*
Y220961D01*
G03X420642Y220899I100J0*
G01X273217Y269210D02*
Y263698D01*
X272517Y262998D02*
G03X273217Y263698I-0J700D01*
G01X272517Y262998D02*
X267005D01*
X266305Y263698D02*
G03X267005Y262998I700J0D01*
G01X266305Y263698D02*
Y269210D01*
X267005Y269910D02*
G03X266305Y269210I-0J-700D01*
G01X267005Y269910D02*
X272517D01*
X273217Y269210D02*
G03X272517Y269910I-700J0D01*
G01X223872Y259034D02*
G03X223872I-3062J0D01*
G01X213369Y218968D02*
G03Y225092I0J3062D01*
G01Y218968D02*
X208251D01*
Y225092D02*
G03Y218968I-0J-3062D01*
G01Y225092D02*
X213369D01*
X214010Y236734D02*
G03X214010I-3200J0D01*
G01Y253834D02*
G03X214010I-3200J0D01*
G01X213369Y265568D02*
G03Y271692I0J3062D01*
G01Y265568D02*
X208251D01*
Y271692D02*
G03Y265568I-0J-3062D01*
G01Y271692D02*
X213369D01*
X372411Y202958D02*
G03Y205602I1069J1322D01*
G01Y202958D02*
G03X372349Y202980I-62J-78D01*
G01X311221*
G03X311159Y202958I0J-100*
G01Y205602D02*
G03Y202958I-1069J-1322D01*
G01Y205602D02*
G03X311221Y205580I62J78D01*
G01X338119*
G03X338191Y205748I-0J100*
G01X338002Y206227D02*
G03X338191Y205748I700J0D01*
G01X338002Y206227D02*
Y210952D01*
X338702Y211652D02*
G03X338002Y210952I0J-700D01*
G01X338702Y211652D02*
X343427D01*
X344127Y210952D02*
G03X343427Y211652I-700J-0D01*
G01X344127Y210952D02*
Y206227D01*
X343937Y205748D02*
G03X344127Y206227I-510J479D01*
G01X343937Y205748D02*
G03X344010Y205580I73J-68D01*
G01X349825*
G03X349864Y205772I0J100*
G01X352264D02*
G03X349864I-1200J2817D01*
G01X352264D02*
G03X352304Y205580I40J-92D01*
G01X359825*
G03X359864Y205772I0J100*
G01X362264D02*
G03X359864I-1200J2817D01*
G01X362264D02*
G03X362304Y205580I40J-92D01*
G01X372349*
G03X372411Y205602I-0J100*
G01X369341Y211848D02*
G03Y214492I1069J1322D01*
G01Y211848D02*
G03X369279Y211870I-62J-78D01*
G01X306221*
G03X306159Y211848I0J-100*
G01Y214492D02*
G03Y211848I-1069J-1322D01*
G01Y214492D02*
G03X306221Y214470I62J78D01*
G01X369279*
G03X369341Y214492I-0J100*
G01X366101Y215228D02*
G03Y217872I1069J1322D01*
G01Y215228D02*
G03X366039Y215250I-62J-78D01*
G01X301241*
G03X301179Y215228I0J-100*
G01Y217872D02*
G03Y215228I-1069J-1322D01*
G01Y217872D02*
G03X301241Y217850I62J78D01*
G01X366039*
G03X366101Y217872I-0J100*
G01X363091Y218498D02*
G03Y221142I1069J1322D01*
G01Y218498D02*
G03X363029Y218520I-62J-78D01*
G01X296181*
G03X296119Y218498I0J-100*
G01Y221142D02*
G03Y218498I-1069J-1322D01*
G01Y221142D02*
G03X296181Y221120I62J78D01*
G01X363029*
G03X363091Y221142I-0J100*
G01X385626Y222466D02*
G03X383702Y224390I1285J3208D01*
G01X385626Y222466D02*
G03X385519Y222444I-37J-93D01*
G01X381636Y218561*
X380716Y218180D02*
G03X381636Y218561I0J1300D01*
G01X380716Y218180D02*
X371790D01*
X370871Y218561D02*
G03X371790Y218180I919J919D01*
G01X370871Y218561D02*
X364681Y224751D01*
G03X364610Y224780I-71J-71*
G01X362064*
G03X362011Y224596I0J-100*
G01X360031Y221838D02*
G03X362011Y224596I1069J1322D01*
G01X360031Y221838D02*
G03X359969Y221860I-62J-78D01*
G01X291201*
G03X291139Y221838I0J-100*
G01Y224482D02*
G03Y221838I-1069J-1322D01*
G01Y224482D02*
G03X291201Y224460I62J78D01*
G01X359969*
G03X360031Y224482I-0J100*
G01X360189Y224596D02*
G03X360031Y224482I911J-1436D01*
G01X360189Y224596D02*
G03X360136Y224780I-53J84D01*
G01X316680*
X315758Y225164D02*
G03X316680Y224780I922J916D01*
G01X315758Y225164D02*
X314178Y226754D01*
X313800Y227670D02*
G03X314178Y226754I1300J0D01*
G01X313800Y227670D02*
Y232829D01*
G03X313778Y232891I-100J-0*
G01X316422D02*
G03X313778I-1322J1069D01*
G01X316422D02*
G03X316400Y232829I78J-62D01*
G01Y228247*
G03X316429Y228177I100J0*
G01X317192Y227410*
G03X317262Y227380I70J70*
G01X365190*
X366109Y226999D02*
G03X365190Y227380I-919J-919D01*
G01X366109Y226999D02*
X372299Y220809D01*
G03X372370Y220780I71J71*
G01X380136*
G03X380207Y220809I0J100*
G01X383680Y224282*
G03X383702Y224390I-71J71*
G01X380367Y225674D02*
G03X380367I-3456J0D01*
G01X273217Y226454D02*
G03X273217I-3456J0D01*
G01X349001Y236158D02*
G03Y238802I1069J1322D01*
G01Y236158D02*
G03X348939Y236180I-62J-78D01*
G01X284890*
G03X284819Y236151I-0J-100*
G01X279294Y230626*
X278375Y230245D02*
G03X279294Y230626I-0J1300D01*
G01X278375Y230245D02*
X223645D01*
G03X223556Y230189I0J-100*
G01Y232901D02*
G03Y230189I-2746J-1356D01*
G01Y232901D02*
G03X223645Y232845I89J44D01*
G01X269187*
G03X269203Y233044I-0J100*
G01X269048Y239836D02*
G03X269203Y233044I713J-3382D01*
G01X269048Y239836D02*
G03X269028Y240034I-20J98D01*
G01X223645*
G03X223556Y239978I0J-100*
G01Y242690D02*
G03Y239978I-2746J-1356D01*
G01Y242690D02*
G03X223645Y242634I89J44D01*
G01X313925*
G03X313991Y242658I0J100*
G01X314075Y240014D02*
G03X313991Y242658I1025J1356D01*
G01X314075Y240014D02*
G03X314015Y240034I-60J-80D01*
G01X270494*
X270494D02*
G03X270473Y239836I-0J-100D01*
G01X270318Y233044D02*
G03X270473Y239836I-557J3410D01*
G01X270318Y233044D02*
G03X270334Y232845I16J-99D01*
G01X277795*
G03X277866Y232874I0J100*
G01X283391Y238399*
X284310Y238780D02*
G03X283391Y238399I0J-1300D01*
G01X284310Y238780D02*
X348939D01*
G03X349001Y238802I-0J100*
G01X319061Y244118D02*
G03Y246762I1069J1322D01*
G01Y244118D02*
G03X318999Y244140I-62J-78D01*
G01X281360*
X280441Y244521D02*
G03X281360Y244140I919J919D01*
G01X280441Y244521D02*
X274913Y250049D01*
G03X274822Y250076I-71J-71*
G01X274280Y249966*
X274021Y249940D02*
G03X274280Y249966I0J1300D01*
G01X274021Y249940D02*
X270847D01*
G03X270817Y249745I0J-100*
G01X268705D02*
G03X270817I1056J-3291D01*
G01X268705D02*
G03X268675Y249940I-30J95D01*
G01X223915*
G03X223817Y249821I-0J-100*
G01X222132Y252003D02*
G03X223817Y249821I-1322J-2762D01*
G01X222132Y252003D02*
G03X222242Y252019I43J90D01*
G01X222450Y252206*
X223320Y252540D02*
G03X222450Y252206I0J-1300D01*
G01X223320Y252540D02*
X273880D01*
G03X273900Y252542I0J100*
G01X275041Y252774*
X276219Y252419D02*
G03X275041Y252774I-919J-919D01*
G01X276219Y252419D02*
X281869Y246769D01*
G03X281940Y246740I71J71*
G01X318999*
G03X319061Y246762I-0J100*
G01X380367Y235674D02*
G03X380367I-3456J0D01*
G01X385621Y242468D02*
G03X383700Y244395I1290J3206D01*
G01X385621Y242468D02*
G03X385513Y242446I-37J-93D01*
G01X382858Y239799*
X381940Y239420D02*
G03X382858Y239799I0J1300D01*
G01X381940Y239420D02*
X372230D01*
X371311Y239801D02*
G03X372230Y239420I919J919D01*
G01X371311Y239801D02*
X364671Y246441D01*
G03X364600Y246470I-71J-71*
G01X328350*
X327422Y246860D02*
G03X328350Y246470I928J910D01*
G01X327422Y246860D02*
X323234Y251130D01*
G03X323162Y251160I-72J-70*
G01X305962*
G03X305914Y250972I0J-100*
G01X306169Y250802D02*
G03X305914Y250972I-1069J-1322D01*
G01X306169Y250802D02*
G03X306231Y250780I62J78D01*
G01X322180*
X323099Y250399D02*
G03X322180Y250780I-919J-919D01*
G01X323099Y250399D02*
X327489Y246009D01*
G03X327560Y245980I71J71*
G01X357750*
X358669Y245599D02*
G03X357750Y245980I-919J-919D01*
G01X358669Y245599D02*
X372279Y231989D01*
G03X372350Y231960I71J71*
G01X381316*
G03X381387Y231989I0J100*
G01X383680Y234282*
G03X383702Y234390I-71J71*
G01X385626Y232466D02*
G03X383702Y234390I1285J3208D01*
G01X385626Y232466D02*
G03X385519Y232444I-37J-93D01*
G01X382816Y229741*
X381896Y229360D02*
G03X382816Y229741I0J1300D01*
G01X381896Y229360D02*
X371770D01*
X370851Y229741D02*
G03X371770Y229360I919J919D01*
G01X370851Y229741D02*
X357241Y243351D01*
G03X357170Y243380I-71J-71*
G01X326980*
X326061Y243761D02*
G03X326980Y243380I919J919D01*
G01X326061Y243761D02*
X321671Y248151D01*
G03X321600Y248180I-71J-71*
G01X306231*
G03X306169Y248158I0J-100*
G01X304286Y250972D02*
G03X306169Y248158I814J-1492D01*
G01X304286Y250972D02*
G03X304238Y251160I-48J88D01*
G01X301251*
G03X301189Y251138I0J-100*
G01Y253782D02*
G03Y251138I-1069J-1322D01*
G01Y253782D02*
G03X301251Y253760I62J78D01*
G01X323750*
X324678Y253370D02*
G03X323750Y253760I-928J-910D01*
G01X324678Y253370D02*
X328866Y249100D01*
G03X328938Y249070I72J70*
G01X365180*
X366099Y248689D02*
G03X365180Y249070I-919J-919D01*
G01X366099Y248689D02*
X372739Y242049D01*
G03X372810Y242020I71J71*
G01X376793*
G03X376797Y242220I0J100*
G01X377025D02*
G03X376797I-114J3454D01*
G01X377025D02*
G03X377029Y242020I4J-100D01*
G01X381361*
G03X381432Y242049I0J100*
G01X383678Y244287*
G03X383700Y244395I-71J71*
G01X415357Y225674D02*
G03X415357I-3456J0D01*
G01X390367Y268430D02*
Y262918D01*
X389667Y262218D02*
G03X390367Y262918I-0J700D01*
G01X389667Y262218D02*
X384155D01*
X383455Y262918D02*
G03X384155Y262218I700J0D01*
G01X383455Y262918D02*
Y268430D01*
X384155Y269130D02*
G03X383455Y268430I-0J-700D01*
G01X384155Y269130D02*
X389667D01*
X390367Y268430D02*
G03X389667Y269130I-700J0D01*
G01X380367Y268430D02*
Y262918D01*
X379667Y262218D02*
G03X380367Y262918I-0J700D01*
G01X379667Y262218D02*
X374155D01*
X373455Y262918D02*
G03X374155Y262218I700J0D01*
G01X373455Y262918D02*
Y268430D01*
X374155Y269130D02*
G03X373455Y268430I-0J-700D01*
G01X374155Y269130D02*
X379667D01*
X380367Y268430D02*
G03X379667Y269130I-700J0D01*
G01X408472Y246105D02*
G03X409920Y248506I3429J-431D01*
G01X408472Y246105D02*
G03X408444Y246188I-99J12D01*
G01X404011Y250621*
X403630Y251540D02*
G03X404011Y250621I1300J0D01*
G01X403630Y251540D02*
Y257190D01*
G03X403601Y257261I-100J0*
G01X391011Y269851*
G03X390940Y269880I-71J-71*
G01X373650*
G03X373579Y269851I-0J-100*
G01X359969Y256241*
X359050Y255860D02*
G03X359969Y256241I0J1300D01*
G01X359050Y255860D02*
X346261D01*
G03X346199Y255838I0J-100*
G01X346010Y255706D02*
G03X346199Y255838I-880J1454D01*
G01X346010Y255706D02*
G03X346062Y255520I52J-86D01*
G01X364290*
G03X364361Y255549I0J100*
G01X370131Y261319*
X371050Y261700D02*
G03X370131Y261319I0J-1300D01*
G01X371050Y261700D02*
X390360D01*
X391279Y261319D02*
G03X390360Y261700I-919J-919D01*
G01X391279Y261319D02*
X405829Y246769D01*
X406210Y245850D02*
G03X405829Y246769I-1300J0D01*
G01X406210Y245850D02*
Y242936D01*
G03X406239Y242865I100J0*
G01X410294Y238811*
G03X410408Y238791I71J70*
G01X408613Y236738D02*
G03X410408Y238791I3288J-1064D01*
G01X408613Y236738D02*
G03X408588Y236840I-96J31D01*
G01X404126Y241302*
G03X404116Y241311I-71J-71*
G01X403610Y242340D02*
G03X404116Y241311I1300J0D01*
G01X403610Y242340D02*
Y245270D01*
G03X403581Y245341I-100J0*
G01X389851Y259071*
G03X389780Y259100I-71J-71*
G01X388169*
G03X388134Y258906I0J-100*
G01X385849Y252386D02*
G03X388134Y258906I1062J3288D01*
G01X385849Y252386D02*
G03X385743Y252356I-31J-96D01*
G01X383606Y249906*
X382626Y249460D02*
G03X383606Y249906I0J1300D01*
G01X382626Y249460D02*
X330320D01*
X329401Y249841D02*
G03X330320Y249460I919J919D01*
G01X329401Y249841D02*
X324321Y254921D01*
G03X324250Y254950I-71J-71*
G01X296221*
G03X296159Y254928I0J-100*
G01X294692Y257903D02*
G03X296159Y254928I398J-1653D01*
G01X294692Y257903D02*
G03X294669Y258100I-23J97D01*
G01X285070*
X276106*
G03X276035Y258071I-0J-100*
G01X273212Y255248*
X272919Y255014D02*
G03X273212Y255248I-909J1436D01*
G01X272919Y255014D02*
G03X272883Y254972I54J-85D01*
G01X272058Y259036D02*
G03X272883Y254972I-2297J-2582D01*
G01X272058Y259036D02*
G03X272196Y259040I67J74D01*
G01X274158Y261002*
X275360Y261500D02*
G03X274158Y261002I0J-1700D01*
G01X275360Y261500D02*
X285070D01*
X308120*
G03X308220Y261600I-0J100*
G01Y273380*
X308709Y274573D02*
G03X308220Y273380I1211J-1193D01*
G01X308709Y274573D02*
X314669Y280623D01*
X315880Y281130D02*
G03X314669Y280623I0J-1700D01*
G01X315880Y281130D02*
X404290D01*
X405492Y280632D02*
G03X404290Y281130I-1202J-1202D01*
G01X405492Y280632D02*
X413103Y273021D01*
X413601Y271819D02*
G03X413103Y273021I-1700J0D01*
G01X413601Y271819D02*
Y269230D01*
G03X413701Y269130I100J0*
G01X414657*
X415357Y268430D02*
G03X414657Y269130I-700J0D01*
G01X415357Y268430D02*
Y262918D01*
X414657Y262218D02*
G03X415357Y262918I-0J700D01*
G01X414657Y262218D02*
X409145D01*
X408445Y262918D02*
G03X409145Y262218I700J0D01*
G01X408445Y262918D02*
Y268430D01*
X409145Y269130D02*
G03X408445Y268430I-0J-700D01*
G01X409145Y269130D02*
X410101D01*
G03X410201Y269230I-0J100*
G01Y271074*
G03X410171Y271144I-100J-0*
G01X403615Y277701*
G03X403544Y277730I-71J-71*
G01X316634*
G03X316562Y277700I-0J-100*
G01X311649Y272712*
G03X311620Y272642I71J-70*
G01Y259800*
X309920Y258100D02*
G03X311620Y259800I0J1700D01*
G01X309920Y258100D02*
X295511D01*
G03X295488Y257903I0J-100*
G01X296159Y257572D02*
G03X295488Y257903I-1069J-1322D01*
G01X296159Y257572D02*
G03X296221Y257550I62J78D01*
G01X324830*
X325749Y257169D02*
G03X324830Y257550I-919J-919D01*
G01X325749Y257169D02*
X330829Y252089D01*
G03X330900Y252060I71J71*
G01X376368*
G03X376383Y252259I0J100*
G01X375687Y258906D02*
G03X376383Y252259I1224J-3232D01*
G01X375687Y258906D02*
G03X375652Y259100I-35J94D01*
G01X371630*
G03X371559Y259071I-0J-100*
G01X365789Y253301*
X364870Y252920D02*
G03X365789Y253301I0J1300D01*
G01X364870Y252920D02*
X336157D01*
G03X336097Y252901I-0J-100*
G01X336214Y255545D02*
G03X336097Y252901I-1124J-1275D01*
G01X336214Y255545D02*
G03X336281Y255520I67J75D01*
G01X344198*
G03X344250Y255706I0J100*
G01X346199Y258482D02*
G03X344250Y255706I-1069J-1322D01*
G01X346199Y258482D02*
G03X346261Y258460I62J78D01*
G01X358470*
G03X358541Y258489I0J100*
G01X372151Y272099*
X373070Y272480D02*
G03X372151Y272099I0J-1300D01*
G01X373070Y272480D02*
X391520D01*
X392439Y272099D02*
G03X391520Y272480I-919J-919D01*
G01X392439Y272099D02*
X405849Y258689D01*
X406230Y257770D02*
G03X405849Y258689I-1300J0D01*
G01X406230Y257770D02*
Y252120D01*
G03X406259Y252049I100J-0*
G01X409792Y248517*
G03X409920Y248506I70J71*
G01X438880Y285279D02*
X523430D01*
X438880Y285099D02*
X523430D01*
X438880Y284919D02*
X523430D01*
X438880Y284739D02*
X523430D01*
X438880Y284559D02*
X523430D01*
X517688Y284379D02*
X523430D01*
X518427Y284199D02*
X523430D01*
X518904Y284019D02*
X523430D01*
X519276Y283839D02*
X523430D01*
X519587Y283659D02*
X523430D01*
X519856Y283479D02*
X523430D01*
X520093Y283299D02*
X523430D01*
X520305Y283119D02*
X523430D01*
X520495Y282939D02*
X523430D01*
X520668Y282759D02*
X523430D01*
X520825Y282579D02*
X523430D01*
X520968Y282399D02*
X523430D01*
X521099Y282219D02*
X523430D01*
X521219Y282039D02*
X523430D01*
X521328Y281859D02*
X523430D01*
X521428Y281679D02*
X523430D01*
X521519Y281499D02*
X523430D01*
X521601Y281319D02*
X523430D01*
X521675Y281139D02*
X523430D01*
X521741Y280959D02*
X523430D01*
X521800Y280779D02*
X523430D01*
X521852Y280599D02*
X523430D01*
X521897Y280419D02*
X523430D01*
X521935Y280239D02*
X523430D01*
X521967Y280059D02*
X523430D01*
X521992Y279879D02*
X523430D01*
X522011Y279699D02*
X523430D01*
X522023Y279519D02*
X523430D01*
X522029Y279339D02*
X523430D01*
X522029Y279159D02*
X523430D01*
X522023Y278979D02*
X523430D01*
X522010Y278799D02*
X523430D01*
X521992Y278619D02*
X523430D01*
X521966Y278439D02*
X523430D01*
X521935Y278259D02*
X523430D01*
X521896Y278079D02*
X523430D01*
X521851Y277899D02*
X523430D01*
X521799Y277719D02*
X523430D01*
X521740Y277539D02*
X523430D01*
X521674Y277359D02*
X523430D01*
X521600Y277179D02*
X523430D01*
X521517Y276999D02*
X523430D01*
X521427Y276819D02*
X523430D01*
X521327Y276639D02*
X523430D01*
X521217Y276459D02*
X523430D01*
X521097Y276279D02*
X523430D01*
X520966Y276099D02*
X523430D01*
X520823Y275919D02*
X523430D01*
X520665Y275739D02*
X523430D01*
X520493Y275559D02*
X523430D01*
X520302Y275379D02*
X523430D01*
X520090Y275199D02*
X523430D01*
X519853Y275019D02*
X523430D01*
X519583Y274839D02*
X523430D01*
X519271Y274659D02*
X523430D01*
X518898Y274479D02*
X523430D01*
X518419Y274299D02*
X523430D01*
X517673Y274119D02*
X523430D01*
X438880Y273939D02*
X523430D01*
X438880Y273759D02*
X523430D01*
X438880Y273579D02*
X523430D01*
X438880Y273399D02*
X523430D01*
X438880Y273219D02*
X523430D01*
X438880Y273039D02*
X523430D01*
X438880Y272859D02*
X523430D01*
X438880Y272679D02*
X523430D01*
X438880Y272499D02*
X523430D01*
X438880Y272319D02*
X523430D01*
X438880Y272139D02*
X523430D01*
X438880Y271959D02*
X523430D01*
X438880Y271779D02*
X523430D01*
X438880Y271599D02*
X523430D01*
X438880Y271419D02*
X523430D01*
X438880Y271239D02*
X523430D01*
X438880Y271059D02*
X523430D01*
X438880Y270879D02*
X523430D01*
X438880Y270699D02*
X523430D01*
X438880Y270519D02*
X523430D01*
X438880Y270339D02*
X523430D01*
X438880Y270159D02*
X523430D01*
X438880Y269979D02*
X523430D01*
X438880Y269799D02*
X523430D01*
X438880Y269619D02*
X523430D01*
X438880Y269439D02*
X523430D01*
X438880Y269259D02*
X523430D01*
X519153Y269079D02*
X523430D01*
X519577Y268899D02*
X523430D01*
X519719Y268719D02*
X523430D01*
X519788Y268539D02*
X523430D01*
X519807Y268359D02*
X523430D01*
X519807Y268179D02*
X523430D01*
X519807Y267999D02*
X523430D01*
X519807Y267819D02*
X523430D01*
X519807Y267639D02*
X523430D01*
X519807Y267459D02*
X523430D01*
X519807Y267279D02*
X523430D01*
X519807Y267099D02*
X523430D01*
X519807Y266919D02*
X523430D01*
X519807Y266739D02*
X523430D01*
X519807Y266559D02*
X523430D01*
X519807Y266379D02*
X523430D01*
X519807Y266199D02*
X523430D01*
X519807Y266019D02*
X523430D01*
X519807Y265839D02*
X523430D01*
X519807Y265659D02*
X523430D01*
X519807Y265479D02*
X523430D01*
X519807Y265299D02*
X523430D01*
X519807Y265119D02*
X523430D01*
X519807Y264939D02*
X523430D01*
X519807Y264759D02*
X523430D01*
X519807Y264579D02*
X523430D01*
X519807Y264399D02*
X523430D01*
X519807Y264219D02*
X523430D01*
X519807Y264039D02*
X523430D01*
X519807Y263859D02*
X523430D01*
X519807Y263679D02*
X523430D01*
X519807Y263499D02*
X523430D01*
X519807Y263319D02*
X523430D01*
X519807Y263139D02*
X523430D01*
X519807Y262959D02*
X523430D01*
X519801Y262779D02*
X523430D01*
X519753Y262599D02*
X523430D01*
X519643Y262419D02*
X523430D01*
X519412Y262239D02*
X523430D01*
X438880Y262059D02*
X523430D01*
X438880Y261879D02*
X523430D01*
X438880Y261699D02*
X523430D01*
X438880Y261519D02*
X523430D01*
X438880Y261339D02*
X523430D01*
X438880Y261159D02*
X523430D01*
X438880Y260979D02*
X523430D01*
X438880Y260799D02*
X523430D01*
X438880Y260619D02*
X523430D01*
X438880Y260439D02*
X523430D01*
X438880Y260259D02*
X523430D01*
X438880Y260079D02*
X523430D01*
X438880Y259899D02*
X523430D01*
X438880Y259719D02*
X523430D01*
X438880Y259539D02*
X523430D01*
X438880Y259359D02*
X523430D01*
X438880Y259179D02*
X523430D01*
X517097Y258999D02*
X523430D01*
X517670Y258819D02*
X523430D01*
X518041Y258639D02*
X523430D01*
X518328Y258459D02*
X523430D01*
X518564Y258279D02*
X523430D01*
X518763Y258099D02*
X523430D01*
X518935Y257919D02*
X523430D01*
X519084Y257739D02*
X523430D01*
X519214Y257559D02*
X523430D01*
X519328Y257379D02*
X523430D01*
X519427Y257199D02*
X523430D01*
X519513Y257019D02*
X523430D01*
X519586Y256839D02*
X523430D01*
X519648Y256659D02*
X523430D01*
X519699Y256479D02*
X523430D01*
X519740Y256299D02*
X523430D01*
X519771Y256119D02*
X523430D01*
X519792Y255939D02*
X523430D01*
X519804Y255759D02*
X523430D01*
X519806Y255579D02*
X523430D01*
X519799Y255399D02*
X523430D01*
X519783Y255219D02*
X523430D01*
X519757Y255039D02*
X523430D01*
X519721Y254859D02*
X523430D01*
X519675Y254679D02*
X523430D01*
X519618Y254499D02*
X523430D01*
X519550Y254319D02*
X523430D01*
X519471Y254139D02*
X523430D01*
X519379Y253959D02*
X523430D01*
X519272Y253779D02*
X523430D01*
X519151Y253599D02*
X523430D01*
X519011Y253419D02*
X523430D01*
X518851Y253239D02*
X523430D01*
X518666Y253059D02*
X523430D01*
X518449Y252879D02*
X523430D01*
X518190Y252699D02*
X523430D01*
X517867Y252519D02*
X523430D01*
X517422Y252339D02*
X523430D01*
X438880Y252159D02*
X523430D01*
X438880Y251979D02*
X523430D01*
X438880Y251799D02*
X523430D01*
X438880Y251619D02*
X523430D01*
X438880Y251439D02*
X523430D01*
X438880Y251259D02*
X523430D01*
X438880Y251079D02*
X523430D01*
X438880Y250899D02*
X523430D01*
X438880Y250719D02*
X523430D01*
X438880Y250539D02*
X523430D01*
X438880Y250359D02*
X523430D01*
X438880Y250179D02*
X523430D01*
X438880Y249999D02*
X523430D01*
X438880Y249819D02*
X523430D01*
X438880Y249639D02*
X523430D01*
X438880Y249459D02*
X523430D01*
X438880Y249279D02*
X523430D01*
X438880Y249099D02*
X523430D01*
X517394Y248919D02*
X523430D01*
X517848Y248739D02*
X523430D01*
X518176Y248559D02*
X523430D01*
X518438Y248379D02*
X523430D01*
X518656Y248199D02*
X523430D01*
X518843Y248019D02*
X523430D01*
X519004Y247839D02*
X523430D01*
X519144Y247659D02*
X523430D01*
X519267Y247479D02*
X523430D01*
X519374Y247299D02*
X523430D01*
X519467Y247119D02*
X523430D01*
X519547Y246939D02*
X523430D01*
X519615Y246759D02*
X523430D01*
X519672Y246579D02*
X523430D01*
X519719Y246399D02*
X523430D01*
X519755Y246219D02*
X523430D01*
X519782Y246039D02*
X523430D01*
X519799Y245859D02*
X523430D01*
X519806Y245679D02*
X523430D01*
X519805Y245499D02*
X523430D01*
X519793Y245319D02*
X523430D01*
X519773Y245139D02*
X523430D01*
X519742Y244959D02*
X523430D01*
X519702Y244779D02*
X523430D01*
X519651Y244599D02*
X523430D01*
X519590Y244419D02*
X523430D01*
X519517Y244239D02*
X523430D01*
X519432Y244059D02*
X523430D01*
X519334Y243879D02*
X523430D01*
X519221Y243699D02*
X523430D01*
X519092Y243519D02*
X523430D01*
X518943Y243339D02*
X523430D01*
X518773Y243159D02*
X523430D01*
X518575Y242979D02*
X523430D01*
X518341Y242799D02*
X523430D01*
X518057Y242619D02*
X523430D01*
X517692Y242439D02*
X523430D01*
X517137Y242259D02*
X523430D01*
X482137Y242079D02*
X523430D01*
X481858Y241899D02*
X523430D01*
X481252Y241719D02*
X523430D01*
X438880Y241539D02*
X523430D01*
X438880Y241359D02*
X523430D01*
X438880Y241179D02*
X523430D01*
X438880Y240999D02*
X523430D01*
X438880Y240819D02*
X523430D01*
X438880Y240639D02*
X523430D01*
X438880Y240459D02*
X523430D01*
X438880Y240279D02*
X523430D01*
X438880Y240099D02*
X523430D01*
X438880Y239919D02*
X523430D01*
X438880Y239739D02*
X523430D01*
X438880Y239559D02*
X523430D01*
X438880Y239379D02*
X523430D01*
X438880Y239199D02*
X523430D01*
X517000Y239019D02*
X523430D01*
X517620Y238839D02*
X523430D01*
X518005Y238659D02*
X523430D01*
X518299Y238479D02*
X523430D01*
X518540Y238299D02*
X523430D01*
X518743Y238119D02*
X523430D01*
X518917Y237939D02*
X523430D01*
X519069Y237759D02*
X523430D01*
X519201Y237579D02*
X523430D01*
X519316Y237399D02*
X523430D01*
X519417Y237219D02*
X523430D01*
X519504Y237039D02*
X523430D01*
X519579Y236859D02*
X523430D01*
X519642Y236679D02*
X523430D01*
X519694Y236499D02*
X523430D01*
X519736Y236319D02*
X523430D01*
X519768Y236139D02*
X523430D01*
X519790Y235959D02*
X523430D01*
X519803Y235779D02*
X523430D01*
X519806Y235599D02*
X523430D01*
X519800Y235419D02*
X523430D01*
X519785Y235239D02*
X523430D01*
X519760Y235059D02*
X523430D01*
X519725Y234879D02*
X523430D01*
X519680Y234699D02*
X523430D01*
X519625Y234519D02*
X523430D01*
X519559Y234339D02*
X523430D01*
X519480Y234159D02*
X523430D01*
X519390Y233979D02*
X523430D01*
X519285Y233799D02*
X523430D01*
X519165Y233619D02*
X523430D01*
X519028Y233439D02*
X523430D01*
X518870Y233259D02*
X523430D01*
X518688Y233079D02*
X523430D01*
X518475Y232899D02*
X523430D01*
X518222Y232719D02*
X523430D01*
X517907Y232539D02*
X523430D01*
X517482Y232359D02*
X523430D01*
X516617Y232179D02*
X523430D01*
X438880Y231999D02*
X523430D01*
X438880Y231819D02*
X523430D01*
X438880Y231639D02*
X523430D01*
X438880Y231459D02*
X523430D01*
X438880Y231279D02*
X523430D01*
X438880Y231099D02*
X523430D01*
X438880Y230919D02*
X523430D01*
X438880Y230739D02*
X523430D01*
X438880Y230559D02*
X523430D01*
X438880Y230379D02*
X523430D01*
X438880Y230199D02*
X523430D01*
X438880Y230019D02*
X523430D01*
X438880Y229839D02*
X523430D01*
X438880Y229659D02*
X523430D01*
X438880Y229479D02*
X523430D01*
X438880Y229299D02*
X523430D01*
X438880Y229119D02*
X523430D01*
X517330Y228939D02*
X523430D01*
X517806Y228759D02*
X523430D01*
X518144Y228579D02*
X523430D01*
X518411Y228399D02*
X523430D01*
X518634Y228219D02*
X523430D01*
X518823Y228039D02*
X523430D01*
X518987Y227859D02*
X523430D01*
X519130Y227679D02*
X523430D01*
X519254Y227499D02*
X523430D01*
X519363Y227319D02*
X523430D01*
X519457Y227139D02*
X523430D01*
X519539Y226959D02*
X523430D01*
X519608Y226779D02*
X523430D01*
X519666Y226599D02*
X523430D01*
X519714Y226419D02*
X523430D01*
X519752Y226239D02*
X523430D01*
X519779Y226059D02*
X523430D01*
X519797Y225879D02*
X523430D01*
X519806Y225699D02*
X523430D01*
X519805Y225519D02*
X523430D01*
X519795Y225339D02*
X523430D01*
X519775Y225159D02*
X523430D01*
X519746Y224979D02*
X523430D01*
X519706Y224799D02*
X523430D01*
X519657Y224619D02*
X523430D01*
X519597Y224439D02*
X523430D01*
X519525Y224259D02*
X523430D01*
X519442Y224079D02*
X523430D01*
X519345Y223899D02*
X523430D01*
X519234Y223719D02*
X523430D01*
X519106Y223539D02*
X523430D01*
X518960Y223359D02*
X523430D01*
X518792Y223179D02*
X523430D01*
X518598Y222999D02*
X523430D01*
X518368Y222819D02*
X523430D01*
X518091Y222639D02*
X523430D01*
X517737Y222459D02*
X523430D01*
X517217Y222279D02*
X523430D01*
X438880Y222099D02*
X523430D01*
X438880Y221919D02*
X523430D01*
X438880Y221739D02*
X523430D01*
X438880Y221559D02*
X523430D01*
X438880Y221379D02*
X523430D01*
X438880Y221199D02*
X523430D01*
X438880Y221019D02*
X523430D01*
X438880Y220839D02*
X523430D01*
X438880Y220659D02*
X523430D01*
X438880Y220479D02*
X523430D01*
X438880Y220299D02*
X523430D01*
X438880Y220119D02*
X523430D01*
X438880Y219939D02*
X523430D01*
X438880Y219759D02*
X523430D01*
X438880Y219579D02*
X523430D01*
X438880Y219399D02*
X523430D01*
X438880Y219219D02*
X523430D01*
X438880Y219039D02*
X523430D01*
X438880Y218859D02*
X523430D01*
X438880Y218679D02*
X523430D01*
X438880Y218499D02*
X523430D01*
X438880Y218319D02*
X523430D01*
X438880Y218139D02*
X523430D01*
X438880Y217959D02*
X523430D01*
X438880Y217779D02*
X523430D01*
X438880Y217599D02*
X523430D01*
X438880Y217419D02*
X523430D01*
X438880Y217239D02*
X523430D01*
X438880Y217059D02*
X523430D01*
X438880Y216879D02*
X523430D01*
X438880Y216699D02*
X523430D01*
X438880Y216519D02*
X523430D01*
X438880Y216339D02*
X523430D01*
X438880Y216159D02*
X523430D01*
X438880Y215979D02*
X523430D01*
X438880Y215799D02*
X523430D01*
X438880Y215619D02*
X523430D01*
X438880Y215439D02*
X523430D01*
X438880Y215259D02*
X523430D01*
X438880Y215079D02*
X523430D01*
X438880Y214899D02*
X523430D01*
X438880Y214719D02*
X523430D01*
X438880Y214539D02*
X523430D01*
X438880Y214359D02*
X523430D01*
X438880Y214179D02*
X523430D01*
X438880Y213999D02*
X523430D01*
X438880Y213819D02*
X523430D01*
X438880Y213639D02*
X523430D01*
X438880Y213459D02*
X523430D01*
X438880Y213279D02*
X523430D01*
X438880Y213099D02*
X523430D01*
X438880Y212919D02*
X523430D01*
X518154Y212739D02*
X523430D01*
X518709Y212559D02*
X523430D01*
X519120Y212379D02*
X523430D01*
X519455Y212199D02*
X523430D01*
X519741Y212019D02*
X523430D01*
X519991Y211839D02*
X523430D01*
X520214Y211659D02*
X523430D01*
X520413Y211479D02*
X523430D01*
X520593Y211299D02*
X523430D01*
X520757Y211119D02*
X523430D01*
X520906Y210939D02*
X523430D01*
X521043Y210759D02*
X523430D01*
X521167Y210579D02*
X523430D01*
X521281Y210399D02*
X523430D01*
X521385Y210219D02*
X523430D01*
X521479Y210039D02*
X523430D01*
X521565Y209859D02*
X523430D01*
X521643Y209679D02*
X523430D01*
X521713Y209499D02*
X523430D01*
X521775Y209319D02*
X523430D01*
X521830Y209139D02*
X523430D01*
X521878Y208959D02*
X523430D01*
X521919Y208779D02*
X523430D01*
X521954Y208599D02*
X523430D01*
X521982Y208419D02*
X523430D01*
X522003Y208239D02*
X523430D01*
X522018Y208059D02*
X523430D01*
X522027Y207879D02*
X523430D01*
X522030Y207699D02*
X523430D01*
X522027Y207519D02*
X523430D01*
X522017Y207339D02*
X523430D01*
X522001Y207159D02*
X523430D01*
X521978Y206979D02*
X523430D01*
X521950Y206799D02*
X523430D01*
X521914Y206619D02*
X523430D01*
X521872Y206439D02*
X523430D01*
X521823Y206259D02*
X523430D01*
X521768Y206079D02*
X523430D01*
X521704Y205899D02*
X523430D01*
X521634Y205719D02*
X523430D01*
X521555Y205539D02*
X523430D01*
X521468Y205359D02*
X523430D01*
X521372Y205179D02*
X523430D01*
X521267Y204999D02*
X523430D01*
X521152Y204819D02*
X523430D01*
X521026Y204639D02*
X523430D01*
X520888Y204459D02*
X523430D01*
X520737Y204279D02*
X523430D01*
X520571Y204099D02*
X523430D01*
X520389Y203919D02*
X523430D01*
X520187Y203739D02*
X523430D01*
X519962Y203559D02*
X523430D01*
X519707Y203379D02*
X523430D01*
X519416Y203199D02*
X523430D01*
X519073Y203019D02*
X523430D01*
X518649Y202839D02*
X523430D01*
X518065Y202659D02*
X523430D01*
X438880Y202479D02*
X523430D01*
X438880Y202299D02*
X523430D01*
X438880Y202119D02*
X523430D01*
X438880Y201939D02*
X523430D01*
X438880Y201759D02*
X523430D01*
X448867Y232179D02*
X516084D01*
X446113Y274119D02*
X515987D01*
X446128Y284379D02*
X515972D01*
X449250Y239019D02*
X515701D01*
X449347Y258999D02*
X515604D01*
X446505Y202659D02*
X515595D01*
X482331Y242259D02*
X515565D01*
X446594Y212739D02*
X515506D01*
X449467Y222279D02*
X515485D01*
X449580Y228939D02*
X515372D01*
X449644Y248919D02*
X515308D01*
X449672Y252339D02*
X515279D01*
X446859Y274299D02*
X515241D01*
X446867Y284199D02*
X515233D01*
X449732Y232359D02*
X515220D01*
X449870Y238839D02*
X515081D01*
X449920Y258819D02*
X515032D01*
X447089Y202839D02*
X515011D01*
X482475Y242439D02*
X515010D01*
X449987Y222459D02*
X514964D01*
X447149Y212559D02*
X514951D01*
X450056Y228759D02*
X514895D01*
X514792Y248739D02*
X514851D01*
X450117Y252519D02*
X514835D01*
X450157Y232539D02*
X514794D01*
X447338Y274479D02*
X514762D01*
X447344Y284019D02*
X514756D01*
X450255Y238659D02*
X514697D01*
X450291Y258639D02*
X514660D01*
X482585Y242619D02*
X514645D01*
X450341Y222639D02*
X514610D01*
X447513Y203019D02*
X514587D01*
X450394Y228579D02*
X514558D01*
X447560Y212379D02*
X514540D01*
X450440Y252699D02*
X514511D01*
X450472Y232719D02*
X514480D01*
X450549Y238479D02*
X514402D01*
X447711Y274659D02*
X514389D01*
X447716Y283839D02*
X514384D01*
X450578Y258459D02*
X514373D01*
X482666Y242799D02*
X514361D01*
X450618Y222819D02*
X514333D01*
X450661Y228399D02*
X514290D01*
X450699Y252879D02*
X514252D01*
X447856Y203199D02*
X514244D01*
X450725Y232899D02*
X514226D01*
X447895Y212199D02*
X514205D01*
X450790Y238299D02*
X514162D01*
X450814Y258279D02*
X514138D01*
X482724Y242979D02*
X514127D01*
X450848Y222999D02*
X514104D01*
X448023Y274839D02*
X514077D01*
X448027Y283659D02*
X514073D01*
X450884Y228219D02*
X514067D01*
X450916Y253059D02*
X514035D01*
X450938Y233079D02*
X514013D01*
X450993Y238119D02*
X513959D01*
X448147Y203379D02*
X513953D01*
X451013Y258099D02*
X513938D01*
X482761Y243159D02*
X513929D01*
X448181Y212019D02*
X513919D01*
X451042Y223179D02*
X513909D01*
X451073Y228039D02*
X513878D01*
X451101Y253239D02*
X513850D01*
X451120Y233259D02*
X513831D01*
X448293Y275019D02*
X513807D01*
X448296Y283479D02*
X513804D01*
X451167Y237939D02*
X513784D01*
X451185Y257919D02*
X513766D01*
X482779Y243339D02*
X513759D01*
X451210Y223359D02*
X513741D01*
X451237Y227859D02*
X513714D01*
X448402Y203559D02*
X513698D01*
X451261Y253419D02*
X513690D01*
X451278Y233439D02*
X513674D01*
X448431Y211839D02*
X513669D01*
X451319Y237759D02*
X513633D01*
X451334Y257739D02*
X513617D01*
X482777Y243519D02*
X513610D01*
X451356Y223539D02*
X513595D01*
X451380Y227679D02*
X513572D01*
X448530Y275199D02*
X513570D01*
X448533Y283299D02*
X513567D01*
X451401Y253599D02*
X513551D01*
X451403Y269079D02*
X513548D01*
X451415Y233619D02*
X513536D01*
X451451Y237579D02*
X513500D01*
X451464Y257559D02*
X513487D01*
X482755Y243699D02*
X513481D01*
X448627Y203739D02*
X513473D01*
X451484Y223719D02*
X513468D01*
X451504Y227499D02*
X513447D01*
X448654Y211659D02*
X513446D01*
X451522Y253779D02*
X513429D01*
X451535Y233799D02*
X513416D01*
X451566Y237399D02*
X513385D01*
X451578Y257379D02*
X513373D01*
X482714Y243879D02*
X513368D01*
X448742Y275379D02*
X513358D01*
X451595Y223899D02*
X513356D01*
X448745Y283119D02*
X513355D01*
X451613Y227319D02*
X513339D01*
X451629Y253959D02*
X513323D01*
X451640Y233979D02*
X513312D01*
X451662Y262239D02*
X513289D01*
X451667Y237219D02*
X513284D01*
X451677Y257199D02*
X513274D01*
X448829Y203919D02*
X513271D01*
X482651Y244059D02*
X513270D01*
X451692Y224079D02*
X513260D01*
X448853Y211479D02*
X513247D01*
X451707Y227139D02*
X513244D01*
X451721Y254139D02*
X513230D01*
X451730Y234159D02*
X513221D01*
X451754Y237039D02*
X513197D01*
X451763Y257019D02*
X513188D01*
X482564Y244239D02*
X513185D01*
X451775Y224259D02*
X513176D01*
X448933Y275559D02*
X513167D01*
X448935Y282939D02*
X513165D01*
X451789Y226959D02*
X513163D01*
X451827Y268899D02*
X513124D01*
X451836Y254319D02*
X513115D01*
X482448Y244419D02*
X513112D01*
X451847Y224439D02*
X513104D01*
X451858Y226779D02*
X513093D01*
X449011Y204099D02*
X513089D01*
X449033Y211299D02*
X513067D01*
X451893Y262419D02*
X513058D01*
X482295Y244599D02*
X513051D01*
X451907Y224619D02*
X513044D01*
X451916Y226599D02*
X513035D01*
X482088Y244779D02*
X513000D01*
X451956Y224799D02*
X512995D01*
X449105Y275739D02*
X512995D01*
X449108Y282759D02*
X512992D01*
X451964Y226419D02*
X512987D01*
X451969Y268719D02*
X512982D01*
X481781Y244959D02*
X512960D01*
X451996Y224979D02*
X512956D01*
X452002Y226239D02*
X512950D01*
X452003Y262599D02*
X512949D01*
X452016Y246219D02*
X512936D01*
X452023Y245139D02*
X512929D01*
X452025Y225159D02*
X512926D01*
X449177Y204279D02*
X512923D01*
X452029Y226059D02*
X512922D01*
X452032Y246039D02*
X512920D01*
X452038Y268539D02*
X512913D01*
X452043Y245319D02*
X512909D01*
X452045Y225339D02*
X512907D01*
X452047Y225879D02*
X512904D01*
X452049Y245859D02*
X512903D01*
X449197Y211119D02*
X512903D01*
X452051Y262779D02*
X512900D01*
X452055Y245499D02*
X512897D01*
X452055Y225519D02*
X512896D01*
X452056Y245679D02*
X512896D01*
X452056Y225699D02*
X512896D01*
X452057Y268359D02*
X512895D01*
X452057Y268179D02*
X512895D01*
X452057Y267999D02*
X512895D01*
X452057Y267819D02*
X512895D01*
X452057Y267639D02*
X512895D01*
X452057Y267459D02*
X512895D01*
X452057Y263679D02*
X512895D01*
X452057Y263499D02*
X512895D01*
X452057Y263319D02*
X512895D01*
X452057Y263139D02*
X512895D01*
X452057Y262959D02*
X512895D01*
X452063Y263859D02*
X512889D01*
X449263Y275919D02*
X512837D01*
X449265Y282579D02*
X512835D01*
X449328Y204459D02*
X512772D01*
X449346Y210939D02*
X512754D01*
X449406Y276099D02*
X512694D01*
X449408Y282399D02*
X512692D01*
X449466Y204639D02*
X512634D01*
X449483Y210759D02*
X512617D01*
X449537Y276279D02*
X512563D01*
X449539Y282219D02*
X512561D01*
X449592Y204819D02*
X512508D01*
X449607Y210579D02*
X512493D01*
X449657Y276459D02*
X512443D01*
X449659Y282039D02*
X512441D01*
X449707Y204999D02*
X512393D01*
X449721Y210399D02*
X512379D01*
X449767Y276639D02*
X512333D01*
X449768Y281859D02*
X512332D01*
X449812Y205179D02*
X512288D01*
X449825Y210219D02*
X512275D01*
X449867Y276819D02*
X512233D01*
X449868Y281679D02*
X512232D01*
X449908Y205359D02*
X512192D01*
X449919Y210039D02*
X512181D01*
X449957Y276999D02*
X512143D01*
X449959Y281499D02*
X512141D01*
X449995Y205539D02*
X512105D01*
X450005Y209859D02*
X512095D01*
X450040Y277179D02*
X512060D01*
X450041Y281319D02*
X512059D01*
X450074Y205719D02*
X512026D01*
X450083Y209679D02*
X512017D01*
X450114Y277359D02*
X511986D01*
X450115Y281139D02*
X511985D01*
X450144Y205899D02*
X511956D01*
X450153Y209499D02*
X511947D01*
X450180Y277539D02*
X511920D01*
X450181Y280959D02*
X511919D01*
X450208Y206079D02*
X511892D01*
X450215Y209319D02*
X511885D01*
X450239Y277719D02*
X511861D01*
X450240Y280779D02*
X511860D01*
X450263Y206259D02*
X511837D01*
X450270Y209139D02*
X511830D01*
X450291Y277899D02*
X511809D01*
X450292Y280599D02*
X511808D01*
X450312Y206439D02*
X511788D01*
X450318Y208959D02*
X511782D01*
X450336Y278079D02*
X511764D01*
X450337Y280419D02*
X511763D01*
X450354Y206619D02*
X511746D01*
X450359Y208779D02*
X511741D01*
X450375Y278259D02*
X511725D01*
X450375Y280239D02*
X511725D01*
X450390Y206799D02*
X511710D01*
X450394Y208599D02*
X511706D01*
X450406Y278439D02*
X511694D01*
X450407Y280059D02*
X511693D01*
X450418Y206979D02*
X511682D01*
X450422Y208419D02*
X511678D01*
X450432Y278619D02*
X511668D01*
X450432Y279879D02*
X511668D01*
X450441Y207159D02*
X511659D01*
X450443Y208239D02*
X511657D01*
X450450Y278799D02*
X511650D01*
X450451Y279699D02*
X511649D01*
X450457Y207339D02*
X511643D01*
X450458Y208059D02*
X511642D01*
X450463Y278979D02*
X511637D01*
X450463Y279519D02*
X511637D01*
X450467Y207519D02*
X511633D01*
X450467Y207879D02*
X511633D01*
X450469Y279159D02*
X511631D01*
X450469Y279339D02*
X511631D01*
X450470Y207699D02*
X511630D01*
X438880Y241719D02*
X480908D01*
X451992Y244959D02*
X480379D01*
X438880Y241899D02*
X480302D01*
X451952Y244779D02*
X480072D01*
X438880Y242079D02*
X480023D01*
X451901Y244599D02*
X479865D01*
X449387Y242259D02*
X479829D01*
X451840Y244419D02*
X479712D01*
X449942Y242439D02*
X479685D01*
X451767Y244239D02*
X479596D01*
X450307Y242619D02*
X479575D01*
X451682Y244059D02*
X479509D01*
X450591Y242799D02*
X479494D01*
X451584Y243879D02*
X479446D01*
X450825Y242979D02*
X479436D01*
X451471Y243699D02*
X479405D01*
X451023Y243159D02*
X479399D01*
X451342Y243519D02*
X479383D01*
X451193Y243339D02*
X479381D01*
X450098Y248739D02*
X450491D01*
X438880Y232179D02*
X448334D01*
X438880Y239019D02*
X447951D01*
X438880Y258999D02*
X447854D01*
X438880Y242259D02*
X447815D01*
X438880Y222279D02*
X447735D01*
X438880Y228939D02*
X447622D01*
X438880Y248919D02*
X447558D01*
X438880Y252339D02*
X447529D01*
X438880Y232359D02*
X447470D01*
X438880Y238839D02*
X447331D01*
X438880Y258819D02*
X447282D01*
X438880Y242439D02*
X447260D01*
X438880Y222459D02*
X447214D01*
X438880Y228759D02*
X447145D01*
X438880Y248739D02*
X447104D01*
X438880Y252519D02*
X447085D01*
X438880Y232539D02*
X447044D01*
X438880Y238659D02*
X446947D01*
X438880Y258639D02*
X446910D01*
X438880Y242619D02*
X446895D01*
X438880Y222639D02*
X446860D01*
X438880Y228579D02*
X446808D01*
X438880Y248559D02*
X446776D01*
X438880Y252699D02*
X446761D01*
X438880Y232719D02*
X446730D01*
X438880Y238479D02*
X446652D01*
X438880Y258459D02*
X446623D01*
X438880Y242799D02*
X446611D01*
X438880Y222819D02*
X446583D01*
X438880Y228399D02*
X446540D01*
X438880Y248379D02*
X446514D01*
X438880Y252879D02*
X446502D01*
X438880Y232899D02*
X446476D01*
X438880Y238299D02*
X446412D01*
X438880Y258279D02*
X446388D01*
X438880Y242979D02*
X446377D01*
X438880Y222999D02*
X446354D01*
X438880Y228219D02*
X446317D01*
X438880Y248199D02*
X446296D01*
X438880Y253059D02*
X446285D01*
X438880Y233079D02*
X446263D01*
X438880Y238119D02*
X446209D01*
X438880Y258099D02*
X446188D01*
X438880Y243159D02*
X446179D01*
X438880Y223179D02*
X446159D01*
X438880Y228039D02*
X446128D01*
X438880Y248019D02*
X446109D01*
X438880Y253239D02*
X446100D01*
X438880Y233259D02*
X446081D01*
X438880Y237939D02*
X446034D01*
X438880Y257919D02*
X446016D01*
X438880Y243339D02*
X446009D01*
X438880Y223359D02*
X445991D01*
X438880Y227859D02*
X445964D01*
X438880Y247839D02*
X445948D01*
X438880Y253419D02*
X445940D01*
X438880Y233439D02*
X445924D01*
X438880Y237759D02*
X445883D01*
X438880Y257739D02*
X445867D01*
X438880Y243519D02*
X445860D01*
X438880Y223539D02*
X445845D01*
X438880Y227679D02*
X445822D01*
X438880Y247659D02*
X445808D01*
X438880Y253599D02*
X445801D01*
X438880Y269079D02*
X445798D01*
X438880Y233619D02*
X445786D01*
X438880Y237579D02*
X445750D01*
X438880Y257559D02*
X445737D01*
X438880Y243699D02*
X445731D01*
X438880Y223719D02*
X445718D01*
X438880Y227499D02*
X445697D01*
X438880Y247479D02*
X445685D01*
X438880Y253779D02*
X445679D01*
X438880Y233799D02*
X445666D01*
X438880Y237399D02*
X445635D01*
X438880Y257379D02*
X445623D01*
X438880Y243879D02*
X445618D01*
X438880Y223899D02*
X445606D01*
X438880Y227319D02*
X445589D01*
X438880Y247299D02*
X445578D01*
X438880Y253959D02*
X445573D01*
X438880Y233979D02*
X445562D01*
X438880Y262239D02*
X445539D01*
X438880Y237219D02*
X445534D01*
X438880Y257199D02*
X445524D01*
X438880Y244059D02*
X445520D01*
X438880Y224079D02*
X445510D01*
X438880Y227139D02*
X445494D01*
X438880Y247119D02*
X445485D01*
X438880Y254139D02*
X445480D01*
X438880Y234159D02*
X445471D01*
X438880Y237039D02*
X445447D01*
X438880Y257019D02*
X445438D01*
X438880Y244239D02*
X445435D01*
X438880Y224259D02*
X445426D01*
X438880Y226959D02*
X445413D01*
X438880Y246939D02*
X445405D01*
X438880Y254319D02*
X445401D01*
X438880Y234339D02*
X445393D01*
X438880Y268899D02*
X445374D01*
X438880Y236859D02*
X445373D01*
X438880Y256839D02*
X445365D01*
X438880Y244419D02*
X445362D01*
X438880Y224439D02*
X445354D01*
X438880Y226779D02*
X445343D01*
X438880Y246759D02*
X445337D01*
X438880Y254499D02*
X445333D01*
X438880Y234519D02*
X445326D01*
X438880Y236679D02*
X445309D01*
X438880Y262419D02*
X445308D01*
X438880Y256659D02*
X445303D01*
X438880Y244599D02*
X445301D01*
X438880Y224619D02*
X445294D01*
X438880Y226599D02*
X445285D01*
X438880Y246579D02*
X445280D01*
X438880Y254679D02*
X445277D01*
X438880Y234699D02*
X445271D01*
X438880Y236499D02*
X445257D01*
X438880Y256479D02*
X445252D01*
X438880Y244779D02*
X445250D01*
X438880Y224799D02*
X445245D01*
X438880Y226419D02*
X445237D01*
X438880Y246399D02*
X445233D01*
X438880Y268719D02*
X445232D01*
X438880Y254859D02*
X445231D01*
X438880Y234879D02*
X445226D01*
X438880Y236319D02*
X445215D01*
X438880Y256299D02*
X445211D01*
X438880Y244959D02*
X445210D01*
X438880Y224979D02*
X445206D01*
X438880Y226239D02*
X445200D01*
X438880Y262599D02*
X445199D01*
X438880Y246219D02*
X445197D01*
X438880Y255039D02*
X445195D01*
X438880Y235059D02*
X445191D01*
X438880Y236139D02*
X445183D01*
X438880Y256119D02*
X445180D01*
X438880Y245139D02*
X445179D01*
X438880Y225159D02*
X445176D01*
X438880Y226059D02*
X445172D01*
X438880Y246039D02*
X445170D01*
X438880Y255219D02*
X445169D01*
X438880Y235239D02*
X445166D01*
X438880Y268539D02*
X445163D01*
X438880Y235959D02*
X445161D01*
X438880Y255939D02*
X445159D01*
X438880Y245319D02*
X445159D01*
X438880Y225339D02*
X445157D01*
X438880Y225879D02*
X445154D01*
X438880Y245859D02*
X445153D01*
X438880Y255399D02*
X445152D01*
X438880Y235419D02*
X445151D01*
X438880Y262779D02*
X445150D01*
X438880Y235779D02*
X445148D01*
X438880Y245499D02*
X445147D01*
X438880Y255759D02*
X445147D01*
X438880Y225519D02*
X445146D01*
X438880Y245679D02*
X445146D01*
X438880Y225699D02*
X445146D01*
X438880Y255579D02*
X445145D01*
X438880Y235599D02*
X445145D01*
X438880Y268359D02*
X445145D01*
X438880Y268179D02*
X445145D01*
X438880Y267999D02*
X445145D01*
X438880Y267819D02*
X445145D01*
X438880Y267639D02*
X445145D01*
X438880Y267459D02*
X445145D01*
X438880Y267279D02*
X445145D01*
X438880Y267099D02*
X445145D01*
X438880Y266919D02*
X445145D01*
X438880Y266739D02*
X445145D01*
X438880Y266559D02*
X445145D01*
X438880Y266379D02*
X445145D01*
X438880Y266199D02*
X445145D01*
X438880Y266019D02*
X445145D01*
X438880Y265839D02*
X445145D01*
X438880Y265659D02*
X445145D01*
X438880Y265479D02*
X445145D01*
X438880Y265299D02*
X445145D01*
X438880Y265119D02*
X445145D01*
X438880Y264939D02*
X445145D01*
X438880Y264759D02*
X445145D01*
X438880Y264579D02*
X445145D01*
X438880Y264399D02*
X445145D01*
X438880Y264219D02*
X445145D01*
X438880Y264039D02*
X445145D01*
X438880Y263859D02*
X445145D01*
X438880Y263679D02*
X445145D01*
X438880Y263499D02*
X445145D01*
X438880Y263319D02*
X445145D01*
X438880Y263139D02*
X445145D01*
X438880Y262959D02*
X445145D01*
X438880Y274119D02*
X444427D01*
X438880Y284379D02*
X444412D01*
X438880Y202659D02*
X444035D01*
X438880Y212739D02*
X443946D01*
X438880Y274299D02*
X443681D01*
X438880Y284199D02*
X443673D01*
X438880Y202839D02*
X443451D01*
X438880Y212559D02*
X443391D01*
X438880Y274479D02*
X443202D01*
X438880Y284019D02*
X443196D01*
X438880Y203019D02*
X443027D01*
X438880Y212379D02*
X442980D01*
X438880Y274659D02*
X442829D01*
X438880Y283839D02*
X442824D01*
X438880Y203199D02*
X442684D01*
X438880Y212199D02*
X442645D01*
X438880Y274839D02*
X442517D01*
X438880Y283659D02*
X442513D01*
X438880Y203379D02*
X442393D01*
X438880Y212019D02*
X442359D01*
X438880Y275019D02*
X442247D01*
X438880Y283479D02*
X442244D01*
X438880Y203559D02*
X442138D01*
X438880Y211839D02*
X442109D01*
X438880Y275199D02*
X442010D01*
X438880Y283299D02*
X442007D01*
X438880Y203739D02*
X441913D01*
X438880Y211659D02*
X441886D01*
X438880Y275379D02*
X441798D01*
X438880Y283119D02*
X441795D01*
X438880Y203919D02*
X441711D01*
X438880Y211479D02*
X441687D01*
X438880Y275559D02*
X441607D01*
X438880Y282939D02*
X441605D01*
X438880Y204099D02*
X441529D01*
X438880Y211299D02*
X441507D01*
X438880Y275739D02*
X441435D01*
X438880Y282759D02*
X441432D01*
X438880Y204279D02*
X441363D01*
X438880Y211119D02*
X441343D01*
X438880Y275919D02*
X441277D01*
X438880Y282579D02*
X441275D01*
X438880Y204459D02*
X441212D01*
X438880Y210939D02*
X441194D01*
X438880Y276099D02*
X441134D01*
X438880Y282399D02*
X441132D01*
X438880Y204639D02*
X441074D01*
X438880Y210759D02*
X441057D01*
X438880Y276279D02*
X441003D01*
X438880Y282219D02*
X441001D01*
X438880Y204819D02*
X440948D01*
X438880Y210579D02*
X440933D01*
X438880Y276459D02*
X440883D01*
X438880Y282039D02*
X440881D01*
X438880Y204999D02*
X440833D01*
X438880Y210399D02*
X440819D01*
X438880Y276639D02*
X440773D01*
X438880Y281859D02*
X440772D01*
X438880Y205179D02*
X440728D01*
X438880Y210219D02*
X440715D01*
X438880Y276819D02*
X440673D01*
X438880Y281679D02*
X440672D01*
X438880Y205359D02*
X440632D01*
X438880Y210039D02*
X440621D01*
X438880Y276999D02*
X440583D01*
X438880Y281499D02*
X440581D01*
X438880Y205539D02*
X440545D01*
X438880Y209859D02*
X440535D01*
X438880Y277179D02*
X440500D01*
X438880Y281319D02*
X440499D01*
X438880Y205719D02*
X440466D01*
X438880Y209679D02*
X440457D01*
X438880Y277359D02*
X440426D01*
X438880Y281139D02*
X440425D01*
X438880Y205899D02*
X440396D01*
X438880Y209499D02*
X440387D01*
X438880Y277539D02*
X440360D01*
X438880Y280959D02*
X440359D01*
X438880Y206079D02*
X440332D01*
X438880Y209319D02*
X440325D01*
X438880Y277719D02*
X440301D01*
X438880Y280779D02*
X440300D01*
X438880Y206259D02*
X440277D01*
X438880Y209139D02*
X440270D01*
X438880Y277899D02*
X440249D01*
X438880Y280599D02*
X440248D01*
X438880Y206439D02*
X440228D01*
X438880Y208959D02*
X440222D01*
X438880Y278079D02*
X440204D01*
X438880Y280419D02*
X440203D01*
X438880Y206619D02*
X440186D01*
X438880Y208779D02*
X440181D01*
X438880Y278259D02*
X440165D01*
X438880Y280239D02*
X440165D01*
X438880Y206799D02*
X440150D01*
X438880Y208599D02*
X440146D01*
X438880Y278439D02*
X440134D01*
X438880Y280059D02*
X440133D01*
X438880Y206979D02*
X440122D01*
X438880Y208419D02*
X440118D01*
X438880Y278619D02*
X440108D01*
X438880Y279879D02*
X440108D01*
X438880Y207159D02*
X440099D01*
X438880Y208239D02*
X440097D01*
X438880Y278799D02*
X440090D01*
X438880Y279699D02*
X440089D01*
X438880Y207339D02*
X440083D01*
X438880Y208059D02*
X440082D01*
X438880Y278979D02*
X440077D01*
X438880Y279519D02*
X440077D01*
X438880Y207519D02*
X440073D01*
X438880Y207879D02*
X440073D01*
X438880Y279159D02*
X440071D01*
X438880Y279339D02*
X440071D01*
X438880Y207699D02*
X440070D01*
X201530Y284899D02*
X430080D01*
X201530Y284719D02*
X430080D01*
X201530Y284539D02*
X430080D01*
X201530Y284359D02*
X430080D01*
X201530Y284179D02*
X430080D01*
X201530Y283999D02*
X430080D01*
X201530Y283819D02*
X430080D01*
X201530Y283639D02*
X430080D01*
X201530Y283459D02*
X430080D01*
X201530Y283279D02*
X430080D01*
X201530Y283099D02*
X430080D01*
X201530Y282919D02*
X430080D01*
X201530Y282739D02*
X430080D01*
X201530Y282559D02*
X430080D01*
X201530Y282379D02*
X430080D01*
X201530Y282199D02*
X430080D01*
X201530Y282019D02*
X430080D01*
X201530Y281839D02*
X430080D01*
X201530Y281659D02*
X430080D01*
X201530Y281479D02*
X430080D01*
X201530Y281299D02*
X430080D01*
X404486Y281119D02*
X430080D01*
X405074Y280939D02*
X430080D01*
X405350Y280759D02*
X430080D01*
X405546Y280579D02*
X430080D01*
X405726Y280399D02*
X430080D01*
X405906Y280219D02*
X430080D01*
X406086Y280039D02*
X430080D01*
X406266Y279859D02*
X430080D01*
X406446Y279679D02*
X430080D01*
X406626Y279499D02*
X430080D01*
X406806Y279319D02*
X430080D01*
X406986Y279139D02*
X430080D01*
X407166Y278959D02*
X430080D01*
X407346Y278779D02*
X430080D01*
X407526Y278599D02*
X430080D01*
X407706Y278419D02*
X430080D01*
X407886Y278239D02*
X430080D01*
X408066Y278059D02*
X430080D01*
X408246Y277879D02*
X430080D01*
X408426Y277699D02*
X430080D01*
X408606Y277519D02*
X430080D01*
X408786Y277339D02*
X430080D01*
X408966Y277159D02*
X430080D01*
X409146Y276979D02*
X430080D01*
X409326Y276799D02*
X430080D01*
X409506Y276619D02*
X430080D01*
X409686Y276439D02*
X430080D01*
X409866Y276259D02*
X430080D01*
X410046Y276079D02*
X430080D01*
X410226Y275899D02*
X430080D01*
X410406Y275719D02*
X430080D01*
X410586Y275539D02*
X430080D01*
X410766Y275359D02*
X430080D01*
X410946Y275179D02*
X430080D01*
X411126Y274999D02*
X430080D01*
X411306Y274819D02*
X430080D01*
X411486Y274639D02*
X430080D01*
X411666Y274459D02*
X430080D01*
X411846Y274279D02*
X430080D01*
X412026Y274099D02*
X430080D01*
X412206Y273919D02*
X430080D01*
X412386Y273739D02*
X430080D01*
X412566Y273559D02*
X430080D01*
X412746Y273379D02*
X430080D01*
X412926Y273199D02*
X430080D01*
X413105Y273019D02*
X430080D01*
X413261Y272839D02*
X430080D01*
X413379Y272659D02*
X430080D01*
X413468Y272479D02*
X430080D01*
X413532Y272299D02*
X430080D01*
X413574Y272119D02*
X430080D01*
X413596Y271939D02*
X430080D01*
X413601Y271759D02*
X430080D01*
X413601Y271579D02*
X430080D01*
X413601Y271399D02*
X430080D01*
X413601Y271219D02*
X430080D01*
X413601Y271039D02*
X430080D01*
X413601Y270859D02*
X430080D01*
X413601Y270679D02*
X430080D01*
X413601Y270499D02*
X430080D01*
X413601Y270319D02*
X430080D01*
X413601Y270139D02*
X430080D01*
X413601Y269959D02*
X430080D01*
X413601Y269779D02*
X430080D01*
X413601Y269599D02*
X430080D01*
X413601Y269419D02*
X430080D01*
X413601Y269239D02*
X430080D01*
X414965Y269059D02*
X430080D01*
X415194Y268879D02*
X430080D01*
X415303Y268699D02*
X430080D01*
X415351Y268519D02*
X430080D01*
X415357Y268339D02*
X430080D01*
X415357Y268159D02*
X430080D01*
X415357Y267979D02*
X430080D01*
X415357Y267799D02*
X430080D01*
X415357Y267619D02*
X430080D01*
X415357Y267439D02*
X430080D01*
X415357Y267259D02*
X430080D01*
X415357Y267079D02*
X430080D01*
X415357Y266899D02*
X430080D01*
X415357Y266719D02*
X430080D01*
X415357Y266539D02*
X430080D01*
X415357Y266359D02*
X430080D01*
X415357Y266179D02*
X430080D01*
X415357Y265999D02*
X430080D01*
X415357Y265819D02*
X430080D01*
X415357Y265639D02*
X430080D01*
X415357Y265459D02*
X430080D01*
X415357Y265279D02*
X430080D01*
X415357Y265099D02*
X430080D01*
X415357Y264919D02*
X430080D01*
X415357Y264739D02*
X430080D01*
X415357Y264559D02*
X430080D01*
X415357Y264379D02*
X430080D01*
X415357Y264199D02*
X430080D01*
X415357Y264019D02*
X430080D01*
X415357Y263839D02*
X430080D01*
X415357Y263659D02*
X430080D01*
X415357Y263479D02*
X430080D01*
X415357Y263299D02*
X430080D01*
X415357Y263119D02*
X430080D01*
X415357Y262939D02*
X430080D01*
X415338Y262759D02*
X430080D01*
X415269Y262579D02*
X430080D01*
X415125Y262399D02*
X430080D01*
X414676Y262219D02*
X430080D01*
X408190Y262039D02*
X430080D01*
X408370Y261859D02*
X430080D01*
X408550Y261679D02*
X430080D01*
X408730Y261499D02*
X430080D01*
X408910Y261319D02*
X430080D01*
X409090Y261139D02*
X430080D01*
X409270Y260959D02*
X430080D01*
X409450Y260779D02*
X430080D01*
X409630Y260599D02*
X430080D01*
X409810Y260419D02*
X430080D01*
X409990Y260239D02*
X430080D01*
X410170Y260059D02*
X430080D01*
X410350Y259879D02*
X430080D01*
X410530Y259699D02*
X430080D01*
X410710Y259519D02*
X430080D01*
X410890Y259339D02*
X430080D01*
X411070Y259159D02*
X430080D01*
X412913Y258979D02*
X430080D01*
X413378Y258799D02*
X430080D01*
X413710Y258619D02*
X430080D01*
X413975Y258439D02*
X430080D01*
X414195Y258259D02*
X430080D01*
X414383Y258079D02*
X430080D01*
X414546Y257899D02*
X430080D01*
X414687Y257719D02*
X430080D01*
X414811Y257539D02*
X430080D01*
X414918Y257359D02*
X430080D01*
X415012Y257179D02*
X430080D01*
X415093Y256999D02*
X430080D01*
X415162Y256819D02*
X430080D01*
X415219Y256639D02*
X430080D01*
X415266Y256459D02*
X430080D01*
X415303Y256279D02*
X430080D01*
X415330Y256099D02*
X430080D01*
X415348Y255919D02*
X430080D01*
X415356Y255739D02*
X430080D01*
X415355Y255559D02*
X430080D01*
X415344Y255379D02*
X430080D01*
X415324Y255199D02*
X430080D01*
X415294Y255019D02*
X430080D01*
X415254Y254839D02*
X430080D01*
X415204Y254659D02*
X430080D01*
X415156Y254479D02*
X430080D01*
X415310Y254299D02*
X430080D01*
X415490Y254119D02*
X430080D01*
X415670Y253939D02*
X430080D01*
X415850Y253759D02*
X430080D01*
X416030Y253579D02*
X430080D01*
X416210Y253399D02*
X430080D01*
X416390Y253219D02*
X430080D01*
X416570Y253039D02*
X430080D01*
X416750Y252859D02*
X430080D01*
X416930Y252679D02*
X430080D01*
X417110Y252499D02*
X430080D01*
X417290Y252319D02*
X430080D01*
X417470Y252139D02*
X430080D01*
X417650Y251959D02*
X430080D01*
X417830Y251779D02*
X430080D01*
X418010Y251599D02*
X430080D01*
X418190Y251419D02*
X430080D01*
X418370Y251239D02*
X430080D01*
X418550Y251059D02*
X430080D01*
X418730Y250879D02*
X430080D01*
X418910Y250699D02*
X430080D01*
X419090Y250519D02*
X430080D01*
X419270Y250339D02*
X430080D01*
X419450Y250159D02*
X430080D01*
X419630Y249979D02*
X430080D01*
X419810Y249799D02*
X430080D01*
X419990Y249619D02*
X430080D01*
X420170Y249439D02*
X430080D01*
X420338Y249259D02*
X430080D01*
X420458Y249079D02*
X430080D01*
X420540Y248899D02*
X430080D01*
X420592Y248719D02*
X430080D01*
X420617Y248539D02*
X430080D01*
X420620Y248359D02*
X430080D01*
X420620Y248179D02*
X430080D01*
X420620Y247999D02*
X430080D01*
X420620Y247819D02*
X430080D01*
X420620Y247639D02*
X430080D01*
X420620Y247459D02*
X430080D01*
X420620Y247279D02*
X430080D01*
X420620Y247099D02*
X430080D01*
X420620Y246919D02*
X430080D01*
X420620Y246739D02*
X430080D01*
X420620Y246559D02*
X430080D01*
X420620Y246379D02*
X430080D01*
X420620Y246199D02*
X430080D01*
X420620Y246019D02*
X430080D01*
X420620Y245839D02*
X430080D01*
X420620Y245659D02*
X430080D01*
X420620Y245479D02*
X430080D01*
X420620Y245299D02*
X430080D01*
X420620Y245119D02*
X430080D01*
X420620Y244939D02*
X430080D01*
X420620Y244759D02*
X430080D01*
X420620Y244579D02*
X430080D01*
X420620Y244399D02*
X430080D01*
X420620Y244219D02*
X430080D01*
X420620Y244039D02*
X430080D01*
X420620Y243859D02*
X430080D01*
X420620Y243679D02*
X430080D01*
X420620Y243499D02*
X430080D01*
X420620Y243319D02*
X430080D01*
X420620Y243139D02*
X430080D01*
X420620Y242959D02*
X430080D01*
X420620Y242779D02*
X430080D01*
X420620Y242599D02*
X430080D01*
X420620Y242419D02*
X430080D01*
X420620Y242239D02*
X430080D01*
X420620Y242059D02*
X430080D01*
X420620Y241879D02*
X430080D01*
X420620Y241699D02*
X430080D01*
X420620Y241519D02*
X430080D01*
X420620Y241339D02*
X430080D01*
X420620Y241159D02*
X430080D01*
X420620Y240979D02*
X430080D01*
X420620Y240799D02*
X430080D01*
X420620Y240619D02*
X430080D01*
X420620Y240439D02*
X430080D01*
X420620Y240259D02*
X430080D01*
X420620Y240079D02*
X430080D01*
X420620Y239899D02*
X430080D01*
X420620Y239719D02*
X430080D01*
X420620Y239539D02*
X430080D01*
X420620Y239359D02*
X430080D01*
X420620Y239179D02*
X430080D01*
X420620Y238999D02*
X430080D01*
X420620Y238819D02*
X430080D01*
X420620Y238639D02*
X430080D01*
X420620Y238459D02*
X430080D01*
X420620Y238279D02*
X430080D01*
X420620Y238099D02*
X430080D01*
X420620Y237919D02*
X430080D01*
X420620Y237739D02*
X430080D01*
X420620Y237559D02*
X430080D01*
X420620Y237379D02*
X430080D01*
X420620Y237199D02*
X430080D01*
X420620Y237019D02*
X430080D01*
X420620Y236839D02*
X430080D01*
X420620Y236659D02*
X430080D01*
X420620Y236479D02*
X430080D01*
X420620Y236299D02*
X430080D01*
X420620Y236119D02*
X430080D01*
X420620Y235939D02*
X430080D01*
X420620Y235759D02*
X430080D01*
X420620Y235579D02*
X430080D01*
X420620Y235399D02*
X430080D01*
X420620Y235219D02*
X430080D01*
X420620Y235039D02*
X430080D01*
X420620Y234859D02*
X430080D01*
X420620Y234679D02*
X430080D01*
X420620Y234499D02*
X430080D01*
X420620Y234319D02*
X430080D01*
X420620Y234139D02*
X430080D01*
X420620Y233959D02*
X430080D01*
X420620Y233779D02*
X430080D01*
X420620Y233599D02*
X430080D01*
X420620Y233419D02*
X430080D01*
X420620Y233239D02*
X430080D01*
X420620Y233059D02*
X430080D01*
X420620Y232879D02*
X430080D01*
X420620Y232699D02*
X430080D01*
X420620Y232519D02*
X430080D01*
X420620Y232339D02*
X430080D01*
X420620Y232159D02*
X430080D01*
X420620Y231979D02*
X430080D01*
X420620Y231799D02*
X430080D01*
X420620Y231619D02*
X430080D01*
X420620Y231439D02*
X430080D01*
X420620Y231259D02*
X430080D01*
X420620Y231079D02*
X430080D01*
X420620Y230899D02*
X430080D01*
X420620Y230719D02*
X430080D01*
X420620Y230539D02*
X430080D01*
X420620Y230359D02*
X430080D01*
X420620Y230179D02*
X430080D01*
X420620Y229999D02*
X430080D01*
X420620Y229819D02*
X430080D01*
X420620Y229639D02*
X430080D01*
X420620Y229459D02*
X430080D01*
X420620Y229279D02*
X430080D01*
X420620Y229099D02*
X430080D01*
X420620Y228919D02*
X430080D01*
X420620Y228739D02*
X430080D01*
X420620Y228559D02*
X430080D01*
X420620Y228379D02*
X430080D01*
X420620Y228199D02*
X430080D01*
X420620Y228019D02*
X430080D01*
X420620Y227839D02*
X430080D01*
X420620Y227659D02*
X430080D01*
X420620Y227479D02*
X430080D01*
X420620Y227299D02*
X430080D01*
X420620Y227119D02*
X430080D01*
X420620Y226939D02*
X430080D01*
X420620Y226759D02*
X430080D01*
X420620Y226579D02*
X430080D01*
X420620Y226399D02*
X430080D01*
X420620Y226219D02*
X430080D01*
X420620Y226039D02*
X430080D01*
X420620Y225859D02*
X430080D01*
X420620Y225679D02*
X430080D01*
X420620Y225499D02*
X430080D01*
X420620Y225319D02*
X430080D01*
X420620Y225139D02*
X430080D01*
X420620Y224959D02*
X430080D01*
X420620Y224779D02*
X430080D01*
X420620Y224599D02*
X430080D01*
X420620Y224419D02*
X430080D01*
X420620Y224239D02*
X430080D01*
X420620Y224059D02*
X430080D01*
X420620Y223879D02*
X430080D01*
X420620Y223699D02*
X430080D01*
X420620Y223519D02*
X430080D01*
X420620Y223339D02*
X430080D01*
X420620Y223159D02*
X430080D01*
X420620Y222979D02*
X430080D01*
X420620Y222799D02*
X430080D01*
X420620Y222619D02*
X430080D01*
X420620Y222439D02*
X430080D01*
X420620Y222259D02*
X430080D01*
X420620Y222079D02*
X430080D01*
X420620Y221899D02*
X430080D01*
X420620Y221719D02*
X430080D01*
X420620Y221539D02*
X430080D01*
X420620Y221359D02*
X430080D01*
X420620Y221179D02*
X430080D01*
X420620Y220999D02*
X430080D01*
X420703Y220819D02*
X430080D01*
X420815Y220639D02*
X430080D01*
X420900Y220459D02*
X430080D01*
X420960Y220279D02*
X430080D01*
X420999Y220099D02*
X430080D01*
X421018Y219919D02*
X430080D01*
X421018Y219739D02*
X430080D01*
X420998Y219559D02*
X430080D01*
X420959Y219379D02*
X430080D01*
X420898Y219199D02*
X430080D01*
X420814Y219019D02*
X430080D01*
X420701Y218839D02*
X430080D01*
X420552Y218659D02*
X430080D01*
X420352Y218479D02*
X430080D01*
X420058Y218299D02*
X430080D01*
X367825Y218119D02*
X430080D01*
X368151Y217939D02*
X430080D01*
X368365Y217759D02*
X430080D01*
X368523Y217579D02*
X430080D01*
X368643Y217399D02*
X430080D01*
X368733Y217219D02*
X430080D01*
X368798Y217039D02*
X430080D01*
X368842Y216859D02*
X430080D01*
X368865Y216679D02*
X430080D01*
X368869Y216499D02*
X430080D01*
X368854Y216319D02*
X430080D01*
X368820Y216139D02*
X430080D01*
X368764Y215959D02*
X430080D01*
X368685Y215779D02*
X430080D01*
X368579Y215599D02*
X430080D01*
X368439Y215419D02*
X430080D01*
X368252Y215239D02*
X430080D01*
X367986Y215059D02*
X430080D01*
X367481Y214879D02*
X430080D01*
X371154Y214699D02*
X430080D01*
X371445Y214519D02*
X430080D01*
X371645Y214339D02*
X430080D01*
X371793Y214159D02*
X430080D01*
X371905Y213979D02*
X430080D01*
X371990Y213799D02*
X430080D01*
X372050Y213619D02*
X430080D01*
X372089Y213439D02*
X430080D01*
X372108Y213259D02*
X430080D01*
X372108Y213079D02*
X430080D01*
X372088Y212899D02*
X430080D01*
X372049Y212719D02*
X430080D01*
X371988Y212539D02*
X430080D01*
X371904Y212359D02*
X430080D01*
X371791Y212179D02*
X430080D01*
X371642Y211999D02*
X430080D01*
X371442Y211819D02*
X430080D01*
X371148Y211639D02*
X430080D01*
X362134Y211459D02*
X430080D01*
X362529Y211279D02*
X430080D01*
X362820Y211099D02*
X430080D01*
X363052Y210919D02*
X430080D01*
X363246Y210739D02*
X430080D01*
X363409Y210559D02*
X430080D01*
X363549Y210379D02*
X430080D01*
X363670Y210199D02*
X430080D01*
X363773Y210019D02*
X430080D01*
X363860Y209839D02*
X430080D01*
X363934Y209659D02*
X430080D01*
X363995Y209479D02*
X430080D01*
X364043Y209299D02*
X430080D01*
X364081Y209119D02*
X430080D01*
X364107Y208939D02*
X430080D01*
X364122Y208759D02*
X430080D01*
X364127Y208579D02*
X430080D01*
X364121Y208399D02*
X430080D01*
X364104Y208219D02*
X430080D01*
X364077Y208039D02*
X430080D01*
X364038Y207859D02*
X430080D01*
X363988Y207679D02*
X430080D01*
X363926Y207499D02*
X430080D01*
X363851Y207319D02*
X430080D01*
X363761Y207139D02*
X430080D01*
X363656Y206959D02*
X430080D01*
X363534Y206779D02*
X430080D01*
X363391Y206599D02*
X430080D01*
X363224Y206419D02*
X430080D01*
X363027Y206239D02*
X430080D01*
X362789Y206059D02*
X430080D01*
X374058Y205879D02*
X430080D01*
X374417Y205699D02*
X430080D01*
X374644Y205519D02*
X430080D01*
X374810Y205339D02*
X430080D01*
X374935Y205159D02*
X430080D01*
X375030Y204979D02*
X430080D01*
X375099Y204799D02*
X430080D01*
X375146Y204619D02*
X430080D01*
X375173Y204439D02*
X430080D01*
X375180Y204259D02*
X430080D01*
X375168Y204079D02*
X430080D01*
X375137Y203899D02*
X430080D01*
X375085Y203719D02*
X430080D01*
X375010Y203539D02*
X430080D01*
X374909Y203359D02*
X430080D01*
X374775Y203179D02*
X430080D01*
X374597Y202999D02*
X430080D01*
X374349Y202819D02*
X430080D01*
X373923Y202639D02*
X430080D01*
X201530Y202459D02*
X430080D01*
X201530Y202279D02*
X430080D01*
X201530Y202099D02*
X430080D01*
X201530Y201919D02*
X430080D01*
X201530Y201739D02*
X430080D01*
X201538Y285079D02*
X430072D01*
X381259Y218299D02*
X418582D01*
X381545Y218479D02*
X418288D01*
X381733Y218659D02*
X418088D01*
X414611Y247819D02*
X418020D01*
X414744Y247639D02*
X418020D01*
X414860Y247459D02*
X418020D01*
X414962Y247279D02*
X418020D01*
X415050Y247099D02*
X418020D01*
X415125Y246919D02*
X418020D01*
X415189Y246739D02*
X418020D01*
X415242Y246559D02*
X418020D01*
X415284Y246379D02*
X418020D01*
X415317Y246199D02*
X418020D01*
X415340Y246019D02*
X418020D01*
X415353Y245839D02*
X418020D01*
X415357Y245659D02*
X418020D01*
X415351Y245479D02*
X418020D01*
X415336Y245299D02*
X418020D01*
X415312Y245119D02*
X418020D01*
X415278Y244939D02*
X418020D01*
X415234Y244759D02*
X418020D01*
X415179Y244579D02*
X418020D01*
X415113Y244399D02*
X418020D01*
X415036Y244219D02*
X418020D01*
X414946Y244039D02*
X418020D01*
X414842Y243859D02*
X418020D01*
X414723Y243679D02*
X418020D01*
X414586Y243499D02*
X418020D01*
X414430Y243319D02*
X418020D01*
X414250Y243139D02*
X418020D01*
X414039Y242959D02*
X418020D01*
X413788Y242779D02*
X418020D01*
X413478Y242599D02*
X418020D01*
X413061Y242419D02*
X418020D01*
X412278Y242239D02*
X418020D01*
X407046Y242059D02*
X418020D01*
X407226Y241879D02*
X418020D01*
X407406Y241699D02*
X418020D01*
X407586Y241519D02*
X418020D01*
X407766Y241339D02*
X418020D01*
X407946Y241159D02*
X418020D01*
X408126Y240979D02*
X418020D01*
X408306Y240799D02*
X418020D01*
X408486Y240619D02*
X418020D01*
X408666Y240439D02*
X418020D01*
X408846Y240259D02*
X418020D01*
X409026Y240079D02*
X418020D01*
X409206Y239899D02*
X418020D01*
X409386Y239719D02*
X418020D01*
X409566Y239539D02*
X418020D01*
X409746Y239359D02*
X418020D01*
X409926Y239179D02*
X418020D01*
X412845Y238999D02*
X418020D01*
X413335Y238819D02*
X418020D01*
X413677Y238639D02*
X418020D01*
X413948Y238459D02*
X418020D01*
X414172Y238279D02*
X418020D01*
X414364Y238099D02*
X418020D01*
X414529Y237919D02*
X418020D01*
X414672Y237739D02*
X418020D01*
X414798Y237559D02*
X418020D01*
X414907Y237379D02*
X418020D01*
X415002Y237199D02*
X418020D01*
X415084Y237019D02*
X418020D01*
X415155Y236839D02*
X418020D01*
X415213Y236659D02*
X418020D01*
X415262Y236479D02*
X418020D01*
X415300Y236299D02*
X418020D01*
X415328Y236119D02*
X418020D01*
X415346Y235939D02*
X418020D01*
X415356Y235759D02*
X418020D01*
X415355Y235579D02*
X418020D01*
X415346Y235399D02*
X418020D01*
X415326Y235219D02*
X418020D01*
X415298Y235039D02*
X418020D01*
X415259Y234859D02*
X418020D01*
X415210Y234679D02*
X418020D01*
X415150Y234499D02*
X418020D01*
X415080Y234319D02*
X418020D01*
X414997Y234139D02*
X418020D01*
X414901Y233959D02*
X418020D01*
X414790Y233779D02*
X418020D01*
X414664Y233599D02*
X418020D01*
X414519Y233419D02*
X418020D01*
X414352Y233239D02*
X418020D01*
X414159Y233059D02*
X418020D01*
X413932Y232879D02*
X418020D01*
X413658Y232699D02*
X418020D01*
X413310Y232519D02*
X418020D01*
X412804Y232339D02*
X418020D01*
X385233Y232159D02*
X418020D01*
X385053Y231979D02*
X418020D01*
X384873Y231799D02*
X418020D01*
X384693Y231619D02*
X418020D01*
X384513Y231439D02*
X418020D01*
X384333Y231259D02*
X418020D01*
X384153Y231079D02*
X418020D01*
X383973Y230899D02*
X418020D01*
X383793Y230719D02*
X418020D01*
X383613Y230539D02*
X418020D01*
X383433Y230359D02*
X418020D01*
X383253Y230179D02*
X418020D01*
X383073Y229999D02*
X418020D01*
X382893Y229819D02*
X418020D01*
X382701Y229639D02*
X418020D01*
X382393Y229459D02*
X418020D01*
X316400Y229279D02*
X418020D01*
X412367Y229099D02*
X418020D01*
X413091Y228919D02*
X418020D01*
X413498Y228739D02*
X418020D01*
X413804Y228559D02*
X418020D01*
X414052Y228379D02*
X418020D01*
X414261Y228199D02*
X418020D01*
X414440Y228019D02*
X418020D01*
X414595Y227839D02*
X418020D01*
X414730Y227659D02*
X418020D01*
X414848Y227479D02*
X418020D01*
X414951Y227299D02*
X418020D01*
X415040Y227119D02*
X418020D01*
X415117Y226939D02*
X418020D01*
X415182Y226759D02*
X418020D01*
X415236Y226579D02*
X418020D01*
X415280Y226399D02*
X418020D01*
X415313Y226219D02*
X418020D01*
X415337Y226039D02*
X418020D01*
X415352Y225859D02*
X418020D01*
X415357Y225679D02*
X418020D01*
X415352Y225499D02*
X418020D01*
X415338Y225319D02*
X418020D01*
X415315Y225139D02*
X418020D01*
X415282Y224959D02*
X418020D01*
X415238Y224779D02*
X418020D01*
X415185Y224599D02*
X418020D01*
X415120Y224419D02*
X418020D01*
X415044Y224239D02*
X418020D01*
X414956Y224059D02*
X418020D01*
X414853Y223879D02*
X418020D01*
X414736Y223699D02*
X418020D01*
X414602Y223519D02*
X418020D01*
X414448Y223339D02*
X418020D01*
X414270Y223159D02*
X418020D01*
X414063Y222979D02*
X418020D01*
X413817Y222799D02*
X418020D01*
X413515Y222619D02*
X418020D01*
X413115Y222439D02*
X418020D01*
X412427Y222259D02*
X418020D01*
X385153Y222079D02*
X418020D01*
X384973Y221899D02*
X418020D01*
X384793Y221719D02*
X418020D01*
X384613Y221539D02*
X418020D01*
X384433Y221359D02*
X418020D01*
X384253Y221179D02*
X418020D01*
X384073Y220999D02*
X418020D01*
X381913Y218839D02*
X417939D01*
X383893Y220819D02*
X417937D01*
X414458Y247999D02*
X417933D01*
X382093Y219019D02*
X417826D01*
X383713Y220639D02*
X417825D01*
X414282Y248179D02*
X417753D01*
X382273Y219199D02*
X417742D01*
X383533Y220459D02*
X417740D01*
X382453Y219379D02*
X417681D01*
X383353Y220279D02*
X417680D01*
X382633Y219559D02*
X417642D01*
X383173Y220099D02*
X417641D01*
X382813Y219739D02*
X417622D01*
X382993Y219919D02*
X417622D01*
X414077Y248359D02*
X417573D01*
X413834Y248539D02*
X417393D01*
X413536Y248719D02*
X417213D01*
X413144Y248899D02*
X417033D01*
X412494Y249079D02*
X416853D01*
X409050Y249259D02*
X416673D01*
X408870Y249439D02*
X416493D01*
X408690Y249619D02*
X416313D01*
X408510Y249799D02*
X416133D01*
X408330Y249979D02*
X415953D01*
X408150Y250159D02*
X415773D01*
X407970Y250339D02*
X415593D01*
X407790Y250519D02*
X415413D01*
X407610Y250699D02*
X415233D01*
X407430Y250879D02*
X415053D01*
X407250Y251059D02*
X414873D01*
X407070Y251239D02*
X414693D01*
X406890Y251419D02*
X414513D01*
X406710Y251599D02*
X414333D01*
X406530Y251779D02*
X414153D01*
X406350Y251959D02*
X413973D01*
X406230Y252139D02*
X413793D01*
X412727Y252319D02*
X413613D01*
X413264Y252499D02*
X413433D01*
X406866Y242239D02*
X411524D01*
X387377Y229099D02*
X411435D01*
X387437Y222259D02*
X411375D01*
X409230Y249079D02*
X411308D01*
X406230Y252319D02*
X411074D01*
X387814Y232339D02*
X410997D01*
X410106Y238999D02*
X410956D01*
X406686Y242419D02*
X410741D01*
X388101Y228919D02*
X410710D01*
X388125Y222439D02*
X410687D01*
X409410Y248899D02*
X410658D01*
X406230Y252499D02*
X410537D01*
X388320Y232519D02*
X410492D01*
X410286Y238819D02*
X410467D01*
X406506Y242599D02*
X410324D01*
X388508Y228739D02*
X410303D01*
X388525Y222619D02*
X410286D01*
X409590Y248719D02*
X410266D01*
X399190Y271039D02*
X410201D01*
X399370Y270859D02*
X410201D01*
X399550Y270679D02*
X410201D01*
X399730Y270499D02*
X410201D01*
X399910Y270319D02*
X410201D01*
X400090Y270139D02*
X410201D01*
X400270Y269959D02*
X410201D01*
X400450Y269779D02*
X410201D01*
X400630Y269599D02*
X410201D01*
X400810Y269419D02*
X410201D01*
X400990Y269239D02*
X410201D01*
X406230Y252679D02*
X410177D01*
X388668Y232699D02*
X410143D01*
X399010Y271219D02*
X410097D01*
X406326Y242779D02*
X410014D01*
X388814Y228559D02*
X409997D01*
X388827Y222799D02*
X409984D01*
X409770Y248539D02*
X409968D01*
X398830Y271399D02*
X409917D01*
X406230Y252859D02*
X409897D01*
X388942Y232879D02*
X409869D01*
X406210Y242959D02*
X409763D01*
X389062Y228379D02*
X409749D01*
X389073Y222979D02*
X409738D01*
X398650Y271579D02*
X409737D01*
X406230Y253039D02*
X409665D01*
X389169Y233059D02*
X409642D01*
X398470Y271759D02*
X409557D01*
X406210Y243139D02*
X409552D01*
X389271Y228199D02*
X409540D01*
X389280Y223159D02*
X409531D01*
X406230Y253219D02*
X409469D01*
X389362Y233239D02*
X409449D01*
X398290Y271939D02*
X409377D01*
X406210Y243319D02*
X409372D01*
X389450Y228019D02*
X409361D01*
X389458Y223339D02*
X409353D01*
X406230Y253399D02*
X409300D01*
X389529Y233419D02*
X409282D01*
X406210Y243499D02*
X409216D01*
X389605Y227839D02*
X409206D01*
X389612Y223519D02*
X409199D01*
X398110Y272119D02*
X409197D01*
X406230Y253579D02*
X409153D01*
X389674Y233599D02*
X409137D01*
X408010Y262219D02*
X409125D01*
X406210Y243679D02*
X409079D01*
X389740Y227659D02*
X409071D01*
X389746Y223699D02*
X409065D01*
X406230Y253759D02*
X409024D01*
X397930Y272299D02*
X409017D01*
X389800Y233779D02*
X409011D01*
X406230Y257539D02*
X408972D01*
X406210Y243859D02*
X408960D01*
X389858Y227479D02*
X408953D01*
X389863Y223879D02*
X408948D01*
X406230Y253939D02*
X408912D01*
X389911Y233959D02*
X408901D01*
X406230Y257359D02*
X408883D01*
X406210Y244039D02*
X408856D01*
X389961Y227299D02*
X408850D01*
X389966Y224059D02*
X408846D01*
X397750Y272479D02*
X408837D01*
X401170Y269059D02*
X408836D01*
X406230Y257719D02*
X408833D01*
X406230Y254119D02*
X408815D01*
X390007Y234139D02*
X408805D01*
X406230Y257179D02*
X408789D01*
X406210Y244219D02*
X408766D01*
X390050Y227119D02*
X408761D01*
X390054Y224239D02*
X408757D01*
X406230Y254299D02*
X408730D01*
X390090Y234319D02*
X408722D01*
X406230Y256999D02*
X408709D01*
X406210Y244399D02*
X408689D01*
X390127Y226939D02*
X408684D01*
X390130Y224419D02*
X408681D01*
X407830Y262399D02*
X408676D01*
X406230Y254479D02*
X408658D01*
X397570Y272659D02*
X408657D01*
X406224Y257899D02*
X408653D01*
X390160Y234499D02*
X408651D01*
X406230Y256819D02*
X408640D01*
X406210Y244579D02*
X408623D01*
X390192Y226759D02*
X408619D01*
X390195Y224599D02*
X408616D01*
X401350Y268879D02*
X408607D01*
X406230Y254659D02*
X408597D01*
X390220Y234679D02*
X408591D01*
X390165Y236839D02*
X408589D01*
X390223Y236659D02*
X408588D01*
X406230Y256639D02*
X408582D01*
X406210Y244759D02*
X408568D01*
X390246Y226579D02*
X408565D01*
X390248Y224779D02*
X408563D01*
X406230Y254839D02*
X408547D01*
X390269Y234859D02*
X408542D01*
X390272Y236479D02*
X408540D01*
X406230Y256459D02*
X408535D01*
X407650Y262579D02*
X408533D01*
X406210Y244939D02*
X408524D01*
X390290Y226399D02*
X408521D01*
X390292Y224959D02*
X408520D01*
X406230Y255019D02*
X408507D01*
X390308Y235039D02*
X408504D01*
X390310Y236299D02*
X408502D01*
X401530Y268699D02*
X408498D01*
X406230Y256279D02*
X408498D01*
X406210Y245119D02*
X408490D01*
X390323Y226219D02*
X408488D01*
X390325Y225139D02*
X408486D01*
X406230Y255199D02*
X408478D01*
X397390Y272839D02*
X408477D01*
X390336Y235219D02*
X408475D01*
X390338Y236119D02*
X408473D01*
X406193Y258079D02*
X408473D01*
X406230Y256099D02*
X408471D01*
X406210Y245299D02*
X408466D01*
X390347Y226039D02*
X408464D01*
X407470Y262759D02*
X408463D01*
X390348Y225319D02*
X408463D01*
X406199Y246019D02*
X408462D01*
X406230Y255379D02*
X408457D01*
X390356Y235399D02*
X408456D01*
X390356Y235939D02*
X408455D01*
X406230Y255919D02*
X408453D01*
X406210Y245479D02*
X408451D01*
X401710Y268519D02*
X408450D01*
X390362Y225859D02*
X408450D01*
X390362Y225499D02*
X408449D01*
X406210Y245839D02*
X408449D01*
X406230Y255559D02*
X408447D01*
X390365Y235579D02*
X408446D01*
X390366Y235759D02*
X408446D01*
X406230Y255739D02*
X408445D01*
X406210Y245659D02*
X408445D01*
X390367Y225679D02*
X408445D01*
X401890Y268339D02*
X408445D01*
X402070Y268159D02*
X408445D01*
X402250Y267979D02*
X408445D01*
X402430Y267799D02*
X408445D01*
X402610Y267619D02*
X408445D01*
X402790Y267439D02*
X408445D01*
X402970Y267259D02*
X408445D01*
X403150Y267079D02*
X408445D01*
X403330Y266899D02*
X408445D01*
X403510Y266719D02*
X408445D01*
X403690Y266539D02*
X408445D01*
X403870Y266359D02*
X408445D01*
X404050Y266179D02*
X408445D01*
X404230Y265999D02*
X408445D01*
X404410Y265819D02*
X408445D01*
X404590Y265639D02*
X408445D01*
X404770Y265459D02*
X408445D01*
X404950Y265279D02*
X408445D01*
X405130Y265099D02*
X408445D01*
X405310Y264919D02*
X408445D01*
X405490Y264739D02*
X408445D01*
X405670Y264559D02*
X408445D01*
X405850Y264379D02*
X408445D01*
X406030Y264199D02*
X408445D01*
X406210Y264019D02*
X408445D01*
X406390Y263839D02*
X408445D01*
X406570Y263659D02*
X408445D01*
X406750Y263479D02*
X408445D01*
X406930Y263299D02*
X408445D01*
X407110Y263119D02*
X408445D01*
X407290Y262939D02*
X408445D01*
X406162Y246199D02*
X408433D01*
X390094Y237019D02*
X408409D01*
X397210Y273019D02*
X408297D01*
X406135Y258259D02*
X408293D01*
X406098Y246379D02*
X408253D01*
X390012Y237199D02*
X408229D01*
X397030Y273199D02*
X408117D01*
X406045Y258439D02*
X408113D01*
X406000Y246559D02*
X408073D01*
X389917Y237379D02*
X408049D01*
X396850Y273379D02*
X407937D01*
X405915Y258619D02*
X407933D01*
X405859Y246739D02*
X407893D01*
X389808Y237559D02*
X407869D01*
X396670Y273559D02*
X407757D01*
X405740Y258799D02*
X407753D01*
X405680Y246919D02*
X407713D01*
X389682Y237739D02*
X407689D01*
X396490Y273739D02*
X407577D01*
X405560Y258979D02*
X407573D01*
X405500Y247099D02*
X407533D01*
X389539Y237919D02*
X407509D01*
X396310Y273919D02*
X407397D01*
X405380Y259159D02*
X407393D01*
X405320Y247279D02*
X407353D01*
X389374Y238099D02*
X407329D01*
X396130Y274099D02*
X407217D01*
X405200Y259339D02*
X407213D01*
X405140Y247459D02*
X407173D01*
X389182Y238279D02*
X407149D01*
X395950Y274279D02*
X407037D01*
X405020Y259519D02*
X407033D01*
X404960Y247639D02*
X406993D01*
X388958Y238459D02*
X406969D01*
X395770Y274459D02*
X406857D01*
X404840Y259699D02*
X406853D01*
X404780Y247819D02*
X406813D01*
X388687Y238639D02*
X406789D01*
X395590Y274639D02*
X406677D01*
X404660Y259879D02*
X406673D01*
X404600Y247999D02*
X406633D01*
X388345Y238819D02*
X406609D01*
X395410Y274819D02*
X406497D01*
X404480Y260059D02*
X406493D01*
X404420Y248179D02*
X406453D01*
X387855Y238999D02*
X406429D01*
X395230Y274999D02*
X406317D01*
X404300Y260239D02*
X406313D01*
X404240Y248359D02*
X406273D01*
X365090Y239179D02*
X406249D01*
X395050Y275179D02*
X406137D01*
X404120Y260419D02*
X406133D01*
X404060Y248539D02*
X406093D01*
X364910Y239359D02*
X406069D01*
X394830Y275359D02*
X405957D01*
X403940Y260599D02*
X405953D01*
X403880Y248719D02*
X405913D01*
X382483Y239539D02*
X405889D01*
X394404Y275539D02*
X405777D01*
X403760Y260779D02*
X405773D01*
X403700Y248899D02*
X405733D01*
X382769Y239719D02*
X405709D01*
X314610Y275719D02*
X405597D01*
X403580Y260959D02*
X405593D01*
X403520Y249079D02*
X405553D01*
X382958Y239899D02*
X405529D01*
X314788Y275899D02*
X405417D01*
X403400Y261139D02*
X405413D01*
X403340Y249259D02*
X405373D01*
X383138Y240079D02*
X405349D01*
X314965Y276079D02*
X405237D01*
X403220Y261319D02*
X405233D01*
X403160Y249439D02*
X405193D01*
X383319Y240259D02*
X405169D01*
X315142Y276259D02*
X405057D01*
X403040Y261499D02*
X405053D01*
X402980Y249619D02*
X405013D01*
X383499Y240439D02*
X404989D01*
X315320Y276439D02*
X404877D01*
X402860Y261679D02*
X404873D01*
X402800Y249799D02*
X404833D01*
X383680Y240619D02*
X404809D01*
X315497Y276619D02*
X404697D01*
X402680Y261859D02*
X404693D01*
X402620Y249979D02*
X404653D01*
X383861Y240799D02*
X404629D01*
X315674Y276799D02*
X404517D01*
X402500Y262039D02*
X404513D01*
X402440Y250159D02*
X404473D01*
X384041Y240979D02*
X404449D01*
X315852Y276979D02*
X404337D01*
X402320Y262219D02*
X404333D01*
X402260Y250339D02*
X404293D01*
X384222Y241159D02*
X404269D01*
X316029Y277159D02*
X404157D01*
X402140Y262399D02*
X404153D01*
X402080Y250519D02*
X404113D01*
X384402Y241339D02*
X404081D01*
X316206Y277339D02*
X403977D01*
X401960Y262579D02*
X403973D01*
X401900Y250699D02*
X403939D01*
X384583Y241519D02*
X403902D01*
X401720Y250879D02*
X403811D01*
X316383Y277519D02*
X403797D01*
X401780Y262759D02*
X403793D01*
X384764Y241699D02*
X403779D01*
X401540Y251059D02*
X403722D01*
X384944Y241879D02*
X403695D01*
X401360Y251239D02*
X403665D01*
X385125Y242059D02*
X403641D01*
X401180Y251419D02*
X403636D01*
X395420Y257179D02*
X403630D01*
X395600Y256999D02*
X403630D01*
X395780Y256819D02*
X403630D01*
X395960Y256639D02*
X403630D01*
X396140Y256459D02*
X403630D01*
X396320Y256279D02*
X403630D01*
X396500Y256099D02*
X403630D01*
X396680Y255919D02*
X403630D01*
X396860Y255739D02*
X403630D01*
X397040Y255559D02*
X403630D01*
X397220Y255379D02*
X403630D01*
X397400Y255199D02*
X403630D01*
X397580Y255019D02*
X403630D01*
X397760Y254839D02*
X403630D01*
X397940Y254659D02*
X403630D01*
X398120Y254479D02*
X403630D01*
X398300Y254299D02*
X403630D01*
X398480Y254119D02*
X403630D01*
X398660Y253939D02*
X403630D01*
X398840Y253759D02*
X403630D01*
X399020Y253579D02*
X403630D01*
X399200Y253399D02*
X403630D01*
X399380Y253219D02*
X403630D01*
X399560Y253039D02*
X403630D01*
X399740Y252859D02*
X403630D01*
X399920Y252679D02*
X403630D01*
X400100Y252499D02*
X403630D01*
X400280Y252319D02*
X403630D01*
X400460Y252139D02*
X403630D01*
X400640Y251959D02*
X403630D01*
X400820Y251779D02*
X403630D01*
X401000Y251599D02*
X403630D01*
X316561Y277699D02*
X403617D01*
X387288Y242239D02*
X403614D01*
X401600Y262939D02*
X403613D01*
X390322Y245119D02*
X403610D01*
X390288Y244939D02*
X403610D01*
X390244Y244759D02*
X403610D01*
X390189Y244579D02*
X403610D01*
X390123Y244399D02*
X403610D01*
X390046Y244219D02*
X403610D01*
X389956Y244039D02*
X403610D01*
X389852Y243859D02*
X403610D01*
X389733Y243679D02*
X403610D01*
X389596Y243499D02*
X403610D01*
X389440Y243319D02*
X403610D01*
X389260Y243139D02*
X403610D01*
X389049Y242959D02*
X403610D01*
X388798Y242779D02*
X403610D01*
X388488Y242599D02*
X403610D01*
X388071Y242419D02*
X403610D01*
X390346Y245299D02*
X403606D01*
X395240Y257359D02*
X403503D01*
X390361Y245479D02*
X403443D01*
X401420Y263119D02*
X403433D01*
X395060Y257539D02*
X403323D01*
X390367Y245659D02*
X403263D01*
X401240Y263299D02*
X403253D01*
X394880Y257719D02*
X403143D01*
X390363Y245839D02*
X403083D01*
X401060Y263479D02*
X403073D01*
X394700Y257899D02*
X402963D01*
X390350Y246019D02*
X402903D01*
X400880Y263659D02*
X402893D01*
X394520Y258079D02*
X402783D01*
X390327Y246199D02*
X402723D01*
X400700Y263839D02*
X402713D01*
X394340Y258259D02*
X402603D01*
X390294Y246379D02*
X402543D01*
X400520Y264019D02*
X402533D01*
X394160Y258439D02*
X402423D01*
X390252Y246559D02*
X402363D01*
X400340Y264199D02*
X402353D01*
X393980Y258619D02*
X402243D01*
X390199Y246739D02*
X402183D01*
X400160Y264379D02*
X402173D01*
X393800Y258799D02*
X402063D01*
X390135Y246919D02*
X402003D01*
X399980Y264559D02*
X401993D01*
X393620Y258979D02*
X401883D01*
X390060Y247099D02*
X401823D01*
X399800Y264739D02*
X401813D01*
X393440Y259159D02*
X401703D01*
X389972Y247279D02*
X401643D01*
X399620Y264919D02*
X401633D01*
X393260Y259339D02*
X401523D01*
X389870Y247459D02*
X401463D01*
X399440Y265099D02*
X401453D01*
X393080Y259519D02*
X401343D01*
X389754Y247639D02*
X401283D01*
X399260Y265279D02*
X401273D01*
X392900Y259699D02*
X401163D01*
X389621Y247819D02*
X401103D01*
X399080Y265459D02*
X401093D01*
X392720Y259879D02*
X400983D01*
X389468Y247999D02*
X400923D01*
X398900Y265639D02*
X400913D01*
X392540Y260059D02*
X400803D01*
X389292Y248179D02*
X400743D01*
X398720Y265819D02*
X400733D01*
X392360Y260239D02*
X400623D01*
X389087Y248359D02*
X400563D01*
X398540Y265999D02*
X400553D01*
X392180Y260419D02*
X400443D01*
X388844Y248539D02*
X400383D01*
X398360Y266179D02*
X400373D01*
X392000Y260599D02*
X400263D01*
X388546Y248719D02*
X400203D01*
X398180Y266359D02*
X400193D01*
X391820Y260779D02*
X400083D01*
X388154Y248899D02*
X400023D01*
X398000Y266539D02*
X400013D01*
X391640Y260959D02*
X399903D01*
X387504Y249079D02*
X399843D01*
X397820Y266719D02*
X399833D01*
X391460Y261139D02*
X399723D01*
X328711Y249259D02*
X399663D01*
X397640Y266899D02*
X399653D01*
X391280Y261319D02*
X399543D01*
X328534Y249439D02*
X399483D01*
X397460Y267079D02*
X399473D01*
X391055Y261499D02*
X399363D01*
X383249Y249619D02*
X399303D01*
X397280Y267259D02*
X399293D01*
X390595Y261679D02*
X399183D01*
X383501Y249799D02*
X399123D01*
X397100Y267439D02*
X399113D01*
X365587Y261859D02*
X399003D01*
X383670Y249979D02*
X398943D01*
X396920Y267619D02*
X398933D01*
X365767Y262039D02*
X398823D01*
X383827Y250159D02*
X398763D01*
X396740Y267799D02*
X398753D01*
X389686Y262219D02*
X398643D01*
X383984Y250339D02*
X398583D01*
X396560Y267979D02*
X398573D01*
X390135Y262399D02*
X398463D01*
X384141Y250519D02*
X398403D01*
X396380Y268159D02*
X398393D01*
X390279Y262579D02*
X398283D01*
X384298Y250699D02*
X398223D01*
X396200Y268339D02*
X398213D01*
X390348Y262759D02*
X398103D01*
X384454Y250879D02*
X398043D01*
X396020Y268519D02*
X398033D01*
X390367Y262939D02*
X397923D01*
X384611Y251059D02*
X397863D01*
X395840Y268699D02*
X397853D01*
X390367Y263119D02*
X397743D01*
X384768Y251239D02*
X397683D01*
X395660Y268879D02*
X397673D01*
X390367Y263299D02*
X397563D01*
X384925Y251419D02*
X397503D01*
X395480Y269059D02*
X397493D01*
X390367Y263479D02*
X397383D01*
X385082Y251599D02*
X397323D01*
X395300Y269239D02*
X397313D01*
X390367Y263659D02*
X397203D01*
X385239Y251779D02*
X397143D01*
X395120Y269419D02*
X397133D01*
X390367Y263839D02*
X397023D01*
X385396Y251959D02*
X396963D01*
X394940Y269599D02*
X396953D01*
X390367Y264019D02*
X396843D01*
X385553Y252139D02*
X396783D01*
X394760Y269779D02*
X396773D01*
X390367Y264199D02*
X396663D01*
X387737Y252319D02*
X396603D01*
X394580Y269959D02*
X396593D01*
X390367Y264379D02*
X396483D01*
X388274Y252499D02*
X396423D01*
X394400Y270139D02*
X396413D01*
X390367Y264559D02*
X396303D01*
X388634Y252679D02*
X396243D01*
X394220Y270319D02*
X396233D01*
X390367Y264739D02*
X396123D01*
X388915Y252859D02*
X396063D01*
X394040Y270499D02*
X396053D01*
X390367Y264919D02*
X395943D01*
X389146Y253039D02*
X395883D01*
X393860Y270679D02*
X395873D01*
X390367Y265099D02*
X395763D01*
X389342Y253219D02*
X395703D01*
X393680Y270859D02*
X395693D01*
X390367Y265279D02*
X395583D01*
X389512Y253399D02*
X395523D01*
X393500Y271039D02*
X395513D01*
X390367Y265459D02*
X395403D01*
X389659Y253579D02*
X395343D01*
X393320Y271219D02*
X395333D01*
X390367Y265639D02*
X395223D01*
X389787Y253759D02*
X395163D01*
X393140Y271399D02*
X395153D01*
X390367Y265819D02*
X395043D01*
X389899Y253939D02*
X394983D01*
X392960Y271579D02*
X394973D01*
X390367Y265999D02*
X394863D01*
X389997Y254119D02*
X394803D01*
X392780Y271759D02*
X394793D01*
X390367Y266179D02*
X394683D01*
X390081Y254299D02*
X394623D01*
X392600Y271939D02*
X394613D01*
X390367Y266359D02*
X394503D01*
X390153Y254479D02*
X394443D01*
X392419Y272119D02*
X394433D01*
X390367Y266539D02*
X394323D01*
X390214Y254659D02*
X394263D01*
X392182Y272299D02*
X394253D01*
X390367Y266719D02*
X394143D01*
X390264Y254839D02*
X394083D01*
X391579Y272479D02*
X394073D01*
X390367Y266899D02*
X393963D01*
X390304Y255019D02*
X393903D01*
X371077Y272659D02*
X393893D01*
X390367Y267079D02*
X393783D01*
X390334Y255199D02*
X393723D01*
X371257Y272839D02*
X393713D01*
X390367Y267259D02*
X393603D01*
X390354Y255379D02*
X393543D01*
X390367Y267439D02*
X393423D01*
X390365Y255559D02*
X393363D01*
X390367Y267619D02*
X393243D01*
X390366Y255739D02*
X393183D01*
X390367Y267799D02*
X393063D01*
X390358Y255919D02*
X393003D01*
X390367Y267979D02*
X392883D01*
X390340Y256099D02*
X392823D01*
X390367Y268159D02*
X392703D01*
X390313Y256279D02*
X392643D01*
X390367Y268339D02*
X392523D01*
X390276Y256459D02*
X392463D01*
X390361Y268519D02*
X392343D01*
X390229Y256639D02*
X392283D01*
X390313Y268699D02*
X392163D01*
X390172Y256819D02*
X392103D01*
X390204Y268879D02*
X391983D01*
X390103Y256999D02*
X391923D01*
X389975Y269059D02*
X391803D01*
X390022Y257179D02*
X391743D01*
X372967Y269239D02*
X391623D01*
X389928Y257359D02*
X391563D01*
X373147Y269419D02*
X391443D01*
X389821Y257539D02*
X391383D01*
X373327Y269599D02*
X391263D01*
X389697Y257719D02*
X391203D01*
X373507Y269779D02*
X391083D01*
X389556Y257899D02*
X391023D01*
X389393Y258079D02*
X390843D01*
X389205Y258259D02*
X390663D01*
X388985Y258439D02*
X390483D01*
X388720Y258619D02*
X390303D01*
X388388Y258799D02*
X390123D01*
X388072Y258979D02*
X389943D01*
X385306Y242239D02*
X386534D01*
X377377Y229099D02*
X386445D01*
X385333Y222259D02*
X386385D01*
X377504Y249079D02*
X386318D01*
X385710Y252319D02*
X386084D01*
X385413Y232339D02*
X386007D01*
X377855Y238999D02*
X385966D01*
X385486Y242419D02*
X385751D01*
X378101Y228919D02*
X385720D01*
X385513Y222439D02*
X385697D01*
X378154Y248899D02*
X385668D01*
X378345Y238819D02*
X385477D01*
X378508Y228739D02*
X385313D01*
X378546Y248719D02*
X385276D01*
X378687Y238639D02*
X385134D01*
X378814Y228559D02*
X385007D01*
X378844Y248539D02*
X384978D01*
X378958Y238459D02*
X384863D01*
X379062Y228379D02*
X384759D01*
X379087Y248359D02*
X384735D01*
X379182Y238279D02*
X384639D01*
X379271Y228199D02*
X384550D01*
X379292Y248179D02*
X384530D01*
X379374Y238099D02*
X384448D01*
X379450Y228019D02*
X384371D01*
X379468Y247999D02*
X384354D01*
X379539Y237919D02*
X384283D01*
X379605Y227839D02*
X384216D01*
X379621Y247819D02*
X384201D01*
X379682Y237739D02*
X384139D01*
X379686Y262219D02*
X384135D01*
X379740Y227659D02*
X384081D01*
X379754Y247639D02*
X384068D01*
X379808Y237559D02*
X384014D01*
X379858Y227479D02*
X383963D01*
X379870Y247459D02*
X383952D01*
X379917Y237379D02*
X383904D01*
X379961Y227299D02*
X383860D01*
X379972Y247279D02*
X383850D01*
X379975Y269059D02*
X383846D01*
X380012Y237199D02*
X383809D01*
X380050Y227119D02*
X383771D01*
X380060Y247099D02*
X383762D01*
X380094Y237019D02*
X383727D01*
X380090Y234319D02*
X383703D01*
X380123Y244399D02*
X383699D01*
X380127Y226939D02*
X383694D01*
X380130Y224419D02*
X383691D01*
X380135Y246919D02*
X383687D01*
X380135Y262399D02*
X383686D01*
X380160Y234499D02*
X383661D01*
X380165Y236839D02*
X383657D01*
X380054Y224239D02*
X383636D01*
X380189Y244579D02*
X383633D01*
X380192Y226759D02*
X383629D01*
X380195Y224599D02*
X383626D01*
X380199Y246739D02*
X383623D01*
X380204Y268879D02*
X383617D01*
X380046Y244219D02*
X383609D01*
X380220Y234679D02*
X383601D01*
X380223Y236659D02*
X383598D01*
X380244Y244759D02*
X383578D01*
X380246Y226579D02*
X383575D01*
X380248Y224779D02*
X383573D01*
X380252Y246559D02*
X383570D01*
X380269Y234859D02*
X383552D01*
X380272Y236479D02*
X383550D01*
X380279Y262579D02*
X383543D01*
X380007Y234139D02*
X383536D01*
X380288Y244939D02*
X383534D01*
X380290Y226399D02*
X383531D01*
X380292Y224959D02*
X383530D01*
X380294Y246379D02*
X383528D01*
X380308Y235039D02*
X383514D01*
X380310Y236299D02*
X383512D01*
X380313Y268699D02*
X383508D01*
X380322Y245119D02*
X383500D01*
X380323Y226219D02*
X383498D01*
X380325Y225139D02*
X383496D01*
X380327Y246199D02*
X383495D01*
X380336Y235219D02*
X383485D01*
X380338Y236119D02*
X383483D01*
X380346Y245299D02*
X383476D01*
X380347Y226039D02*
X383474D01*
X380348Y262759D02*
X383473D01*
X380348Y225319D02*
X383473D01*
X380350Y246019D02*
X383472D01*
X380356Y235399D02*
X383466D01*
X380356Y235939D02*
X383465D01*
X380361Y245479D02*
X383461D01*
X380361Y268519D02*
X383460D01*
X380362Y225859D02*
X383460D01*
X380362Y225499D02*
X383459D01*
X380363Y245839D02*
X383459D01*
X379966Y224059D02*
X383456D01*
X380365Y235579D02*
X383456D01*
X380366Y235759D02*
X383456D01*
X380367Y245659D02*
X383455D01*
X380367Y225679D02*
X383455D01*
X380367Y268339D02*
X383455D01*
X380367Y268159D02*
X383455D01*
X380367Y267979D02*
X383455D01*
X380367Y267799D02*
X383455D01*
X380367Y267619D02*
X383455D01*
X380367Y267439D02*
X383455D01*
X380367Y267259D02*
X383455D01*
X380367Y267079D02*
X383455D01*
X380367Y266899D02*
X383455D01*
X380367Y266719D02*
X383455D01*
X380367Y266539D02*
X383455D01*
X380367Y266359D02*
X383455D01*
X380367Y266179D02*
X383455D01*
X380367Y265999D02*
X383455D01*
X380367Y265819D02*
X383455D01*
X380367Y265639D02*
X383455D01*
X380367Y265459D02*
X383455D01*
X380367Y265279D02*
X383455D01*
X380367Y265099D02*
X383455D01*
X380367Y264919D02*
X383455D01*
X380367Y264739D02*
X383455D01*
X380367Y264559D02*
X383455D01*
X380367Y264379D02*
X383455D01*
X380367Y264199D02*
X383455D01*
X380367Y264019D02*
X383455D01*
X380367Y263839D02*
X383455D01*
X380367Y263659D02*
X383455D01*
X380367Y263479D02*
X383455D01*
X380367Y263299D02*
X383455D01*
X380367Y263119D02*
X383455D01*
X380367Y262939D02*
X383455D01*
X379956Y244039D02*
X383428D01*
X379911Y233959D02*
X383356D01*
X379863Y223879D02*
X383276D01*
X379852Y243859D02*
X383248D01*
X379800Y233779D02*
X383176D01*
X379746Y223699D02*
X383096D01*
X379733Y243679D02*
X383067D01*
X379674Y233599D02*
X382996D01*
X379612Y223519D02*
X382916D01*
X379596Y243499D02*
X382887D01*
X379529Y233419D02*
X382816D01*
X379458Y223339D02*
X382736D01*
X379440Y243319D02*
X382706D01*
X379362Y233239D02*
X382636D01*
X379280Y223159D02*
X382556D01*
X379260Y243139D02*
X382525D01*
X379169Y233059D02*
X382456D01*
X379073Y222979D02*
X382376D01*
X379049Y242959D02*
X382345D01*
X378942Y232879D02*
X382276D01*
X378827Y222799D02*
X382196D01*
X378798Y242779D02*
X382164D01*
X378668Y232699D02*
X382096D01*
X378525Y222619D02*
X382016D01*
X378488Y242599D02*
X381983D01*
X378320Y232519D02*
X381916D01*
X378125Y222439D02*
X381836D01*
X378071Y242419D02*
X381803D01*
X377814Y232339D02*
X381736D01*
X377437Y222259D02*
X381656D01*
X377288Y242239D02*
X381622D01*
X372110Y232159D02*
X381556D01*
X371030Y222079D02*
X381476D01*
X376950Y242059D02*
X381442D01*
X372292Y231979D02*
X381375D01*
X371210Y221899D02*
X381296D01*
X371390Y221719D02*
X381116D01*
X371570Y221539D02*
X380936D01*
X371750Y221359D02*
X380756D01*
X371930Y221179D02*
X380576D01*
X372110Y220999D02*
X380396D01*
X372290Y220819D02*
X380216D01*
X372730Y242059D02*
X376872D01*
X372550Y242239D02*
X376534D01*
X330780Y252139D02*
X376466D01*
X316400Y229099D02*
X376445D01*
X370850Y222259D02*
X376385D01*
X328897Y249079D02*
X376318D01*
X330600Y252319D02*
X376084D01*
X371930Y232339D02*
X376007D01*
X365270Y238999D02*
X375966D01*
X372370Y242419D02*
X375751D01*
X371467Y258979D02*
X375749D01*
X316400Y228919D02*
X375720D01*
X370670Y222439D02*
X375697D01*
X365825Y248899D02*
X375668D01*
X330420Y252499D02*
X375547D01*
X371750Y232519D02*
X375502D01*
X365450Y238819D02*
X375477D01*
X371287Y258799D02*
X375434D01*
X372190Y242599D02*
X375334D01*
X316400Y228739D02*
X375313D01*
X370490Y222619D02*
X375296D01*
X366069Y248719D02*
X375276D01*
X335688Y252679D02*
X375187D01*
X371570Y232699D02*
X375153D01*
X365630Y238639D02*
X375134D01*
X371107Y258619D02*
X375101D01*
X372010Y242779D02*
X375024D01*
X316400Y228559D02*
X375007D01*
X370310Y222799D02*
X374994D01*
X366250Y248539D02*
X374978D01*
X336038Y252859D02*
X374907D01*
X371390Y232879D02*
X374879D01*
X365810Y238459D02*
X374863D01*
X370927Y258439D02*
X374837D01*
X371830Y242959D02*
X374773D01*
X316400Y228379D02*
X374759D01*
X370130Y222979D02*
X374748D01*
X366430Y248359D02*
X374735D01*
X365413Y253039D02*
X374675D01*
X371210Y233059D02*
X374652D01*
X365990Y238279D02*
X374639D01*
X370747Y258259D02*
X374616D01*
X371650Y243139D02*
X374562D01*
X316413Y228199D02*
X374550D01*
X369950Y223159D02*
X374541D01*
X366610Y248179D02*
X374530D01*
X365699Y253219D02*
X374479D01*
X371030Y233239D02*
X374459D01*
X366170Y238099D02*
X374448D01*
X370567Y258079D02*
X374428D01*
X371470Y243319D02*
X374382D01*
X316586Y228019D02*
X374371D01*
X369770Y223339D02*
X374363D01*
X366790Y247999D02*
X374354D01*
X365887Y253399D02*
X374310D01*
X370850Y233419D02*
X374292D01*
X366350Y237919D02*
X374283D01*
X370387Y257899D02*
X374266D01*
X371290Y243499D02*
X374226D01*
X316765Y227839D02*
X374216D01*
X369590Y223519D02*
X374209D01*
X366970Y247819D02*
X374201D01*
X366067Y253579D02*
X374163D01*
X370670Y233599D02*
X374147D01*
X366530Y237739D02*
X374139D01*
X365947Y262219D02*
X374135D01*
X370207Y257719D02*
X374124D01*
X371110Y243679D02*
X374089D01*
X316944Y227659D02*
X374081D01*
X369410Y223699D02*
X374075D01*
X367150Y247639D02*
X374068D01*
X366247Y253759D02*
X374034D01*
X370490Y233779D02*
X374021D01*
X366710Y237559D02*
X374014D01*
X370027Y257539D02*
X374001D01*
X370930Y243859D02*
X373970D01*
X317123Y227479D02*
X373963D01*
X369230Y223879D02*
X373958D01*
X367330Y247459D02*
X373952D01*
X366427Y253939D02*
X373922D01*
X370310Y233959D02*
X373911D01*
X366890Y237379D02*
X373904D01*
X369847Y257359D02*
X373893D01*
X370750Y244039D02*
X373866D01*
X365643Y227299D02*
X373860D01*
X369050Y224059D02*
X373856D01*
X367510Y247279D02*
X373850D01*
X372787Y269059D02*
X373846D01*
X366607Y254119D02*
X373825D01*
X370130Y234139D02*
X373815D01*
X367070Y237199D02*
X373809D01*
X369667Y257179D02*
X373799D01*
X370570Y244219D02*
X373776D01*
X365972Y227119D02*
X373771D01*
X368870Y224239D02*
X373767D01*
X367690Y247099D02*
X373762D01*
X366787Y254299D02*
X373740D01*
X369950Y234319D02*
X373732D01*
X367250Y237019D02*
X373727D01*
X369487Y256999D02*
X373719D01*
X370390Y244399D02*
X373699D01*
X366170Y226939D02*
X373694D01*
X368690Y224419D02*
X373691D01*
X367870Y246919D02*
X373687D01*
X366127Y262399D02*
X373686D01*
X366967Y254479D02*
X373668D01*
X369770Y234499D02*
X373661D01*
X367430Y236839D02*
X373657D01*
X369307Y256819D02*
X373650D01*
X370210Y244579D02*
X373633D01*
X366350Y226759D02*
X373629D01*
X368510Y224599D02*
X373626D01*
X368050Y246739D02*
X373623D01*
X372607Y268879D02*
X373617D01*
X367147Y254659D02*
X373607D01*
X369590Y234679D02*
X373601D01*
X367610Y236659D02*
X373598D01*
X369127Y256639D02*
X373592D01*
X370030Y244759D02*
X373578D01*
X366530Y226579D02*
X373575D01*
X368330Y224779D02*
X373573D01*
X368230Y246559D02*
X373570D01*
X367327Y254839D02*
X373557D01*
X369410Y234859D02*
X373552D01*
X367790Y236479D02*
X373550D01*
X368947Y256459D02*
X373545D01*
X366307Y262579D02*
X373543D01*
X369850Y244939D02*
X373534D01*
X366710Y226399D02*
X373531D01*
X368150Y224959D02*
X373530D01*
X368410Y246379D02*
X373528D01*
X367507Y255019D02*
X373517D01*
X369230Y235039D02*
X373514D01*
X367970Y236299D02*
X373512D01*
X372427Y268699D02*
X373508D01*
X368767Y256279D02*
X373508D01*
X369670Y245119D02*
X373500D01*
X366890Y226219D02*
X373498D01*
X367970Y225139D02*
X373496D01*
X368590Y246199D02*
X373495D01*
X367687Y255199D02*
X373488D01*
X369050Y235219D02*
X373485D01*
X368150Y236119D02*
X373483D01*
X368587Y256099D02*
X373481D01*
X369490Y245299D02*
X373476D01*
X367070Y226039D02*
X373474D01*
X366487Y262759D02*
X373473D01*
X367790Y225319D02*
X373473D01*
X368770Y246019D02*
X373472D01*
X367867Y255379D02*
X373467D01*
X368870Y235399D02*
X373466D01*
X368330Y235939D02*
X373465D01*
X368407Y255919D02*
X373463D01*
X369310Y245479D02*
X373461D01*
X372247Y268519D02*
X373460D01*
X367250Y225859D02*
X373460D01*
X367610Y225499D02*
X373459D01*
X368950Y245839D02*
X373459D01*
X368047Y255559D02*
X373457D01*
X368690Y235579D02*
X373456D01*
X368510Y235759D02*
X373456D01*
X368227Y255739D02*
X373455D01*
X369130Y245659D02*
X373455D01*
X367430Y225679D02*
X373455D01*
X372067Y268339D02*
X373455D01*
X371887Y268159D02*
X373455D01*
X371707Y267979D02*
X373455D01*
X371527Y267799D02*
X373455D01*
X371347Y267619D02*
X373455D01*
X371167Y267439D02*
X373455D01*
X370987Y267259D02*
X373455D01*
X370807Y267079D02*
X373455D01*
X370627Y266899D02*
X373455D01*
X370447Y266719D02*
X373455D01*
X370267Y266539D02*
X373455D01*
X370087Y266359D02*
X373455D01*
X369907Y266179D02*
X373455D01*
X369727Y265999D02*
X373455D01*
X369547Y265819D02*
X373455D01*
X369367Y265639D02*
X373455D01*
X369187Y265459D02*
X373455D01*
X369007Y265279D02*
X373455D01*
X368827Y265099D02*
X373455D01*
X368647Y264919D02*
X373455D01*
X368467Y264739D02*
X373455D01*
X368287Y264559D02*
X373455D01*
X368107Y264379D02*
X373455D01*
X367927Y264199D02*
X373455D01*
X367747Y264019D02*
X373455D01*
X367567Y263839D02*
X373455D01*
X367387Y263659D02*
X373455D01*
X367207Y263479D02*
X373455D01*
X367027Y263299D02*
X373455D01*
X366847Y263119D02*
X373455D01*
X366667Y262939D02*
X373455D01*
X310533Y202639D02*
X373037D01*
X370897Y272479D02*
X373011D01*
X362489Y205879D02*
X372902D01*
X310959Y202819D02*
X372611D01*
X362205Y205699D02*
X372543D01*
X370717Y272299D02*
X372408D01*
X370537Y272119D02*
X372171D01*
X370357Y271939D02*
X371990D01*
X370177Y271759D02*
X371810D01*
X364730Y239539D02*
X371687D01*
X369997Y271579D02*
X371630D01*
X369817Y271399D02*
X371450D01*
X364550Y239719D02*
X371401D01*
X316400Y229459D02*
X371273D01*
X369637Y271219D02*
X371270D01*
X364919Y218299D02*
X371247D01*
X364370Y239899D02*
X371213D01*
X369457Y271039D02*
X371090D01*
X364190Y240079D02*
X371033D01*
X316400Y229639D02*
X370966D01*
X365204Y218479D02*
X370961D01*
X369277Y270859D02*
X370910D01*
X364010Y240259D02*
X370853D01*
X365407Y261679D02*
X370815D01*
X316400Y229819D02*
X370773D01*
X365402Y218659D02*
X370773D01*
X369097Y270679D02*
X370730D01*
X363830Y240439D02*
X370673D01*
X316400Y229999D02*
X370593D01*
X365548Y218839D02*
X370593D01*
X314433Y275539D02*
X370566D01*
X368917Y270499D02*
X370550D01*
X363650Y240619D02*
X370493D01*
X316400Y230179D02*
X370413D01*
X365659Y219019D02*
X370413D01*
X368737Y270319D02*
X370370D01*
X365227Y261499D02*
X370355D01*
X363470Y240799D02*
X370313D01*
X316400Y230359D02*
X370233D01*
X365742Y219199D02*
X370233D01*
X368557Y270139D02*
X370190D01*
X314256Y275359D02*
X370139D01*
X363290Y240979D02*
X370133D01*
X365047Y261319D02*
X370130D01*
X316400Y230539D02*
X370053D01*
X365802Y219379D02*
X370053D01*
X368377Y269959D02*
X370010D01*
X363110Y241159D02*
X369953D01*
X364867Y261139D02*
X369950D01*
X314078Y275179D02*
X369920D01*
X316400Y230719D02*
X369873D01*
X365840Y219559D02*
X369873D01*
X368197Y269779D02*
X369830D01*
X362930Y241339D02*
X369773D01*
X364687Y260959D02*
X369770D01*
X313901Y274999D02*
X369740D01*
X316400Y230899D02*
X369693D01*
X365858Y219739D02*
X369693D01*
X361345Y211639D02*
X369672D01*
X305834Y214699D02*
X369666D01*
X368017Y269599D02*
X369650D01*
X362750Y241519D02*
X369593D01*
X364507Y260779D02*
X369590D01*
X313724Y274819D02*
X369560D01*
X316400Y231079D02*
X369513D01*
X365857Y219919D02*
X369513D01*
X367837Y269419D02*
X369470D01*
X362570Y241699D02*
X369413D01*
X364327Y260599D02*
X369410D01*
X313546Y274639D02*
X369380D01*
X306122Y211819D02*
X369378D01*
X306125Y214519D02*
X369375D01*
X316400Y231259D02*
X369333D01*
X365837Y220099D02*
X369333D01*
X367657Y269239D02*
X369290D01*
X362390Y241879D02*
X369233D01*
X364147Y260419D02*
X369230D01*
X313369Y274459D02*
X369200D01*
X316400Y231439D02*
X369153D01*
X365797Y220279D02*
X369153D01*
X367477Y269059D02*
X369110D01*
X362210Y242059D02*
X369053D01*
X363967Y260239D02*
X369050D01*
X313192Y274279D02*
X369020D01*
X316400Y231619D02*
X368973D01*
X365735Y220459D02*
X368973D01*
X367297Y268879D02*
X368930D01*
X362030Y242239D02*
X368873D01*
X363787Y260059D02*
X368870D01*
X313014Y274099D02*
X368840D01*
X316400Y231799D02*
X368793D01*
X365650Y220639D02*
X368793D01*
X367117Y268699D02*
X368750D01*
X361850Y242419D02*
X368693D01*
X363607Y259879D02*
X368690D01*
X312837Y273919D02*
X368660D01*
X316400Y231979D02*
X368613D01*
X365536Y220819D02*
X368613D01*
X366937Y268519D02*
X368570D01*
X361670Y242599D02*
X368513D01*
X363427Y259699D02*
X368510D01*
X312660Y273739D02*
X368480D01*
X316400Y232159D02*
X368433D01*
X365385Y220999D02*
X368433D01*
X366757Y268339D02*
X368390D01*
X361490Y242779D02*
X368333D01*
X363247Y259519D02*
X368330D01*
X312482Y273559D02*
X368300D01*
X316400Y232339D02*
X368253D01*
X365182Y221179D02*
X368253D01*
X366577Y268159D02*
X368210D01*
X361310Y242959D02*
X368153D01*
X363067Y259339D02*
X368150D01*
X312305Y273379D02*
X368120D01*
X316400Y232519D02*
X368073D01*
X364883Y221359D02*
X368073D01*
X366397Y267979D02*
X368030D01*
X361130Y243139D02*
X367973D01*
X362887Y259159D02*
X367970D01*
X312128Y273199D02*
X367940D01*
X316400Y232699D02*
X367893D01*
X361611Y221539D02*
X367893D01*
X366217Y267799D02*
X367850D01*
X360950Y243319D02*
X367793D01*
X362707Y258979D02*
X367790D01*
X311950Y273019D02*
X367760D01*
X316413Y232879D02*
X367713D01*
X362001Y221719D02*
X367713D01*
X366037Y267619D02*
X367670D01*
X360770Y243499D02*
X367613D01*
X362527Y258799D02*
X367610D01*
X311773Y272839D02*
X367580D01*
X316541Y233059D02*
X367533D01*
X362240Y221899D02*
X367533D01*
X365857Y267439D02*
X367490D01*
X360590Y243679D02*
X367433D01*
X362347Y258619D02*
X367430D01*
X311621Y272659D02*
X367400D01*
X316639Y233239D02*
X367353D01*
X362412Y222079D02*
X367353D01*
X365677Y267259D02*
X367310D01*
X360410Y243859D02*
X367253D01*
X362167Y258439D02*
X367250D01*
X311620Y272479D02*
X367220D01*
X316712Y233419D02*
X367173D01*
X362541Y222259D02*
X367173D01*
X365497Y267079D02*
X367130D01*
X360230Y244039D02*
X367073D01*
X361987Y258259D02*
X367070D01*
X311620Y272299D02*
X367040D01*
X316761Y233599D02*
X366993D01*
X362639Y222439D02*
X366993D01*
X365317Y266899D02*
X366950D01*
X360050Y244219D02*
X366893D01*
X361807Y258079D02*
X366890D01*
X311620Y272119D02*
X366860D01*
X300421Y214879D02*
X366859D01*
X316790Y233779D02*
X366813D01*
X362712Y222619D02*
X366813D01*
X365137Y266719D02*
X366770D01*
X359870Y244399D02*
X366713D01*
X361627Y257899D02*
X366710D01*
X311620Y271939D02*
X366680D01*
X316800Y233959D02*
X366633D01*
X362761Y222799D02*
X366633D01*
X364957Y266539D02*
X366590D01*
X359690Y244579D02*
X366533D01*
X361447Y257719D02*
X366530D01*
X300765Y218119D02*
X366515D01*
X311620Y271759D02*
X366500D01*
X316791Y234139D02*
X366453D01*
X362790Y222979D02*
X366453D01*
X364777Y266359D02*
X366410D01*
X300926Y215059D02*
X366354D01*
X359510Y244759D02*
X366353D01*
X361267Y257539D02*
X366350D01*
X311620Y271579D02*
X366320D01*
X316762Y234319D02*
X366273D01*
X362800Y223159D02*
X366273D01*
X364597Y266179D02*
X366230D01*
X301091Y217939D02*
X366189D01*
X359330Y244939D02*
X366173D01*
X361087Y257359D02*
X366170D01*
X311620Y271399D02*
X366140D01*
X316712Y234499D02*
X366093D01*
X362791Y223339D02*
X366093D01*
X301195Y215239D02*
X366085D01*
X364417Y265999D02*
X366050D01*
X359150Y245119D02*
X365993D01*
X360907Y257179D02*
X365990D01*
X311620Y271219D02*
X365960D01*
X316641Y234679D02*
X365913D01*
X362762Y223519D02*
X365913D01*
X364237Y265819D02*
X365870D01*
X358970Y245299D02*
X365813D01*
X360727Y256999D02*
X365810D01*
X311620Y271039D02*
X365780D01*
X316543Y234859D02*
X365733D01*
X362712Y223699D02*
X365733D01*
X364057Y265639D02*
X365690D01*
X358790Y245479D02*
X365633D01*
X360547Y256819D02*
X365630D01*
X311620Y270859D02*
X365600D01*
X316414Y235039D02*
X365553D01*
X362641Y223879D02*
X365553D01*
X363877Y265459D02*
X365510D01*
X358606Y245659D02*
X365453D01*
X360367Y256639D02*
X365450D01*
X311620Y270679D02*
X365420D01*
X316243Y235219D02*
X365373D01*
X362543Y224059D02*
X365373D01*
X363697Y265279D02*
X365330D01*
X358339Y245839D02*
X365273D01*
X360187Y256459D02*
X365270D01*
X311620Y270499D02*
X365240D01*
X316006Y235399D02*
X365193D01*
X362414Y224239D02*
X365193D01*
X363517Y265099D02*
X365150D01*
X327480Y246019D02*
X365093D01*
X360007Y256279D02*
X365090D01*
X311620Y270319D02*
X365060D01*
X315620Y235579D02*
X365013D01*
X362243Y224419D02*
X365013D01*
X363337Y264919D02*
X364970D01*
X327300Y246199D02*
X364913D01*
X359801Y256099D02*
X364910D01*
X311620Y270139D02*
X364880D01*
X284427Y235759D02*
X364833D01*
X362006Y224599D02*
X364833D01*
X363157Y264739D02*
X364790D01*
X327120Y246379D02*
X364733D01*
X359436Y255919D02*
X364730D01*
X311620Y269959D02*
X364700D01*
X350787Y235939D02*
X364653D01*
X362048Y224779D02*
X364626D01*
X362977Y264559D02*
X364610D01*
X346063Y255739D02*
X364550D01*
X311620Y269779D02*
X364520D01*
X351088Y236119D02*
X364473D01*
X362797Y264379D02*
X364430D01*
X345983Y255559D02*
X364370D01*
X311620Y269599D02*
X364340D01*
X351293Y236299D02*
X364293D01*
X362617Y264199D02*
X364250D01*
X311620Y269419D02*
X364160D01*
X351444Y236479D02*
X364113D01*
X362437Y264019D02*
X364070D01*
X311620Y269239D02*
X363980D01*
X351558Y236659D02*
X363933D01*
X362257Y263839D02*
X363890D01*
X311620Y269059D02*
X363800D01*
X351644Y236839D02*
X363753D01*
X362077Y263659D02*
X363710D01*
X311620Y268879D02*
X363620D01*
X351706Y237019D02*
X363573D01*
X361897Y263479D02*
X363530D01*
X311620Y268699D02*
X363440D01*
X295773Y221359D02*
X363437D01*
X295809Y218299D02*
X363401D01*
X351747Y237199D02*
X363393D01*
X361717Y263299D02*
X363350D01*
X311620Y268519D02*
X363260D01*
X351767Y237379D02*
X363213D01*
X361537Y263119D02*
X363170D01*
X296072Y221179D02*
X363138D01*
X296094Y218479D02*
X363116D01*
X311620Y268339D02*
X363080D01*
X351768Y237559D02*
X363033D01*
X361357Y262939D02*
X362990D01*
X311620Y268159D02*
X362900D01*
X351750Y237739D02*
X362853D01*
X361177Y262759D02*
X362810D01*
X311620Y267979D02*
X362720D01*
X351712Y237919D02*
X362673D01*
X360997Y262579D02*
X362630D01*
X311620Y267799D02*
X362540D01*
X351653Y238099D02*
X362493D01*
X360817Y262399D02*
X362450D01*
X311620Y267619D02*
X362360D01*
X351571Y238279D02*
X362313D01*
X360637Y262219D02*
X362270D01*
X311620Y267439D02*
X362180D01*
X351460Y238459D02*
X362133D01*
X360457Y262039D02*
X362090D01*
X311620Y267259D02*
X362000D01*
X351314Y238639D02*
X361953D01*
X360277Y261859D02*
X361910D01*
X311620Y267079D02*
X361820D01*
X351118Y238819D02*
X361773D01*
X360097Y261679D02*
X361730D01*
X311620Y266899D02*
X361640D01*
X350834Y238999D02*
X361593D01*
X359917Y261499D02*
X361550D01*
X311620Y266719D02*
X361460D01*
X350137Y239179D02*
X361413D01*
X359737Y261319D02*
X361370D01*
X311620Y266539D02*
X361280D01*
X271634Y239359D02*
X361233D01*
X359557Y261139D02*
X361190D01*
X311620Y266359D02*
X361100D01*
X271320Y239539D02*
X361053D01*
X359377Y260959D02*
X361010D01*
X311620Y266179D02*
X360920D01*
X315504Y239719D02*
X360873D01*
X359197Y260779D02*
X360830D01*
X351345Y211639D02*
X360784D01*
X311620Y265999D02*
X360740D01*
X315952Y239899D02*
X360693D01*
X359017Y260599D02*
X360650D01*
X290581Y221539D02*
X360589D01*
X311620Y265819D02*
X360560D01*
X316206Y240079D02*
X360513D01*
X358837Y260419D02*
X360470D01*
X311620Y265639D02*
X360380D01*
X316386Y240259D02*
X360333D01*
X358657Y260239D02*
X360290D01*
X311620Y265459D02*
X360200D01*
X290971Y221719D02*
X360199D01*
X290976Y224599D02*
X360194D01*
X316522Y240439D02*
X360153D01*
X290590Y224779D02*
X360152D01*
X358477Y260059D02*
X360110D01*
X311620Y265279D02*
X360020D01*
X352134Y211459D02*
X359995D01*
X316625Y240619D02*
X359973D01*
X358297Y259879D02*
X359930D01*
X352205Y205699D02*
X359924D01*
X311620Y265099D02*
X359840D01*
X316701Y240799D02*
X359793D01*
X358117Y259699D02*
X359750D01*
X311620Y264919D02*
X359660D01*
X352489Y205879D02*
X359640D01*
X316754Y240979D02*
X359613D01*
X352529Y211279D02*
X359600D01*
X357937Y259519D02*
X359570D01*
X311620Y264739D02*
X359480D01*
X316787Y241159D02*
X359433D01*
X357698Y259339D02*
X359390D01*
X352789Y206059D02*
X359340D01*
X352820Y211099D02*
X359309D01*
X311620Y264559D02*
X359300D01*
X316800Y241339D02*
X359253D01*
X341205Y259159D02*
X359210D01*
X311620Y264379D02*
X359120D01*
X353027Y206239D02*
X359102D01*
X353052Y210919D02*
X359077D01*
X316794Y241519D02*
X359073D01*
X340924Y258979D02*
X359030D01*
X311620Y264199D02*
X358940D01*
X353224Y206419D02*
X358904D01*
X316768Y241699D02*
X358893D01*
X353246Y210739D02*
X358883D01*
X345583Y258799D02*
X358850D01*
X311620Y264019D02*
X358760D01*
X353391Y206599D02*
X358738D01*
X353409Y210559D02*
X358719D01*
X316722Y241879D02*
X358713D01*
X346003Y258619D02*
X358670D01*
X353534Y206779D02*
X358595D01*
X311620Y263839D02*
X358580D01*
X353549Y210379D02*
X358579D01*
X316654Y242059D02*
X358533D01*
X353656Y206959D02*
X358472D01*
X353670Y210199D02*
X358459D01*
X311620Y263659D02*
X358400D01*
X353761Y207139D02*
X358368D01*
X353773Y210019D02*
X358356D01*
X316561Y242239D02*
X358353D01*
X353851Y207319D02*
X358278D01*
X353860Y209839D02*
X358269D01*
X311620Y263479D02*
X358220D01*
X353926Y207499D02*
X358203D01*
X353934Y209659D02*
X358195D01*
X316438Y242419D02*
X358173D01*
X353988Y207679D02*
X358141D01*
X353995Y209479D02*
X358134D01*
X354038Y207859D02*
X358091D01*
X354043Y209299D02*
X358085D01*
X354077Y208039D02*
X358052D01*
X354081Y209119D02*
X358048D01*
X311620Y263299D02*
X358040D01*
X354104Y208219D02*
X358025D01*
X354107Y208939D02*
X358022D01*
X354121Y208399D02*
X358008D01*
X354122Y208759D02*
X358007D01*
X354127Y208579D02*
X358002D01*
X316275Y242599D02*
X357993D01*
X311620Y263119D02*
X357860D01*
X316052Y242779D02*
X357813D01*
X311620Y262939D02*
X357680D01*
X315705Y242959D02*
X357633D01*
X311620Y262759D02*
X357500D01*
X270737Y243139D02*
X357453D01*
X311620Y262579D02*
X357320D01*
X271215Y243319D02*
X357273D01*
X311620Y262399D02*
X357140D01*
X311620Y262219D02*
X356960D01*
X340721Y262039D02*
X356780D01*
X341056Y261859D02*
X356600D01*
X343560Y211639D02*
X350784D01*
X271887Y239179D02*
X350003D01*
X343909Y211459D02*
X349995D01*
X343912Y205699D02*
X349924D01*
X344034Y205879D02*
X349640D01*
X344046Y211279D02*
X349600D01*
X284607Y235939D02*
X349353D01*
X344106Y206059D02*
X349340D01*
X344111Y211099D02*
X349309D01*
X272099Y238999D02*
X349306D01*
X344127Y206239D02*
X349102D01*
X344127Y210919D02*
X349077D01*
X284787Y236119D02*
X349052D01*
X272281Y238819D02*
X349022D01*
X344127Y206419D02*
X348904D01*
X344127Y210739D02*
X348883D01*
X344127Y206599D02*
X348738D01*
X344127Y210559D02*
X348719D01*
X344127Y206779D02*
X348595D01*
X344127Y210379D02*
X348579D01*
X344127Y206959D02*
X348472D01*
X344127Y210199D02*
X348459D01*
X344127Y207139D02*
X348368D01*
X344127Y210019D02*
X348356D01*
X344127Y207319D02*
X348278D01*
X344127Y209839D02*
X348269D01*
X344127Y207499D02*
X348203D01*
X344127Y209659D02*
X348195D01*
X344127Y207679D02*
X348141D01*
X344127Y209479D02*
X348134D01*
X344127Y207859D02*
X348091D01*
X344127Y209299D02*
X348085D01*
X344127Y208039D02*
X348052D01*
X344127Y209119D02*
X348048D01*
X344127Y208219D02*
X348025D01*
X344127Y208939D02*
X348022D01*
X344127Y208399D02*
X348008D01*
X344127Y208759D02*
X348007D01*
X344127Y208579D02*
X348002D01*
X340451Y258799D02*
X344677D01*
X336199Y255559D02*
X344277D01*
X311143Y258619D02*
X344257D01*
X335946Y255739D02*
X344197D01*
X310938Y258439D02*
X344010D01*
X335505Y255919D02*
X343968D01*
X310637Y258259D02*
X343833D01*
X326820Y256099D02*
X343802D01*
X295450Y258079D02*
X343700D01*
X326640Y256279D02*
X343676D01*
X295505Y257899D02*
X343599D01*
X326460Y256459D02*
X343581D01*
X295946Y257719D02*
X343524D01*
X326280Y256639D02*
X343512D01*
X325001Y257539D02*
X343473D01*
X326100Y256819D02*
X343465D01*
X325509Y257359D02*
X343442D01*
X325920Y256999D02*
X343438D01*
X325740Y257179D02*
X343430D01*
X311294Y258799D02*
X339729D01*
X311620Y262039D02*
X339459D01*
X311408Y258979D02*
X339256D01*
X311620Y261859D02*
X339124D01*
X311494Y259159D02*
X338996D01*
X311620Y261679D02*
X338905D01*
X311556Y259339D02*
X338812D01*
X311620Y261499D02*
X338744D01*
X311597Y259519D02*
X338674D01*
X311620Y261319D02*
X338623D01*
X311617Y259699D02*
X338570D01*
X305828Y211639D02*
X338568D01*
X311620Y261139D02*
X338531D01*
X311620Y259879D02*
X338492D01*
X311620Y260959D02*
X338465D01*
X311620Y260059D02*
X338438D01*
X311620Y260779D02*
X338420D01*
X311620Y260239D02*
X338404D01*
X311620Y260599D02*
X338396D01*
X311620Y260419D02*
X338390D01*
X201530Y211459D02*
X338220D01*
X311027Y205699D02*
X338217D01*
X310668Y205879D02*
X338095D01*
X201530Y211279D02*
X338083D01*
X201530Y206059D02*
X338023D01*
X201530Y211099D02*
X338018D01*
X201530Y210919D02*
X338002D01*
X201530Y210739D02*
X338002D01*
X201530Y210559D02*
X338002D01*
X201530Y210379D02*
X338002D01*
X201530Y210199D02*
X338002D01*
X201530Y210019D02*
X338002D01*
X201530Y209839D02*
X338002D01*
X201530Y209659D02*
X338002D01*
X201530Y209479D02*
X338002D01*
X201530Y209299D02*
X338002D01*
X201530Y209119D02*
X338002D01*
X201530Y208939D02*
X338002D01*
X201530Y208759D02*
X338002D01*
X201530Y208579D02*
X338002D01*
X201530Y208399D02*
X338002D01*
X201530Y208219D02*
X338002D01*
X201530Y208039D02*
X338002D01*
X201530Y207859D02*
X338002D01*
X201530Y207679D02*
X338002D01*
X201530Y207499D02*
X338002D01*
X201530Y207319D02*
X338002D01*
X201530Y207139D02*
X338002D01*
X201530Y206959D02*
X338002D01*
X201530Y206779D02*
X338002D01*
X201530Y206599D02*
X338002D01*
X201530Y206419D02*
X338002D01*
X201530Y206239D02*
X338002D01*
X327000Y255919D02*
X334675D01*
X330240Y252679D02*
X334492D01*
X327180Y255739D02*
X334234D01*
X330060Y252859D02*
X334142D01*
X327360Y255559D02*
X333981D01*
X329880Y253039D02*
X333918D01*
X327540Y255379D02*
X333801D01*
X329700Y253219D02*
X333754D01*
X327720Y255199D02*
X333666D01*
X329520Y253399D02*
X333630D01*
X327900Y255019D02*
X333564D01*
X329340Y253579D02*
X333537D01*
X328080Y254839D02*
X333488D01*
X329160Y253759D02*
X333469D01*
X328260Y254659D02*
X333435D01*
X328980Y253939D02*
X333423D01*
X328440Y254479D02*
X333403D01*
X328800Y254119D02*
X333397D01*
X328620Y254299D02*
X333390D01*
X328358Y249619D02*
X329698D01*
X328181Y249799D02*
X329445D01*
X328005Y249979D02*
X329263D01*
X327828Y250159D02*
X329083D01*
X327652Y250339D02*
X328903D01*
X327475Y250519D02*
X328723D01*
X327298Y250699D02*
X328543D01*
X327122Y250879D02*
X328363D01*
X326945Y251059D02*
X328183D01*
X326769Y251239D02*
X328003D01*
X326940Y246559D02*
X327878D01*
X326592Y251419D02*
X327823D01*
X326416Y251599D02*
X327643D01*
X326760Y246739D02*
X327559D01*
X326239Y251779D02*
X327463D01*
X326580Y246919D02*
X327364D01*
X326063Y251959D02*
X327283D01*
X326400Y247099D02*
X327187D01*
X325886Y252139D02*
X327103D01*
X326220Y247279D02*
X327011D01*
X325710Y252319D02*
X326923D01*
X326040Y247459D02*
X326834D01*
X325533Y252499D02*
X326743D01*
X325860Y247639D02*
X326658D01*
X325356Y252679D02*
X326563D01*
X325680Y247819D02*
X326481D01*
X271553Y243499D02*
X326437D01*
X325180Y252859D02*
X326383D01*
X325500Y247999D02*
X326305D01*
X325003Y253039D02*
X326203D01*
X271820Y243679D02*
X326151D01*
X325320Y248179D02*
X326128D01*
X324827Y253219D02*
X326023D01*
X320754Y243859D02*
X325963D01*
X325140Y248359D02*
X325952D01*
X324649Y253399D02*
X325843D01*
X321092Y244039D02*
X325783D01*
X324960Y248539D02*
X325775D01*
X324412Y253579D02*
X325663D01*
X321313Y244219D02*
X325603D01*
X324780Y248719D02*
X325599D01*
X323809Y253759D02*
X325483D01*
X321474Y244399D02*
X325423D01*
X324600Y248899D02*
X325422D01*
X300959Y253939D02*
X325303D01*
X324420Y249079D02*
X325245D01*
X321596Y244579D02*
X325243D01*
X300493Y254119D02*
X325123D01*
X324240Y249259D02*
X325069D01*
X321688Y244759D02*
X325063D01*
X272462Y254299D02*
X324943D01*
X324060Y249439D02*
X324892D01*
X321754Y244939D02*
X324883D01*
X272596Y254479D02*
X324763D01*
X323880Y249619D02*
X324716D01*
X321799Y245119D02*
X324703D01*
X295688Y254659D02*
X324583D01*
X323700Y249799D02*
X324539D01*
X321824Y245299D02*
X324523D01*
X296038Y254839D02*
X324403D01*
X323520Y249979D02*
X324363D01*
X321830Y245479D02*
X324343D01*
X323340Y250159D02*
X324186D01*
X321816Y245659D02*
X324163D01*
X323160Y250339D02*
X324010D01*
X321783Y245839D02*
X323983D01*
X322962Y250519D02*
X323833D01*
X321728Y246019D02*
X323803D01*
X322633Y250699D02*
X323657D01*
X321651Y246199D02*
X323623D01*
X306066Y250879D02*
X323480D01*
X321547Y246379D02*
X323443D01*
X305862Y251059D02*
X323303D01*
X321410Y246559D02*
X323263D01*
X321227Y246739D02*
X323083D01*
X320969Y246919D02*
X322903D01*
X320503Y247099D02*
X322723D01*
X281360Y247279D02*
X322543D01*
X281180Y247459D02*
X322363D01*
X281000Y247639D02*
X322183D01*
X305461Y247819D02*
X322003D01*
X305934Y247999D02*
X321823D01*
X306215Y248179D02*
X321616D01*
X281540Y247099D02*
X319757D01*
X272043Y243859D02*
X319506D01*
X281720Y246919D02*
X319291D01*
X272233Y244039D02*
X319168D01*
X272876Y224959D02*
X316022D01*
X272956Y225139D02*
X315783D01*
X201530Y281119D02*
X315684D01*
X273025Y225319D02*
X315604D01*
X273082Y225499D02*
X315425D01*
X273128Y225679D02*
X315246D01*
X201530Y280939D02*
X315096D01*
X273165Y225859D02*
X315067D01*
X273191Y226039D02*
X314888D01*
X201530Y280759D02*
X314819D01*
X273209Y226219D02*
X314709D01*
X270895Y239719D02*
X314696D01*
X201530Y280579D02*
X314625D01*
X284247Y235579D02*
X314580D01*
X273216Y226399D02*
X314531D01*
X223406Y242959D02*
X314495D01*
X201530Y280399D02*
X314448D01*
X273214Y226579D02*
X314352D01*
X201530Y280219D02*
X314271D01*
X270400Y239899D02*
X314248D01*
X284067Y235399D02*
X314194D01*
X273203Y226759D02*
X314173D01*
X223510Y242779D02*
X314148D01*
X201530Y280039D02*
X314093D01*
X273182Y226939D02*
X314025D01*
X283887Y235219D02*
X313957D01*
X273152Y227119D02*
X313923D01*
X201530Y279859D02*
X313916D01*
X273112Y227299D02*
X313854D01*
X273061Y227479D02*
X313814D01*
X273000Y227659D02*
X313800D01*
X281367Y232699D02*
X313800D01*
X281187Y232519D02*
X313800D01*
X281007Y232339D02*
X313800D01*
X280827Y232159D02*
X313800D01*
X280647Y231979D02*
X313800D01*
X280467Y231799D02*
X313800D01*
X280287Y231619D02*
X313800D01*
X280107Y231439D02*
X313800D01*
X279927Y231259D02*
X313800D01*
X279747Y231079D02*
X313800D01*
X279567Y230899D02*
X313800D01*
X279387Y230719D02*
X313800D01*
X279198Y230539D02*
X313800D01*
X278907Y230359D02*
X313800D01*
X223551Y230179D02*
X313800D01*
X223453Y229999D02*
X313800D01*
X270551Y229819D02*
X313800D01*
X271103Y229639D02*
X313800D01*
X271469Y229459D02*
X313800D01*
X271752Y229279D02*
X313800D01*
X271986Y229099D02*
X313800D01*
X272184Y228919D02*
X313800D01*
X272354Y228739D02*
X313800D01*
X272502Y228559D02*
X313800D01*
X272631Y228379D02*
X313800D01*
X272744Y228199D02*
X313800D01*
X272842Y228019D02*
X313800D01*
X272927Y227839D02*
X313800D01*
X281547Y232879D02*
X313787D01*
X283707Y235039D02*
X313786D01*
X201530Y279679D02*
X313739D01*
X281727Y233059D02*
X313659D01*
X283527Y234859D02*
X313657D01*
X201530Y279499D02*
X313561D01*
X281907Y233239D02*
X313561D01*
X283347Y234679D02*
X313559D01*
X282087Y233419D02*
X313488D01*
X283167Y234499D02*
X313488D01*
X282267Y233599D02*
X313439D01*
X282987Y234319D02*
X313438D01*
X282447Y233779D02*
X313410D01*
X282807Y234139D02*
X313409D01*
X282627Y233959D02*
X313400D01*
X201530Y279319D02*
X313384D01*
X201530Y279139D02*
X313207D01*
X201530Y278959D02*
X313029D01*
X201530Y278779D02*
X312852D01*
X201530Y278599D02*
X312675D01*
X201530Y278419D02*
X312497D01*
X201530Y278239D02*
X312320D01*
X201530Y278059D02*
X312143D01*
X201530Y277879D02*
X311965D01*
X201530Y277699D02*
X311788D01*
X201530Y277519D02*
X311611D01*
X201530Y277339D02*
X311433D01*
X201530Y277159D02*
X311256D01*
X201530Y276979D02*
X311079D01*
X201530Y276799D02*
X310901D01*
X201530Y276619D02*
X310724D01*
X201530Y276439D02*
X310547D01*
X201530Y276259D02*
X310369D01*
X201530Y276079D02*
X310192D01*
X201530Y275899D02*
X310015D01*
X201530Y275719D02*
X309838D01*
X201530Y275539D02*
X309660D01*
X201530Y202639D02*
X309647D01*
X201530Y205879D02*
X309512D01*
X201530Y275359D02*
X309483D01*
X201530Y275179D02*
X309306D01*
X201530Y202819D02*
X309221D01*
X201530Y205699D02*
X309153D01*
X201530Y274999D02*
X309128D01*
X201530Y202999D02*
X308973D01*
X201530Y274819D02*
X308951D01*
X201530Y205519D02*
X308926D01*
X201530Y203179D02*
X308795D01*
X201530Y274639D02*
X308774D01*
X201530Y205339D02*
X308760D01*
X201530Y203359D02*
X308661D01*
X201530Y205159D02*
X308635D01*
X201530Y274459D02*
X308606D01*
X201530Y203539D02*
X308560D01*
X201530Y204979D02*
X308540D01*
X201530Y203719D02*
X308485D01*
X201530Y274279D02*
X308477D01*
X201530Y204799D02*
X308471D01*
X201530Y203899D02*
X308433D01*
X201530Y204619D02*
X308424D01*
X201530Y204079D02*
X308402D01*
X201530Y204439D02*
X308397D01*
X201530Y204259D02*
X308390D01*
X201530Y274099D02*
X308379D01*
X201530Y273919D02*
X308308D01*
X201530Y273739D02*
X308258D01*
X201530Y273559D02*
X308229D01*
X201530Y273379D02*
X308220D01*
X201530Y273199D02*
X308220D01*
X201530Y273019D02*
X308220D01*
X201530Y272839D02*
X308220D01*
X201530Y272659D02*
X308220D01*
X201530Y272479D02*
X308220D01*
X201530Y272299D02*
X308220D01*
X201530Y272119D02*
X308220D01*
X201530Y271939D02*
X308220D01*
X201530Y271759D02*
X308220D01*
X214195Y271579D02*
X308220D01*
X214677Y271399D02*
X308220D01*
X215005Y271219D02*
X308220D01*
X215260Y271039D02*
X308220D01*
X215469Y270859D02*
X308220D01*
X215645Y270679D02*
X308220D01*
X215795Y270499D02*
X308220D01*
X215924Y270319D02*
X308220D01*
X216034Y270139D02*
X308220D01*
X216128Y269959D02*
X308220D01*
X272925Y269779D02*
X308220D01*
X273099Y269599D02*
X308220D01*
X273185Y269419D02*
X308220D01*
X273216Y269239D02*
X308220D01*
X273217Y269059D02*
X308220D01*
X273217Y268879D02*
X308220D01*
X273217Y268699D02*
X308220D01*
X273217Y268519D02*
X308220D01*
X273217Y268339D02*
X308220D01*
X273217Y268159D02*
X308220D01*
X273217Y267979D02*
X308220D01*
X273217Y267799D02*
X308220D01*
X273217Y267619D02*
X308220D01*
X273217Y267439D02*
X308220D01*
X273217Y267259D02*
X308220D01*
X273217Y267079D02*
X308220D01*
X273217Y266899D02*
X308220D01*
X273217Y266719D02*
X308220D01*
X273217Y266539D02*
X308220D01*
X273217Y266359D02*
X308220D01*
X273217Y266179D02*
X308220D01*
X273217Y265999D02*
X308220D01*
X273217Y265819D02*
X308220D01*
X273217Y265639D02*
X308220D01*
X273217Y265459D02*
X308220D01*
X273217Y265279D02*
X308220D01*
X273217Y265099D02*
X308220D01*
X273217Y264919D02*
X308220D01*
X273217Y264739D02*
X308220D01*
X273217Y264559D02*
X308220D01*
X273217Y264379D02*
X308220D01*
X273217Y264199D02*
X308220D01*
X273217Y264019D02*
X308220D01*
X273217Y263839D02*
X308220D01*
X273215Y263659D02*
X308220D01*
X273181Y263479D02*
X308220D01*
X273091Y263299D02*
X308220D01*
X272909Y263119D02*
X308220D01*
X201530Y262939D02*
X308220D01*
X201530Y262759D02*
X308220D01*
X201530Y262579D02*
X308220D01*
X201530Y262399D02*
X308220D01*
X201530Y262219D02*
X308220D01*
X221401Y262039D02*
X308220D01*
X221992Y261859D02*
X308220D01*
X222354Y261679D02*
X308220D01*
X280820Y247819D02*
X304739D01*
X201530Y211639D02*
X304352D01*
X201530Y214699D02*
X304346D01*
X301082Y251059D02*
X304338D01*
X280640Y247999D02*
X304266D01*
X300744Y250879D02*
X304134D01*
X201530Y211819D02*
X304058D01*
X201530Y214519D02*
X304055D01*
X280460Y248179D02*
X304006D01*
X277940Y250699D02*
X303915D01*
X201530Y211999D02*
X303858D01*
X201530Y214339D02*
X303855D01*
X280280Y248359D02*
X303822D01*
X278120Y250519D02*
X303754D01*
X201530Y212179D02*
X303709D01*
X201530Y214159D02*
X303707D01*
X280100Y248539D02*
X303684D01*
X278300Y250339D02*
X303633D01*
X201530Y212359D02*
X303596D01*
X201530Y213979D02*
X303595D01*
X279920Y248719D02*
X303580D01*
X278480Y250159D02*
X303541D01*
X201530Y212539D02*
X303512D01*
X201530Y213799D02*
X303510D01*
X279740Y248899D02*
X303502D01*
X278660Y249979D02*
X303475D01*
X201530Y212719D02*
X303451D01*
X201530Y213619D02*
X303450D01*
X279560Y249079D02*
X303448D01*
X278840Y249799D02*
X303430D01*
X279380Y249259D02*
X303414D01*
X201530Y212899D02*
X303412D01*
X201530Y213439D02*
X303411D01*
X279020Y249619D02*
X303406D01*
X279200Y249439D02*
X303400D01*
X201530Y213079D02*
X303392D01*
X201530Y213259D02*
X303392D01*
X201530Y214879D02*
X299799D01*
X272308Y254119D02*
X299747D01*
X277760Y250879D02*
X299496D01*
X201530Y218119D02*
X299455D01*
X201530Y215059D02*
X299294D01*
X272130Y253939D02*
X299281D01*
X277580Y251059D02*
X299158D01*
X201530Y217939D02*
X299129D01*
X201530Y215239D02*
X299028D01*
X271923Y253759D02*
X299023D01*
X277400Y251239D02*
X298937D01*
X201530Y217759D02*
X298915D01*
X201530Y215419D02*
X298841D01*
X271677Y253579D02*
X298840D01*
X277220Y251419D02*
X298776D01*
X201530Y217579D02*
X298757D01*
X271375Y253399D02*
X298703D01*
X201530Y215599D02*
X298701D01*
X277040Y251599D02*
X298654D01*
X201530Y217399D02*
X298637D01*
X270975Y253219D02*
X298599D01*
X201530Y215779D02*
X298595D01*
X276860Y251779D02*
X298562D01*
X201530Y217219D02*
X298547D01*
X270287Y253039D02*
X298522D01*
X201530Y215959D02*
X298516D01*
X276680Y251959D02*
X298496D01*
X201530Y217039D02*
X298482D01*
X213858Y252859D02*
X298467D01*
X201530Y216139D02*
X298460D01*
X276500Y252139D02*
X298451D01*
X201530Y216859D02*
X298438D01*
X275848Y252679D02*
X298434D01*
X276320Y252319D02*
X298426D01*
X201530Y216319D02*
X298426D01*
X276132Y252499D02*
X298420D01*
X201530Y216679D02*
X298415D01*
X201530Y216499D02*
X298411D01*
X276044Y258079D02*
X294730D01*
X275863Y257899D02*
X294675D01*
X272713Y254659D02*
X294492D01*
X216357Y221359D02*
X294327D01*
X201530Y218299D02*
X294291D01*
X275683Y257719D02*
X294234D01*
X272816Y254839D02*
X294142D01*
X216311Y221179D02*
X294028D01*
X201530Y218479D02*
X294006D01*
X275503Y257539D02*
X293981D01*
X272927Y255019D02*
X293918D01*
X216252Y220999D02*
X293825D01*
X201530Y218659D02*
X293808D01*
X275323Y257359D02*
X293801D01*
X273161Y255199D02*
X293754D01*
X216182Y220819D02*
X293674D01*
X275143Y257179D02*
X293666D01*
X201530Y218839D02*
X293662D01*
X273343Y255379D02*
X293630D01*
X274963Y256999D02*
X293564D01*
X216097Y220639D02*
X293560D01*
X213925Y219019D02*
X293551D01*
X273523Y255559D02*
X293537D01*
X274783Y256819D02*
X293488D01*
X215997Y220459D02*
X293475D01*
X273703Y255739D02*
X293469D01*
X214536Y219199D02*
X293468D01*
X274603Y256639D02*
X293435D01*
X273883Y255919D02*
X293423D01*
X215881Y220279D02*
X293413D01*
X214901Y219379D02*
X293408D01*
X274423Y256459D02*
X293403D01*
X274063Y256099D02*
X293397D01*
X274243Y256279D02*
X293390D01*
X215745Y220099D02*
X293373D01*
X215177Y219559D02*
X293370D01*
X215587Y219919D02*
X293353D01*
X215401Y219739D02*
X293352D01*
X216392Y221539D02*
X289559D01*
X272783Y224779D02*
X289550D01*
X216415Y221719D02*
X289169D01*
X272676Y224599D02*
X289164D01*
X216428Y221899D02*
X288930D01*
X272553Y224419D02*
X288927D01*
X216431Y222079D02*
X288758D01*
X272413Y224239D02*
X288756D01*
X216423Y222259D02*
X288629D01*
X272251Y224059D02*
X288627D01*
X216404Y222439D02*
X288531D01*
X272065Y223879D02*
X288529D01*
X216374Y222619D02*
X288458D01*
X271846Y223699D02*
X288458D01*
X216333Y222799D02*
X288409D01*
X271584Y223519D02*
X288408D01*
X216281Y222979D02*
X288380D01*
X271256Y223339D02*
X288379D01*
X270801Y223159D02*
X288370D01*
X272439Y238639D02*
X283721D01*
X272576Y238459D02*
X283454D01*
X272696Y238279D02*
X283270D01*
X272800Y238099D02*
X283090D01*
X272891Y237919D02*
X282910D01*
X272969Y237739D02*
X282730D01*
X273035Y237559D02*
X282550D01*
X273091Y237379D02*
X282370D01*
X273135Y237199D02*
X282190D01*
X273170Y237019D02*
X282010D01*
X273195Y236839D02*
X281830D01*
X273211Y236659D02*
X281650D01*
X273216Y236479D02*
X281470D01*
X273213Y236299D02*
X281290D01*
X273200Y236119D02*
X281110D01*
X273178Y235939D02*
X280930D01*
X272397Y244219D02*
X280915D01*
X273146Y235759D02*
X280750D01*
X272539Y244399D02*
X280582D01*
X273104Y235579D02*
X280570D01*
X273051Y235399D02*
X280390D01*
X272664Y244579D02*
X280383D01*
X272988Y235219D02*
X280210D01*
X272773Y244759D02*
X280203D01*
X272913Y235039D02*
X280030D01*
X272867Y244939D02*
X280023D01*
X272826Y234859D02*
X279850D01*
X272949Y245119D02*
X279843D01*
X272726Y234679D02*
X279670D01*
X273018Y245299D02*
X279663D01*
X272610Y234499D02*
X279490D01*
X273076Y245479D02*
X279483D01*
X272478Y234319D02*
X279310D01*
X273124Y245659D02*
X279303D01*
X272326Y234139D02*
X279130D01*
X273162Y245839D02*
X279123D01*
X272151Y233959D02*
X278950D01*
X273189Y246019D02*
X278943D01*
X271948Y233779D02*
X278770D01*
X273207Y246199D02*
X278763D01*
X271707Y233599D02*
X278590D01*
X273216Y246379D02*
X278583D01*
X271412Y233419D02*
X278410D01*
X273215Y246559D02*
X278403D01*
X271027Y233239D02*
X278230D01*
X273205Y246739D02*
X278223D01*
X270403Y233059D02*
X278050D01*
X273186Y246919D02*
X278043D01*
X270259Y232879D02*
X277870D01*
X273156Y247099D02*
X277863D01*
X273117Y247279D02*
X277683D01*
X273068Y247459D02*
X277503D01*
X273008Y247639D02*
X277323D01*
X272936Y247819D02*
X277143D01*
X272852Y247999D02*
X276963D01*
X272756Y248179D02*
X276783D01*
X272645Y248359D02*
X276603D01*
X272517Y248539D02*
X276423D01*
X272371Y248719D02*
X276243D01*
X272204Y248899D02*
X276063D01*
X272009Y249079D02*
X275883D01*
X271780Y249259D02*
X275703D01*
X271503Y249439D02*
X275523D01*
X271150Y249619D02*
X275343D01*
X222627Y261499D02*
X275293D01*
X270756Y249799D02*
X275163D01*
X274342Y249979D02*
X274983D01*
X222849Y261319D02*
X274596D01*
X213794Y252679D02*
X274572D01*
X223034Y261139D02*
X274312D01*
X223192Y260959D02*
X274114D01*
X223327Y260779D02*
X273934D01*
X223442Y260599D02*
X273754D01*
X223541Y260419D02*
X273574D01*
X223625Y260239D02*
X273394D01*
X223696Y260059D02*
X273214D01*
X270227Y259879D02*
X273034D01*
X270951Y259699D02*
X272854D01*
X271358Y259519D02*
X272674D01*
X271664Y259339D02*
X272494D01*
X271912Y259159D02*
X272314D01*
X223753Y259879D02*
X269295D01*
X223571Y232879D02*
X269262D01*
X213910Y253039D02*
X269235D01*
X223515Y239899D02*
X269121D01*
X223472Y233059D02*
X269118D01*
X223339Y229819D02*
X268970D01*
X223284Y243139D02*
X268785D01*
X223821Y249799D02*
X268766D01*
X216216Y223159D02*
X268720D01*
X223412Y239719D02*
X268626D01*
X223799Y259699D02*
X268570D01*
X213950Y253219D02*
X268547D01*
X223361Y233239D02*
X268495D01*
X223207Y229639D02*
X268418D01*
X223849Y249619D02*
X268372D01*
X223142Y243319D02*
X268307D01*
X216138Y223339D02*
X268265D01*
X223291Y239539D02*
X268202D01*
X223834Y259519D02*
X268163D01*
X213980Y253399D02*
X268146D01*
X223232Y233419D02*
X268109D01*
X223052Y229459D02*
X268053D01*
X223866Y249439D02*
X268019D01*
X222976Y243499D02*
X267969D01*
X216045Y223519D02*
X267937D01*
X223150Y239359D02*
X267888D01*
X223857Y259339D02*
X267857D01*
X214000Y253579D02*
X267844D01*
X223081Y233599D02*
X267814D01*
X222869Y229279D02*
X267769D01*
X223872Y249259D02*
X267742D01*
X222780Y243679D02*
X267702D01*
X215937Y223699D02*
X267675D01*
X222985Y239179D02*
X267634D01*
X223870Y259159D02*
X267609D01*
X214009Y253759D02*
X267598D01*
X222905Y233779D02*
X267573D01*
X222652Y229099D02*
X267536D01*
X223868Y249079D02*
X267513D01*
X222543Y243859D02*
X267479D01*
X215810Y223879D02*
X267456D01*
X222791Y238999D02*
X267422D01*
X223872Y258979D02*
X267400D01*
X214008Y253939D02*
X267391D01*
X222694Y233959D02*
X267370D01*
X222385Y228919D02*
X267338D01*
X223853Y248899D02*
X267318D01*
X222246Y244039D02*
X267289D01*
X215663Y224059D02*
X267270D01*
X222557Y238819D02*
X267240D01*
X223863Y258799D02*
X267221D01*
X213997Y254119D02*
X267213D01*
X222438Y234139D02*
X267195D01*
X222036Y228739D02*
X267167D01*
X223827Y248719D02*
X267151D01*
X221837Y244219D02*
X267125D01*
X215490Y224239D02*
X267108D01*
X222264Y238639D02*
X267083D01*
X223844Y258619D02*
X267066D01*
X213976Y254299D02*
X267059D01*
X222108Y234319D02*
X267044D01*
X221488Y228559D02*
X267019D01*
X223791Y248539D02*
X267005D01*
X201530Y244399D02*
X266983D01*
X215285Y224419D02*
X266968D01*
X221864Y238459D02*
X266945D01*
X223814Y258439D02*
X266931D01*
X213944Y254479D02*
X266925D01*
X221618Y234499D02*
X266911D01*
X201530Y228379D02*
X266890D01*
X223742Y248359D02*
X266877D01*
X201530Y244579D02*
X266858D01*
X215036Y224599D02*
X266845D01*
X221017Y238279D02*
X266825D01*
X223772Y258259D02*
X266813D01*
X213902Y254659D02*
X266808D01*
X213263Y234679D02*
X266796D01*
X201530Y228199D02*
X266777D01*
X223682Y248179D02*
X266766D01*
X201530Y244759D02*
X266749D01*
X214719Y224779D02*
X266738D01*
X213704Y238099D02*
X266721D01*
X223719Y258079D02*
X266710D01*
X213848Y254839D02*
X266706D01*
X213403Y234859D02*
X266695D01*
X201530Y228019D02*
X266679D01*
X223609Y247999D02*
X266670D01*
X201530Y244939D02*
X266655D01*
X214263Y224959D02*
X266645D01*
X213783Y237919D02*
X266630D01*
X223654Y257899D02*
X266621D01*
X213783Y255019D02*
X266617D01*
X201530Y263119D02*
X266612D01*
X213524Y235039D02*
X266608D01*
X216208Y269779D02*
X266596D01*
X201530Y227839D02*
X266594D01*
X223522Y247819D02*
X266586D01*
X201530Y245119D02*
X266573D01*
X201530Y225139D02*
X266565D01*
X213848Y237739D02*
X266552D01*
X223575Y257719D02*
X266544D01*
X213704Y255199D02*
X266541D01*
X213629Y235219D02*
X266533D01*
X201530Y227659D02*
X266521D01*
X223420Y247639D02*
X266514D01*
X201530Y245299D02*
X266504D01*
X201530Y225319D02*
X266497D01*
X213902Y237559D02*
X266486D01*
X223482Y257539D02*
X266479D01*
X213612Y255379D02*
X266476D01*
X213718Y235399D02*
X266470D01*
X201530Y227479D02*
X266460D01*
X223300Y247459D02*
X266454D01*
X201530Y245479D02*
X266446D01*
X201530Y225499D02*
X266439D01*
X213944Y237379D02*
X266431D01*
X201530Y263299D02*
X266430D01*
X223373Y257359D02*
X266425D01*
X213505Y255559D02*
X266423D01*
X216274Y269599D02*
X266422D01*
X213794Y235579D02*
X266417D01*
X201530Y227299D02*
X266409D01*
X223161Y247279D02*
X266405D01*
X201530Y245659D02*
X266398D01*
X201530Y225679D02*
X266393D01*
X213976Y237199D02*
X266386D01*
X223246Y257179D02*
X266381D01*
X213381Y255739D02*
X266380D01*
X213858Y235759D02*
X266375D01*
X201530Y227119D02*
X266369D01*
X222998Y247099D02*
X266366D01*
X201530Y245839D02*
X266360D01*
X201530Y225859D02*
X266356D01*
X213997Y237019D02*
X266351D01*
X223098Y256999D02*
X266348D01*
X213238Y255919D02*
X266346D01*
X213910Y235939D02*
X266343D01*
X201530Y263479D02*
X266340D01*
X201530Y226939D02*
X266339D01*
X216328Y269419D02*
X266336D01*
X222806Y246919D02*
X266336D01*
X201530Y246019D02*
X266333D01*
X201530Y226039D02*
X266330D01*
X214008Y236839D02*
X266326D01*
X222924Y256819D02*
X266324D01*
X221683Y256099D02*
X266323D01*
X213950Y236119D02*
X266321D01*
X201530Y226759D02*
X266318D01*
X222575Y246739D02*
X266317D01*
X221158Y246199D02*
X266315D01*
X201530Y226219D02*
X266313D01*
X214009Y236659D02*
X266311D01*
X222718Y256639D02*
X266310D01*
X222146Y256279D02*
X266309D01*
X213980Y236299D02*
X266308D01*
X201530Y226579D02*
X266307D01*
X222287Y246559D02*
X266307D01*
X221898Y246379D02*
X266306D01*
X201530Y263659D02*
X266306D01*
X216370Y269239D02*
X266305D01*
X201530Y226399D02*
X266305D01*
X214000Y236479D02*
X266305D01*
X222467Y256459D02*
X266305D01*
X216401Y269059D02*
X266305D01*
X216421Y268879D02*
X266305D01*
X216431Y268699D02*
X266305D01*
X216429Y268519D02*
X266305D01*
X216417Y268339D02*
X266305D01*
X216395Y268159D02*
X266305D01*
X216361Y267979D02*
X266305D01*
X216316Y267799D02*
X266305D01*
X216259Y267619D02*
X266305D01*
X216190Y267439D02*
X266305D01*
X216107Y267259D02*
X266305D01*
X216009Y267079D02*
X266305D01*
X215895Y266899D02*
X266305D01*
X215762Y266719D02*
X266305D01*
X215606Y266539D02*
X266305D01*
X215423Y266359D02*
X266305D01*
X215204Y266179D02*
X266305D01*
X214935Y265999D02*
X266305D01*
X214583Y265819D02*
X266305D01*
X214024Y265639D02*
X266305D01*
X201530Y265459D02*
X266305D01*
X201530Y265279D02*
X266305D01*
X201530Y265099D02*
X266305D01*
X201530Y264919D02*
X266305D01*
X201530Y264739D02*
X266305D01*
X201530Y264559D02*
X266305D01*
X201530Y264379D02*
X266305D01*
X201530Y264199D02*
X266305D01*
X201530Y264019D02*
X266305D01*
X201530Y263839D02*
X266305D01*
X213718Y252499D02*
X222995D01*
X213629Y252319D02*
X222594D01*
X221800Y252139D02*
X222375D01*
X213612Y238279D02*
X220603D01*
X201530Y246199D02*
X220462D01*
X201530Y262039D02*
X220219D01*
X201530Y228559D02*
X220132D01*
X213100Y234499D02*
X220002D01*
X213071Y256099D02*
X219937D01*
X213524Y252139D02*
X219820D01*
X201530Y244219D02*
X219783D01*
X213505Y238459D02*
X219756D01*
X201530Y246379D02*
X219722D01*
X201530Y261859D02*
X219628D01*
X201530Y228739D02*
X219584D01*
X212909Y234319D02*
X219512D01*
X212875Y256279D02*
X219474D01*
X213403Y251959D02*
X219399D01*
X201530Y244039D02*
X219374D01*
X213381Y238639D02*
X219356D01*
X201530Y246559D02*
X219333D01*
X201530Y261679D02*
X219266D01*
X201530Y228919D02*
X219235D01*
X212682Y234139D02*
X219182D01*
X212641Y256459D02*
X219153D01*
X213263Y251779D02*
X219096D01*
X201530Y243859D02*
X219077D01*
X213238Y238819D02*
X219063D01*
X201530Y246739D02*
X219045D01*
X201530Y261499D02*
X218993D01*
X201530Y229099D02*
X218968D01*
X212403Y233959D02*
X218926D01*
X212351Y256639D02*
X218902D01*
X213100Y251599D02*
X218856D01*
X201530Y243679D02*
X218840D01*
X213071Y238999D02*
X218829D01*
X201530Y246919D02*
X218814D01*
X201530Y261319D02*
X218771D01*
X201530Y229279D02*
X218751D01*
X212037Y233779D02*
X218715D01*
X211964Y256819D02*
X218696D01*
X212909Y251419D02*
X218657D01*
X201530Y243499D02*
X218644D01*
X212875Y239179D02*
X218635D01*
X201530Y247099D02*
X218622D01*
X201530Y261139D02*
X218586D01*
X201530Y229459D02*
X218568D01*
X211451Y233599D02*
X218539D01*
X211284Y256999D02*
X218522D01*
X212682Y251239D02*
X218489D01*
X201530Y243319D02*
X218478D01*
X212641Y239359D02*
X218470D01*
X201530Y247279D02*
X218459D01*
X201530Y260959D02*
X218428D01*
X201530Y229639D02*
X218413D01*
X201530Y233419D02*
X218388D01*
X201530Y257179D02*
X218374D01*
X212403Y251059D02*
X218346D01*
X201530Y243139D02*
X218336D01*
X212351Y239539D02*
X218329D01*
X201530Y247459D02*
X218320D01*
X201530Y260779D02*
X218293D01*
X201530Y229819D02*
X218281D01*
X201530Y233239D02*
X218259D01*
X201530Y257359D02*
X218247D01*
X212037Y250879D02*
X218222D01*
X201530Y242959D02*
X218214D01*
X211964Y239719D02*
X218208D01*
X201530Y247639D02*
X218200D01*
X201530Y260599D02*
X218178D01*
X201530Y229999D02*
X218167D01*
X201530Y233059D02*
X218148D01*
X201530Y257539D02*
X218138D01*
X211451Y250699D02*
X218117D01*
X201530Y242779D02*
X218110D01*
X211284Y239899D02*
X218105D01*
X201530Y247819D02*
X218098D01*
X201530Y260419D02*
X218079D01*
X201530Y230179D02*
X218069D01*
X201530Y232879D02*
X218053D01*
X201530Y257719D02*
X218045D01*
X201530Y250519D02*
X218027D01*
X201530Y242599D02*
X218021D01*
X201530Y240079D02*
X218017D01*
X201530Y247999D02*
X218011D01*
X201530Y260239D02*
X217995D01*
X201530Y230359D02*
X217987D01*
X201530Y232699D02*
X217973D01*
X201530Y257899D02*
X217966D01*
X201530Y250339D02*
X217951D01*
X201530Y242419D02*
X217946D01*
X201530Y240259D02*
X217943D01*
X201530Y248179D02*
X217938D01*
X201530Y260059D02*
X217924D01*
X201530Y230539D02*
X217918D01*
X201530Y232519D02*
X217907D01*
X201530Y258079D02*
X217901D01*
X201530Y250159D02*
X217889D01*
X201530Y242239D02*
X217884D01*
X201530Y240439D02*
X217882D01*
X201530Y248359D02*
X217878D01*
X201530Y259879D02*
X217867D01*
X201530Y230719D02*
X217861D01*
X201530Y232339D02*
X217852D01*
X201530Y258259D02*
X217848D01*
X201530Y249979D02*
X217838D01*
X201530Y242059D02*
X217835D01*
X201530Y240619D02*
X217832D01*
X201530Y248539D02*
X217829D01*
X201530Y259699D02*
X217821D01*
X201530Y230899D02*
X217817D01*
X201530Y232159D02*
X217810D01*
X201530Y258439D02*
X217806D01*
X201530Y249799D02*
X217799D01*
X201530Y241879D02*
X217797D01*
X201530Y240799D02*
X217795D01*
X201530Y248719D02*
X217793D01*
X201530Y259519D02*
X217786D01*
X201530Y231079D02*
X217783D01*
X201530Y231979D02*
X217779D01*
X201530Y258619D02*
X217776D01*
X201530Y249619D02*
X217771D01*
X201530Y241699D02*
X217770D01*
X201530Y240979D02*
X217768D01*
X201530Y248899D02*
X217767D01*
X201530Y259339D02*
X217763D01*
X201530Y231259D02*
X217761D01*
X201530Y231799D02*
X217758D01*
X201530Y258799D02*
X217757D01*
X201530Y249439D02*
X217754D01*
X201530Y241519D02*
X217753D01*
X201530Y241159D02*
X217753D01*
X201530Y249079D02*
X217752D01*
X201530Y259159D02*
X217750D01*
X201530Y231439D02*
X217750D01*
X201530Y231619D02*
X217749D01*
X201530Y258979D02*
X217748D01*
X201530Y249259D02*
X217748D01*
X201530Y241339D02*
X217748D01*
X201530Y256999D02*
X210336D01*
X201530Y239899D02*
X210336D01*
X201530Y250699D02*
X210169D01*
X201530Y233599D02*
X210169D01*
X201530Y256819D02*
X209656D01*
X201530Y239719D02*
X209656D01*
X201530Y250879D02*
X209583D01*
X201530Y233779D02*
X209583D01*
X201530Y256639D02*
X209269D01*
X201530Y239539D02*
X209269D01*
X201530Y251059D02*
X209217D01*
X201530Y233959D02*
X209217D01*
X201530Y256459D02*
X208979D01*
X201530Y239359D02*
X208979D01*
X201530Y251239D02*
X208938D01*
X201530Y234139D02*
X208938D01*
X201530Y256279D02*
X208745D01*
X201530Y239179D02*
X208745D01*
X201530Y251419D02*
X208711D01*
X201530Y234319D02*
X208711D01*
X201530Y256099D02*
X208549D01*
X201530Y238999D02*
X208549D01*
X201530Y251599D02*
X208520D01*
X201530Y234499D02*
X208520D01*
X201530Y255919D02*
X208382D01*
X201530Y238819D02*
X208382D01*
X201530Y251779D02*
X208357D01*
X201530Y234679D02*
X208357D01*
X201530Y255739D02*
X208239D01*
X201530Y238639D02*
X208239D01*
X201530Y251959D02*
X208217D01*
X201530Y234859D02*
X208217D01*
X201530Y255559D02*
X208115D01*
X201530Y238459D02*
X208115D01*
X201530Y252139D02*
X208096D01*
X201530Y235039D02*
X208096D01*
X201530Y255379D02*
X208008D01*
X201530Y238279D02*
X208008D01*
X201530Y252319D02*
X207991D01*
X201530Y235219D02*
X207991D01*
X201530Y255199D02*
X207916D01*
X201530Y238099D02*
X207916D01*
X201530Y252499D02*
X207902D01*
X201530Y235399D02*
X207902D01*
X201530Y255019D02*
X207837D01*
X201530Y237919D02*
X207837D01*
X201530Y252679D02*
X207826D01*
X201530Y235579D02*
X207826D01*
X201530Y254839D02*
X207772D01*
X201530Y237739D02*
X207772D01*
X201530Y252859D02*
X207762D01*
X201530Y235759D02*
X207762D01*
X201530Y254659D02*
X207718D01*
X201530Y237559D02*
X207718D01*
X201530Y253039D02*
X207710D01*
X201530Y235939D02*
X207710D01*
X201530Y219019D02*
X207695D01*
X201530Y254479D02*
X207676D01*
X201530Y237379D02*
X207676D01*
X201530Y253219D02*
X207670D01*
X201530Y236119D02*
X207670D01*
X201530Y254299D02*
X207644D01*
X201530Y237199D02*
X207644D01*
X201530Y253399D02*
X207640D01*
X201530Y236299D02*
X207640D01*
X201530Y254119D02*
X207623D01*
X201530Y237019D02*
X207623D01*
X201530Y253579D02*
X207620D01*
X201530Y236479D02*
X207620D01*
X201530Y253939D02*
X207612D01*
X201530Y236839D02*
X207612D01*
X201530Y253759D02*
X207611D01*
X201530Y236659D02*
X207611D01*
X201530Y265639D02*
X207596D01*
X201530Y271579D02*
X207425D01*
X201530Y224959D02*
X207357D01*
X201530Y219199D02*
X207084D01*
X201530Y265819D02*
X207037D01*
X201530Y271399D02*
X206943D01*
X201530Y224779D02*
X206901D01*
X201530Y219379D02*
X206719D01*
X201530Y265999D02*
X206685D01*
X201530Y271219D02*
X206615D01*
X201530Y224599D02*
X206584D01*
X201530Y219559D02*
X206443D01*
X201530Y266179D02*
X206416D01*
X201530Y271039D02*
X206360D01*
X201530Y224419D02*
X206335D01*
X201530Y219739D02*
X206219D01*
X201530Y266359D02*
X206197D01*
X201530Y270859D02*
X206151D01*
X201530Y224239D02*
X206130D01*
X201530Y219919D02*
X206033D01*
X201530Y266539D02*
X206014D01*
X201530Y270679D02*
X205975D01*
X201530Y224059D02*
X205957D01*
X201530Y220099D02*
X205875D01*
X201530Y266719D02*
X205858D01*
X201530Y270499D02*
X205825D01*
X201530Y223879D02*
X205810D01*
X201530Y220279D02*
X205739D01*
X201530Y266899D02*
X205725D01*
X201530Y270319D02*
X205696D01*
X201530Y223699D02*
X205683D01*
X201530Y220459D02*
X205623D01*
X201530Y267079D02*
X205611D01*
X201530Y270139D02*
X205586D01*
X201530Y223519D02*
X205575D01*
X201530Y220639D02*
X205523D01*
X201530Y267259D02*
X205513D01*
X201530Y269959D02*
X205492D01*
X201530Y223339D02*
X205482D01*
X201530Y220819D02*
X205438D01*
X201530Y267439D02*
X205430D01*
X201530Y269779D02*
X205412D01*
X201530Y223159D02*
X205404D01*
X201530Y220999D02*
X205368D01*
X201530Y267619D02*
X205361D01*
X201530Y269599D02*
X205346D01*
X201530Y222979D02*
X205339D01*
X201530Y221179D02*
X205309D01*
X201530Y267799D02*
X205304D01*
X201530Y269419D02*
X205292D01*
X201530Y222799D02*
X205287D01*
X201530Y221359D02*
X205263D01*
X201530Y267979D02*
X205259D01*
X201530Y269239D02*
X205250D01*
X201530Y222619D02*
X205246D01*
X201530Y221539D02*
X205228D01*
X201530Y268159D02*
X205225D01*
X201530Y269059D02*
X205219D01*
X201530Y222439D02*
X205216D01*
X201530Y221719D02*
X205205D01*
X201530Y268339D02*
X205203D01*
X201530Y268879D02*
X205199D01*
X201530Y222259D02*
X205197D01*
X201530Y221899D02*
X205192D01*
X201530Y268519D02*
X205191D01*
X201530Y268699D02*
X205189D01*
X201530Y222079D02*
X205189D01*
G54D32*
X215534Y224195D02*
X215039Y223700D01*
X215534Y219865D02*
X215039Y220360D01*
X206086Y219865D02*
X206581Y220360D01*
X206086Y224195D02*
X206581Y223700D01*
X414344Y228118D02*
X413849Y227623D01*
X409457Y228118D02*
X409952Y227623D01*
X409457Y223231D02*
X409952Y223726D01*
X414344Y223231D02*
X413849Y223726D01*
X390162Y268925D02*
X388859Y267623D01*
X390162Y262423D02*
X388859Y263726D01*
X383660Y262423D02*
X384962Y263726D01*
X383660Y268925D02*
X384962Y267623D01*
X273012Y269705D02*
X271709Y268403D01*
X273012Y263203D02*
X271709Y264506D01*
X266510Y263203D02*
X267812Y264506D01*
X266510Y269705D02*
X267812Y268403D01*
X215534Y270795D02*
X215039Y270300D01*
X215534Y266465D02*
X215039Y266960D01*
X206086Y266465D02*
X206581Y266960D01*
X206086Y270795D02*
X206581Y270300D01*
X222975Y256869D02*
X222480Y257364D01*
X222975Y261199D02*
X222480Y260704D01*
X218645Y261199D02*
X219140Y260704D01*
X218645Y256869D02*
X219140Y257364D01*
X451044Y228068D02*
X450549Y227573D01*
X446157Y228068D02*
X446652Y227573D01*
X446157Y223181D02*
X446652Y223676D01*
X451044Y223181D02*
X450549Y223676D01*
X518794Y228068D02*
X518299Y227573D01*
X513907Y228068D02*
X514402Y227573D01*
X513907Y223181D02*
X514402Y223676D01*
X518794Y223181D02*
X518299Y223676D01*
X482282Y244612D02*
X481787Y244117D01*
X479878Y244612D02*
X480373Y244117D01*
X479878Y242208D02*
X480373Y242703D01*
X482282Y242208D02*
X481787Y242703D01*
X199940Y199990D02*
Y287050D01*
X524803*
Y199990*
X199940*
G54D42*
X341064Y208589D03*
G54D66*
X310090Y204280D02*
X373480D01*
X305090Y213170D02*
X370410D01*
X300110Y216550D02*
X367170D01*
X295050Y219820D02*
X364160D01*
X290070Y223160D02*
X361100D01*
X371790Y219480D02*
X380716D01*
X386911Y225674*
X371790Y219480D02*
X365190Y226080D01*
X316680*
X315100Y227670*
Y233960*
X419320Y219830D02*
Y248450D01*
X412096Y255674*
X411901*
X220810Y249241D02*
Y248980D01*
X223320Y251240*
X274021*
X275300Y251500*
X220810Y241334D02*
X315064D01*
X315100Y241370*
X220810Y231545D02*
X278375D01*
X284310Y237480*
X350070*
X320130Y245440D02*
X281360D01*
X275300Y251500*
X372230Y240720D02*
X381940D01*
X386911Y245674*
X372230Y240720D02*
X365180Y247770D01*
X328350*
X323750Y252460*
X300120*
X371770Y230660D02*
X381896D01*
X386911Y235674*
X371770Y230660D02*
X357750Y244680D01*
X326980*
X322180Y249480*
X305100*
X411901Y235674D02*
X411746Y235520D01*
X404926Y242340*
X404910*
Y245850*
X390360Y260400*
X371050*
X411901Y245674D02*
X411105Y246650D01*
X409820*
X404930Y251540*
Y257770*
X391520Y271180*
X448601Y235624D02*
X516351D01*
X448601Y245624D02*
X449300D01*
X451100Y247590*
X516351Y245624D02*
X515980D01*
X514180Y247590*
X451100*
X330320Y250760D02*
X382626D01*
X386911Y255674*
X330320Y250760D02*
X324830Y256250D01*
X295090*
X340090Y260460D02*
X357040D01*
X370850Y274270*
X394120*
X335140Y254220D02*
X364870D01*
X371050Y260400*
X335140Y254220D02*
X335090Y254270D01*
X345130Y257160D02*
X359050D01*
X373070Y271180*
X391520*
X411901Y255674D02*
X412000Y255774D01*
Y256390*
X394120Y274270*
X448601Y255624D02*
X516351D01*
G54D136*
X269761Y266454D03*
X376911Y265674D03*
X411901D03*
X386911D03*
X448601Y265624D03*
X516351D03*
G54D137*
X269761Y256454D03*
Y246454D03*
Y236454D03*
Y226454D03*
X376911Y255674D03*
Y245674D03*
Y235674D03*
Y225674D03*
X411901Y255674D03*
Y245674D03*
Y235674D03*
Y225674D03*
X386911Y255674D03*
Y245674D03*
Y235674D03*
Y225674D03*
X448601Y255624D03*
Y245624D03*
Y235624D03*
Y225624D03*
X516351Y255624D03*
Y245624D03*
Y235624D03*
Y225624D03*
G54D150*
X220810Y231545D03*
Y241334D03*
Y249241D03*
Y259034D03*
X351064Y208589D03*
X361064D03*
G54D162*
X210810Y222030D03*
Y268630D03*
G74*
X0Y0D02*
M02*
