%
T1C.01F0S0
X029007Y022316
X029505Y021982
X030011Y021655
X030012Y025246
X030509Y021317
X03051Y024948
X031009Y020428
X03151Y023396
X03151Y024137
X032013Y024544
X033509Y025427
X035007Y023748
X03611Y022316
X036416Y021982
X036717Y021655
X037041Y021317
X037348Y020428
X041932Y021983
X048108Y024341
X034513Y025716
X034009Y026046
X030992Y02598
X029509Y025625
X028507Y02598
T2C.032F0S0
X022081Y024133
X022081Y024924
X022081Y023154
X026976Y022645
X026976Y023645
X026976Y024645
X034106Y020859
X035106Y020859
X036106Y020859
X037691Y023567
X037691Y022567
X037691Y024567
X038691Y023567
X038691Y022567
X038691Y024567
X04119Y023567
X04119Y022567
X04119Y024567
X04486Y023562
X04486Y022562
X04486Y024562
X051635Y023562
X051635Y022562
X051635Y024562
X051635Y026562
X051635Y025562
X04486Y026562
X04486Y025562
X04119Y026567
X04119Y025567
X038691Y026567
X038691Y025567
X037691Y026567
X037691Y025567
X026976Y025645
X026976Y026645
X022081Y025903
X020828Y022203G85X021334Y022203
X020828Y026863G85X021334Y026863
T3C.05F0S0
X021081Y025383
X021081Y023673
T4C.06F0S0
X044527Y020771
X044527Y027925
X051683Y027925
X051683Y020771
M30
