*
*
G04 PADS 9.5 Build Number: 522968 generated Gerber (RS-274-X) file*
G04 PC Version=2.1*
*
%IN "PIC32USB_01.pcb"*%
*
%MOIN*%
*
%FSLAX35Y35*%
*
*
*
*
G04 PC Standard Apertures*
*
*
G04 Thermal Relief Aperture macro.*
%AMTER*
1,1,$1,0,0*
1,0,$1-$2,0,0*
21,0,$3,$4,0,0,45*
21,0,$3,$4,0,0,135*
%
*
*
G04 Annular Aperture macro.*
%AMANN*
1,1,$1,0,0*
1,0,$2,0,0*
%
*
*
G04 Odd Aperture macro.*
%AMODD*
1,1,$1,0,0*
1,0,$1-0.005,0,0*
%
*
*
G04 PC Custom Aperture Macros*
*
*
*
*
*
*
G04 PC Aperture Table*
*
%ADD010C,0.001*%
%ADD032C,0.01*%
%ADD033R,0.04921X0.03937*%
%ADD034R,0.0315X0.02953*%
%ADD035R,0.03937X0.06299*%
%ADD040R,0.02953X0.0315*%
%ADD049R,0.03543X0.01969*%
%ADD059R,0.02756X0.03937*%
%ADD060R,0.02362X0.03937*%
%ADD151R,0.034X0.05*%
%ADD152C,0.015*%
%ADD153O,0.02047X0.06299*%
%ADD163R,0.0315X0.1378*%
%ADD164R,0.03937X0.1378*%
%ADD165O,0.01969X0.00984*%
%ADD166R,0.02559X0.05315*%
*
*
*
*
G04 PC Circuitry*
G04 Layer Name PIC32USB_01.pcb - circuitry*
%LPD*%
*
*
G04 PC Custom Flashes*
G04 Layer Name PIC32USB_01.pcb - flashes*
%LPD*%
*
*
G04 PC Circuitry*
G04 Layer Name PIC32USB_01.pcb - circuitry*
%LPD*%
*
G54D10*
G54D32*
G01X242360Y219120D02*
X248060D01*
Y228620*
X246831*
X246680Y228669*
X246552Y228762*
X246459Y228890*
X246410Y229041*
Y235920*
X244010*
Y229041*
X243961Y228890*
X243868Y228762*
X243740Y228669*
X243589Y228620*
X242360*
Y219120*
X242710D02*
Y228620D01*
X243210Y219120D02*
Y228620D01*
X243710Y219120D02*
Y228659D01*
X244210Y219120D02*
Y235920D01*
X244710Y219120D02*
Y235920D01*
X245210Y219120D02*
Y235920D01*
X245710Y219120D02*
Y235920D01*
X246210Y219120D02*
Y235920D01*
X246710Y219120D02*
Y228659D01*
X247210Y219120D02*
Y228620D01*
X247710Y219120D02*
Y228620D01*
X199940Y199990D02*
Y287050D01*
X524803*
Y199990*
X199940*
G54D33*
X229490Y234047D03*
Y226173D03*
G54D34*
X284607Y274650D03*
X290513D03*
X347167Y219450D03*
X353073D03*
G54D35*
X322784Y277870D03*
X334596D03*
X257246Y244780D03*
X245434D03*
G54D40*
X310080Y275467D03*
Y281373D03*
X491740Y240637D03*
Y246543D03*
G54D49*
X396560Y210819D03*
Y204910D03*
Y276041D03*
Y281950D03*
X260180Y232139D03*
Y226230D03*
X420380Y251349D03*
Y245440D03*
Y265289D03*
Y259380D03*
Y241079D03*
Y235170D03*
X396520Y245419D03*
Y239510D03*
X396600Y255741D03*
Y261650D03*
X497730Y243599D03*
Y237690D03*
Y255349D03*
Y249440D03*
X503960Y237721D03*
Y243630D03*
X503880Y255349D03*
Y249440D03*
X459040Y259611D03*
Y265520D03*
Y245181D03*
Y251090D03*
Y230911D03*
Y236820D03*
G54D59*
X415720Y216234D03*
X408240D03*
Y206786D03*
X415720D03*
G54D60*
X411980Y216234D03*
G54D151*
X251110Y233920D03*
X239310D03*
G54D152*
X245210Y222270D03*
G54D153*
X285090Y228486D03*
X290090D03*
X295090D03*
X300090D03*
X305090D03*
X310090D03*
X315090D03*
X320090D03*
X325090D03*
X330090D03*
X335090D03*
X340090D03*
X345090D03*
X350106D03*
X350090Y266674D03*
X345090D03*
X340090D03*
X335090D03*
X330090D03*
X325090D03*
X320090D03*
X315090D03*
X310090D03*
X305090D03*
X300090D03*
X295090D03*
X290090D03*
X285090D03*
G54D163*
X317191Y211810D03*
X329789D03*
G54D164*
X323490D03*
G54D165*
X484850Y240951D03*
Y243510D03*
Y246069D03*
X477370D03*
Y243510D03*
Y240951D03*
G54D166*
X481110Y243510D03*
X0Y0D02*
M02*
