*
*
G04 PADS 9.5 Build Number: 522968 generated Gerber (RS-274-X) file*
G04 PC Version=2.1*
*
%IN "PIC32USB_01.pcb"*%
*
%MOIN*%
*
%FSLAX35Y35*%
*
*
*
*
G04 PC Standard Apertures*
*
*
G04 Thermal Relief Aperture macro.*
%AMTER*
1,1,$1,0,0*
1,0,$1-$2,0,0*
21,0,$3,$4,0,0,45*
21,0,$3,$4,0,0,135*
%
*
*
G04 Annular Aperture macro.*
%AMANN*
1,1,$1,0,0*
1,0,$2,0,0*
%
*
*
G04 Odd Aperture macro.*
%AMODD*
1,1,$1,0,0*
1,0,$1-0.005,0,0*
%
*
*
G04 PC Custom Aperture Macros*
*
*
*
*
*
*
G04 PC Aperture Table*
*
%ADD010C,0.001*%
%ADD032C,0.01*%
%ADD068C,0.006*%
%ADD071C,0.007*%
%ADD130C,0.01181*%
%ADD132C,0.00787*%
%ADD141C,0.00591*%
*
*
*
*
G04 PC Circuitry*
G04 Layer Name PIC32USB_01.pcb - circuitry*
%LPD*%
*
*
G04 PC Custom Flashes*
G04 Layer Name PIC32USB_01.pcb - flashes*
%LPD*%
*
*
G04 PC Circuitry*
G04 Layer Name PIC32USB_01.pcb - circuitry*
%LPD*%
*
G54D10*
G54D32*
G01X199940Y199990D02*
Y287050D01*
X524803*
Y199990*
X199940*
G54D68*
X232640Y236606D02*
Y223614D01*
X226340*
Y236606*
X232640*
X308111Y273302D02*
Y283538D01*
X312049*
Y273302*
X308111*
X282442Y276619D02*
X292678D01*
Y272681*
X282442*
Y276619*
X320029Y281610D02*
X337351D01*
Y274130*
X320029*
Y281610*
X260001Y241040D02*
X242679D01*
Y248520*
X260001*
Y241040*
X398922Y202792D02*
X394198D01*
X398800Y212181D02*
Y203581D01*
X394400*
Y212181*
X398800*
X394198Y284068D02*
X398922D01*
X394320Y274679D02*
Y283279D01*
X398720*
Y274679*
X394320*
X200110Y268834D02*
X220810D01*
Y221834*
X200110*
Y268834*
X200210D02*
X200110D01*
Y221834*
X200410*
X220810Y249234D02*
Y245334D01*
X268894Y271808D02*
G75*
G03X264761Y267674I0J-4134D01*
G01X268894Y271808D02*
X270627D01*
X274761Y267674D02*
G03X270627Y271808I-4134J0D01*
G01X274761Y267674D02*
Y225208D01*
X270627Y221074D02*
G03X274761Y225208I-0J4134D01*
G01X270627Y221074D02*
X268894D01*
X264761Y225208D02*
G03X268894Y221074I4133J-0D01*
G01X264761Y225208D02*
Y267674D01*
X264643Y267917D02*
Y273232D01*
X274879*
Y267209*
X376044Y271028D02*
G03X371911Y266894I0J-4134D01*
G01X376044Y271028D02*
X377777D01*
X381911Y266894D02*
G03X377777Y271028I-4134J0D01*
G01X381911Y266894D02*
Y224428D01*
X377777Y220294D02*
G03X381911Y224428I-0J4134D01*
G01X377777Y220294D02*
X376044D01*
X371911Y224428D02*
G03X376044Y220294I4133J-0D01*
G01X371911Y224428D02*
Y266894D01*
X371793Y267137D02*
Y272452D01*
X382029*
Y266429*
X335711Y207684D02*
G03X339845Y203550I4134J-0D01*
G01X335711Y207684D02*
Y209495D01*
X339845Y213629D02*
G03X335711Y209495I-0J-4134D01*
G01X339845Y213629D02*
X362003D01*
X366137Y209495D02*
G03X362003Y213629I-4134J-0D01*
G01X366137Y209495D02*
Y207684D01*
X362003Y203550D02*
G03X366137Y207684I-0J4134D01*
G01X362003Y203550D02*
X339845D01*
X411034Y271028D02*
G03X406901Y266894I0J-4134D01*
G01X411034Y271028D02*
X412767D01*
X416901Y266894D02*
G03X412767Y271028I-4134J0D01*
G01X416901Y266894D02*
Y224428D01*
X412767Y220294D02*
G03X416901Y224428I-0J4134D01*
G01X412767Y220294D02*
X411034D01*
X406901Y224428D02*
G03X411034Y220294I4133J-0D01*
G01X406901Y224428D02*
Y266894D01*
X406783Y267137D02*
Y272452D01*
X417019*
Y266429*
X386044Y271028D02*
G03X381911Y266894I0J-4134D01*
G01X386044Y271028D02*
X387777D01*
X391911Y266894D02*
G03X387777Y271028I-4134J0D01*
G01X391911Y266894D02*
Y224428D01*
X387777Y220294D02*
G03X391911Y224428I-0J4134D01*
G01X387777Y220294D02*
X386044D01*
X381911Y224428D02*
G03X386044Y220294I4133J-0D01*
G01X381911Y224428D02*
Y266894D01*
X381793Y267137D02*
Y272452D01*
X392029*
Y266429*
X255210Y231920D02*
Y218920D01*
X251210*
X235210Y231920D02*
Y218920D01*
X239210*
X281960Y262541D02*
Y232619D01*
X353220*
Y262541*
X281960*
X282112Y237148D02*
X353093D01*
X285838Y234928D02*
G03X285838I-500J0D01*
G01X283184Y228197D02*
G03X283184I-500J0D01*
G01X345002Y221419D02*
X355238D01*
Y217481*
X345002*
Y221419*
X447734Y270978D02*
G03X443601Y266844I0J-4134D01*
G01X447734Y270978D02*
X449467D01*
X453601Y266844D02*
G03X449467Y270978I-4134J0D01*
G01X453601Y266844D02*
Y224378D01*
X449467Y220244D02*
G03X453601Y224378I-0J4134D01*
G01X449467Y220244D02*
X447734D01*
X443601Y224378D02*
G03X447734Y220244I4133J-0D01*
G01X443601Y224378D02*
Y266844D01*
X443483Y267087D02*
Y272402D01*
X453719*
Y266379*
X515484Y270978D02*
G03X511351Y266844I0J-4134D01*
G01X515484Y270978D02*
X517217D01*
X521351Y266844D02*
G03X517217Y270978I-4134J0D01*
G01X521351Y266844D02*
Y224378D01*
X517217Y220244D02*
G03X521351Y224378I-0J4134D01*
G01X517217Y220244D02*
X515484D01*
X511351Y224378D02*
G03X515484Y220244I4133J-0D01*
G01X511351Y224378D02*
Y266844D01*
X511233Y267087D02*
Y272402D01*
X521469*
Y266379*
X489771Y238472D02*
Y248708D01*
X493709*
Y238472*
X489771*
X486346Y239258D02*
X475992D01*
X486336Y239865D02*
X475952D01*
Y247148*
X486336*
Y239865*
X229005Y220770D02*
X228891Y221083D01*
X228891D02*
X228664Y221395D01*
X228436Y221551*
X227982*
X227755Y221395*
X227527Y221083*
X227527D02*
X227414Y220770D01*
X227300Y220301*
Y219520*
X227414Y219051*
X227527Y218739*
X227755Y218426*
X227982Y218270*
X228436*
X228664Y218426*
X228891Y218739*
X229005Y219051*
X230027Y220926D02*
X230255Y221083D01*
X230255D02*
X230595Y221551D01*
Y218270*
X303875Y282020D02*
X303761Y282332D01*
X303761D02*
X303534Y282645D01*
X303306Y282801*
X302852*
X302625Y282645*
X302397Y282332*
X302397D02*
X302284Y282020D01*
X302170Y281551*
Y280770*
X302284Y280301*
X302397Y279989*
X302625Y279676*
X302852Y279520*
X303306*
X303534Y279676*
X303761Y279989*
X303875Y280301*
X305011Y282020D02*
Y282176D01*
X305125Y282489*
X305238Y282645*
X305465Y282801*
X305920*
X306147Y282645*
X306261Y282489*
X306375Y282176*
Y281864*
X306261Y281551*
X306034Y281082*
X306034D02*
X304897Y279520D01*
X306488*
X284175Y280610D02*
X284061Y280923D01*
X284061D02*
X283834Y281235D01*
X283606Y281391*
X283152*
X282925Y281235*
X282697Y280923*
X282697D02*
X282584Y280610D01*
X282470Y280141*
Y279360*
X282584Y278891*
X282697Y278579*
X282925Y278266*
X283152Y278110*
X283606*
X283834Y278266*
X284061Y278579*
X284175Y278891*
X285425Y281391D02*
X286675D01*
X285993Y280141*
X286334*
X286561Y279985*
X286675Y279829*
X286788Y279360*
Y279048*
X286788D02*
X286675Y278579D01*
X286447Y278266*
X286106Y278110*
X285765*
X285425Y278266*
X285311Y278423*
X285311D02*
X285197Y278735D01*
X341085Y280350D02*
X340971Y280663D01*
X340971D02*
X340744Y280975D01*
X340516Y281131*
X340062*
X339835Y280975*
X339607Y280663*
X339607D02*
X339494Y280350D01*
X339380Y279881*
Y279100*
X339494Y278631*
X339607Y278319*
X339835Y278006*
X340062Y277850*
X340516*
X340744Y278006*
X340971Y278319*
X341085Y278631*
X343244Y281131D02*
X342107Y278944D01*
X343812*
X343244Y281131D02*
Y277850D01*
X244775Y253320D02*
X244661Y253632D01*
X244661D02*
X244434Y253945D01*
X244206Y254101*
X243752*
X243525Y253945*
X243297Y253632*
X243297D02*
X243184Y253320D01*
X243070Y252851*
Y252070*
X243184Y251601*
X243297Y251289*
X243525Y250976*
X243752Y250820*
X244206*
X244434Y250976*
X244661Y251289*
X244775Y251601*
X247275Y254101D02*
X246138D01*
X246025Y252695*
X246138Y252851*
X246479Y253007*
X246479D02*
X246820D01*
X246820D02*
X247161Y252851D01*
X247388Y252539*
X247502Y252070*
X247388Y251757*
X247388D02*
X247275Y251289D01*
X247047Y250976*
X246706Y250820*
X246365*
X246025Y250976*
X245911Y251132*
X245911D02*
X245797Y251445D01*
X389000Y211851D02*
Y208570D01*
Y211851D02*
X389795D01*
X390136Y211695*
X390364Y211382*
X390364D02*
X390477Y211070D01*
X390591Y210601*
Y209820*
X390477Y209351*
X390364Y209039*
X390136Y208726*
X389795Y208570*
X389000*
X391614Y211226D02*
X391841Y211382D01*
X391841D02*
X392182Y211851D01*
Y208570*
X400470Y283251D02*
Y279970D01*
Y283251D02*
X401265D01*
X401606Y283095*
X401834Y282783*
X401834D02*
X401947Y282470D01*
X402061Y282001*
Y281220*
X401947Y280751*
X401834Y280439*
X401606Y280126*
X401265Y279970*
X400470*
X403197Y282470D02*
Y282626D01*
X403311Y282939*
X403425Y283095*
X403652Y283251*
X404106*
X404334Y283095*
X404447Y282939*
X404561Y282626*
Y282314*
X404447Y282001*
X404220Y281533*
X404220D02*
X403084Y279970D01*
X404675*
X209636Y277951D02*
Y275451D01*
X209523Y274983*
X209523D02*
X209409Y274826D01*
X209182Y274670*
X208955*
X208727Y274826*
X208614Y274983*
X208614D02*
X208500Y275451D01*
Y275764*
X210659Y277326D02*
X210886Y277483D01*
X210886D02*
X211227Y277951D01*
Y274670*
X268666Y279161D02*
Y276661D01*
X268553Y276193*
X268553D02*
X268439Y276036D01*
X268212Y275880*
X267985*
X267757Y276036*
X267644Y276193*
X267644D02*
X267530Y276661D01*
Y276974*
X269803Y278380D02*
Y278536D01*
X269916Y278849*
X270030Y279005*
X270257Y279161*
X270712*
X270939Y279005*
X271053Y278849*
X271166Y278536*
Y278224*
X271053Y277911*
X270825Y277443*
X270825D02*
X269689Y275880D01*
X271280*
X375040Y277881D02*
Y274600D01*
Y277881D02*
X376063D01*
X376404Y277725*
X376517Y277569*
X376631Y277256*
Y276788*
X376631D02*
X376517Y276475D01*
X376404Y276319*
X376063Y276163*
X376063D02*
X375040D01*
X377654Y277256D02*
X377881Y277413D01*
X377881D02*
X378222Y277881D01*
Y274600*
X367730Y209631D02*
Y206350D01*
Y209631D02*
X368753D01*
X369094Y209475*
X369207Y209319*
X369321Y209006*
Y208538*
X369207Y208225*
X369094Y208069*
X368753Y207913*
X367730*
X370457Y208850D02*
Y209006D01*
X370571Y209319*
X370685Y209475*
X370912Y209631*
X371366*
X371594Y209475*
X371707Y209319*
X371821Y209006*
Y208694*
X371707Y208381*
X371480Y207913*
X370344Y206350*
X371935*
X409700Y277651D02*
Y274370D01*
Y277651D02*
X410723D01*
X411064Y277495*
X411177Y277339*
X411291Y277026*
Y276558*
X411291D02*
X411177Y276245D01*
X411064Y276089*
X410723Y275933*
X410723D02*
X409700D01*
X412541Y277651D02*
X413791D01*
X413109Y276401*
X413450*
X413677Y276245*
X413791Y276089*
X413905Y275620*
Y275308*
X413905D02*
X413791Y274839D01*
X413564Y274526*
X413223Y274370*
X412882*
X412541Y274526*
X412427Y274683*
X412427D02*
X412314Y274995D01*
X384960Y277881D02*
Y274600D01*
Y277881D02*
X385983D01*
X386324Y277725*
X386437Y277569*
X386551Y277256*
Y276788*
X386551D02*
X386437Y276475D01*
X386324Y276319*
X385983Y276163*
X385983D02*
X384960D01*
X388710Y277881D02*
X387574Y275694D01*
X389278*
X388710Y277881D02*
Y274600D01*
X258630Y222771D02*
Y219490D01*
Y222771D02*
X259653D01*
X259994Y222615*
X260107Y222459*
X260221Y222146*
Y221834*
X260107Y221521*
X259994Y221365*
X259653Y221209*
X258630*
X259425D02*
X260221Y219490D01*
X261244Y222146D02*
X261471Y222303D01*
X261471D02*
X261812Y222771D01*
Y219490*
X418550Y256991D02*
Y253710D01*
Y256991D02*
X419573D01*
X419914Y256835*
X420027Y256679*
X420141Y256366*
Y256054*
X420027Y255741*
X419914Y255585*
X419573Y255429*
X418550*
X419345D02*
X420141Y253710D01*
X421277Y256210D02*
Y256366D01*
X421391Y256679*
X421505Y256835*
X421732Y256991*
X422186*
X422414Y256835*
X422527Y256679*
X422641Y256366*
Y256054*
X422527Y255741*
X422300Y255272*
X422300D02*
X421164Y253710D01*
X422755*
X419040Y270841D02*
Y267560D01*
Y270841D02*
X420063D01*
X420404Y270685*
X420517Y270529*
X420631Y270216*
Y269904*
X420517Y269591*
X420404Y269435*
X420063Y269279*
X419040*
X419835D02*
X420631Y267560D01*
X421881Y270841D02*
X423131D01*
X422449Y269591*
X422790*
X423017Y269435*
X423131Y269279*
X423245Y268810*
Y268498*
X423245D02*
X423131Y268029D01*
X422904Y267716*
X422563Y267560*
X422222*
X421881Y267716*
X421767Y267873*
X421767D02*
X421654Y268185D01*
X418470Y232221D02*
Y228940D01*
Y232221D02*
X419493D01*
X419834Y232065*
X419947Y231909*
X420061Y231596*
Y231284*
X419947Y230971*
X419834Y230815*
X419493Y230659*
X418470*
X419265D02*
X420061Y228940D01*
X422220Y232221D02*
X421084Y230034D01*
X422788*
X422220Y232221D02*
Y228940D01*
X394660Y236111D02*
Y232830D01*
Y236111D02*
X395683D01*
X396024Y235955*
X396137Y235799*
X396251Y235486*
Y235174*
X396137Y234861*
X396024Y234705*
X395683Y234549*
X394660*
X395455D02*
X396251Y232830D01*
X398751Y236111D02*
X397615D01*
X397501Y234705*
X397615Y234861*
X397955Y235018*
X397955D02*
X398296D01*
X398296D02*
X398637Y234861D01*
X398865Y234549*
X398978Y234080*
X398865Y233768*
X398865D02*
X398751Y233299D01*
X398524Y232986*
X398183Y232830*
X397842*
X397501Y232986*
X397387Y233143*
X397387D02*
X397274Y233455D01*
X394610Y267401D02*
Y264120D01*
Y267401D02*
X395633D01*
X395974Y267245*
X396087Y267089*
X396201Y266776*
Y266464*
X396087Y266151*
X395974Y265995*
X395633Y265839*
X394610*
X395405D02*
X396201Y264120D01*
X398587Y266933D02*
X398474Y267245D01*
X398133Y267401*
X397905*
X397565Y267245*
X397337Y266776*
X397224Y265995*
Y265214*
X397337Y264589*
X397565Y264276*
X397905Y264120*
X398019*
X398360Y264276*
X398587Y264589*
X398701Y265058*
X398701D02*
Y265214D01*
X398587Y265683*
X398587D02*
X398360Y265995D01*
X398019Y266151*
X397905*
X397565Y265995*
X397337Y265683*
X397337D02*
X397224Y265214D01*
X251350Y215491D02*
Y213148D01*
X251350D02*
X251464Y212679D01*
X251691Y212366*
X252032Y212210*
X252259*
X252600Y212366*
X252827Y212679*
X252941Y213148*
X252941D02*
Y215491D01*
X253964Y214866D02*
X254191Y215023D01*
X254191D02*
X254532Y215491D01*
Y212210*
X277830Y222561D02*
Y220218D01*
X277830D02*
X277944Y219749D01*
X278171Y219436*
X278512Y219280*
X278739*
X279080Y219436*
X279307Y219749*
X279421Y220218*
X279421D02*
Y222561D01*
X280557Y221780D02*
Y221936D01*
X280671Y222249*
X280785Y222405*
X281012Y222561*
X281466*
X281694Y222405*
X281807Y222249*
X281921Y221936*
Y221624*
X281807Y221311*
X281580Y220843*
X281580D02*
X280444Y219280D01*
X282035*
X308560Y210441D02*
X309469Y208879D01*
Y207160*
X310378Y210441D02*
X309469Y208879D01*
X311401Y209816D02*
X311628Y209973D01*
X311628D02*
X311969Y210441D01*
Y207160*
X355275Y225330D02*
X355161Y225643D01*
X355161D02*
X354934Y225955D01*
X354706Y226111*
X354252*
X354025Y225955*
X353797Y225643*
X353797D02*
X353684Y225330D01*
X353570Y224861*
Y224080*
X353684Y223611*
X353797Y223299*
X354025Y222986*
X354252Y222830*
X354706*
X354934Y222986*
X355161Y223299*
X355275Y223611*
X357661Y225643D02*
X357547Y225955D01*
X357206Y226111*
X356979*
X356638Y225955*
X356411Y225486*
X356297Y224705*
Y223924*
X356411Y223299*
X356638Y222986*
X356979Y222830*
X357093*
X357434Y222986*
X357661Y223299*
X357775Y223768*
X357775D02*
Y223924D01*
X357661Y224393*
X357661D02*
X357434Y224705D01*
X357093Y224861*
X356979*
X356638Y224705*
X356411Y224393*
X356411D02*
X356297Y223924D01*
X454980Y276931D02*
Y273650D01*
Y276931D02*
X456003D01*
X456344Y276775*
X456457Y276619*
X456571Y276306*
Y275838*
X456571D02*
X456457Y275525D01*
X456344Y275369*
X456003Y275213*
X456003D02*
X454980D01*
X459071Y276931D02*
X457935D01*
X457821Y275525*
X457935Y275681*
X458275Y275838*
X458275D02*
X458616D01*
X458616D02*
X458957Y275681D01*
X459185Y275369*
X459298Y274900*
X459185Y274588*
X459185D02*
X459071Y274119D01*
X458844Y273806*
X458503Y273650*
X458162*
X457821Y273806*
X457707Y273963*
X457707D02*
X457594Y274275D01*
X506760Y277121D02*
Y273840D01*
Y277121D02*
X507783D01*
X508124Y276965*
X508237Y276809*
X508351Y276496*
Y276028*
X508351D02*
X508237Y275715D01*
X508124Y275559*
X507783Y275403*
X507783D02*
X506760D01*
X510737Y276653D02*
X510624Y276965D01*
X510283Y277121*
X510055*
X509715Y276965*
X509487Y276496*
X509374Y275715*
Y274934*
X509487Y274309*
X509715Y273996*
X510055Y273840*
X510169*
X510510Y273996*
X510737Y274309*
X510851Y274778*
X510851D02*
Y274934D01*
X510737Y275403*
X510737D02*
X510510Y275715D01*
X510169Y275871*
X510055*
X509715Y275715*
X509487Y275403*
X509487D02*
X509374Y274934D01*
X488395Y236210D02*
X488281Y236523D01*
X488281D02*
X488054Y236835D01*
X487826Y236991*
X487372*
X487145Y236835*
X486917Y236523*
X486917D02*
X486804Y236210D01*
X486690Y235741*
Y234960*
X486804Y234491*
X486917Y234179*
X487145Y233866*
X487372Y233710*
X487826*
X488054Y233866*
X488281Y234179*
X488395Y234491*
X491008Y236991D02*
X489872Y233710D01*
X489417Y236991D02*
X491008D01*
X492860Y234381D02*
Y231100D01*
Y234381D02*
X493883D01*
X494224Y234225*
X494337Y234069*
X494451Y233756*
Y233444*
X494337Y233131*
X494224Y232975*
X493883Y232819*
X492860*
X493655D02*
X494451Y231100D01*
X495474Y233756D02*
X495701Y233913D01*
X495701D02*
X496042Y234381D01*
Y231100*
X497746Y234381D02*
X497405Y234225D01*
X497178Y233756*
X497065Y232975*
Y232506*
X497178Y231725*
X497405Y231256*
X497746Y231100*
X497974*
X498315Y231256*
X498542Y231725*
X498655Y232506*
Y232975*
X498542Y233756*
X498315Y234225*
X497974Y234381*
X497746*
X489130Y257301D02*
Y254020D01*
Y257301D02*
X490153D01*
X490494Y257145*
X490607Y256989*
X490721Y256676*
Y256364*
X490607Y256051*
X490494Y255895*
X490153Y255739*
X489130*
X489925D02*
X490721Y254020D01*
X491744Y256676D02*
X491971Y256832D01*
X491971D02*
X492312Y257301D01*
Y254020*
X493335Y256676D02*
X493562Y256832D01*
X493562D02*
X493903Y257301D01*
Y254020*
X500450Y234251D02*
Y230970D01*
Y234251D02*
X501473D01*
X501814Y234095*
X501927Y233939*
X502041Y233626*
Y233314*
X501927Y233001*
X501814Y232845*
X501473Y232689*
X500450*
X501245D02*
X502041Y230970D01*
X503064Y233626D02*
X503291Y233783D01*
X503291D02*
X503632Y234251D01*
Y230970*
X504768Y233470D02*
Y233626D01*
X504882Y233939*
X504995Y234095*
X505223Y234251*
X505677*
X505905Y234095*
X506018Y233939*
X506132Y233626*
Y233314*
X506018Y233001*
X505791Y232533*
X505791D02*
X504655Y230970D01*
X506245*
X500580Y261421D02*
Y258140D01*
Y261421D02*
X501603D01*
X501944Y261265*
X502057Y261109*
X502171Y260796*
Y260484*
X502057Y260171*
X501944Y260015*
X501603Y259859*
X500580*
X501375D02*
X502171Y258140D01*
X503194Y260796D02*
X503421Y260953D01*
X503421D02*
X503762Y261421D01*
Y258140*
X505012Y261421D02*
X506262D01*
X505580Y260171*
X505921*
X506148Y260015*
X506262Y259859*
X506375Y259390*
Y259078*
X506375D02*
X506262Y258609D01*
X506035Y258296*
X505694Y258140*
X505353*
X505012Y258296*
X504898Y258453*
X504898D02*
X504785Y258765D01*
X462570Y266881D02*
Y263600D01*
Y266881D02*
X463593D01*
X463934Y266725*
X464047Y266569*
X464161Y266256*
Y265944*
X464047Y265631*
X463934Y265475*
X463593Y265319*
X462570*
X463365D02*
X464161Y263600D01*
X466775Y266881D02*
X465638Y263600D01*
X465184Y266881D02*
X466775D01*
X462450Y252461D02*
Y249180D01*
Y252461D02*
X463473D01*
X463814Y252305*
X463927Y252149*
X464041Y251836*
Y251524*
X463927Y251211*
X463814Y251055*
X463473Y250899*
X462450*
X463245D02*
X464041Y249180D01*
X465632Y252461D02*
X465291Y252305D01*
X465177Y251993*
X465177D02*
Y251680D01*
X465291Y251368*
X465291D02*
X465518Y251211D01*
X465973Y251055*
X466314Y250899*
X466541Y250586*
X466655Y250274*
Y249805*
X466541Y249493*
X466541D02*
X466427Y249336D01*
X466086Y249180*
X465632*
X465291Y249336*
X465177Y249493*
X465177D02*
X465064Y249805D01*
Y250274*
X465177Y250586*
X465405Y250899*
X465745Y251055*
X466200Y251211*
X466427Y251368*
X466427D02*
X466541Y251680D01*
Y251993*
X466541D02*
X466427Y252305D01*
X466086Y252461*
X465632*
X462450Y237921D02*
Y234640D01*
Y237921D02*
X463473D01*
X463814Y237765*
X463927Y237609*
X464041Y237296*
Y236984*
X463927Y236671*
X463814Y236515*
X463473Y236359*
X462450*
X463245D02*
X464041Y234640D01*
X466541Y236828D02*
X466427Y236359D01*
X466200Y236046*
X465859Y235890*
X465745*
X465405Y236046*
X465177Y236359*
X465064Y236828*
X465064D02*
Y236984D01*
X465177Y237453*
X465177D02*
X465405Y237765D01*
X465745Y237921*
X465859*
X466200Y237765*
X466427Y237453*
X466427D02*
X466541Y236828D01*
X466541D02*
Y236046D01*
X466427Y235265*
X466200Y234796*
X465859Y234640*
X465632*
X465291Y234796*
X465177Y235109*
X478880Y251901D02*
Y249558D01*
X478880D02*
X478994Y249089D01*
X479221Y248776*
X479562Y248620*
X479789*
X480130Y248776*
X480357Y249089*
X480471Y249558*
X480471D02*
Y251901D01*
X481721D02*
X482971D01*
X482289Y250651*
X482630*
X482857Y250495*
X482971Y250339*
X483085Y249870*
Y249558*
X483085D02*
X482971Y249089D01*
X482744Y248776*
X482403Y248620*
X482062*
X481721Y248776*
X481607Y248933*
X481607D02*
X481494Y249245D01*
X419370Y212211D02*
Y209868D01*
X419370D02*
X419484Y209399D01*
X419711Y209086*
X420052Y208930*
X420279*
X420620Y209086*
X420847Y209399*
X420961Y209868*
X420961D02*
Y212211D01*
X423461D02*
X422325D01*
X422211Y210805*
X422325Y210961*
X422665Y211118*
X422665D02*
X423006D01*
X423006D02*
X423347Y210961D01*
X423575Y210649*
X423688Y210180*
X423575Y209868*
X423575D02*
X423461Y209399D01*
X423234Y209086*
X422893Y208930*
X422552*
X422211Y209086*
X422097Y209243*
X422097D02*
X421984Y209555D01*
X402887Y234611D02*
X402575Y234384D01*
X402419Y234043*
Y233588*
X402575Y233247*
X402887Y233020*
X402887D02*
X403200D01*
X403512Y233134*
X403512D02*
X403669Y233247D01*
X403825Y233475*
X404137Y234156*
X404137D02*
X404294Y234384D01*
X404450Y234497*
X404762Y234611*
X404762D02*
X405231D01*
X405544Y234384*
X405700Y234043*
Y233588*
X405544Y233247*
X405231Y233020*
X402419Y235634D02*
X405700D01*
X402419D02*
Y236429D01*
X402575Y236770*
X402887Y236997*
X402887D02*
X403200Y237111D01*
X403669Y237225*
X404450*
X404919Y237111*
X405231Y236997*
X405544Y236770*
X405700Y236429*
Y235634*
X402419Y239156D02*
X405700Y238247D01*
X402419Y239156D02*
X405700Y240065D01*
X404606Y238588D02*
Y239725D01*
X402419Y262957D02*
Y264207D01*
X403669Y263525*
Y263866*
X403825Y264094*
X403981Y264207*
X404450Y264321*
X404762*
X404762D02*
X405231Y264207D01*
X405544Y263980*
X405700Y263639*
Y263298*
X405544Y262957*
X405387Y262844*
X405387D02*
X405075Y262730D01*
X402419Y265344D02*
X405700Y266253D01*
X402419Y267162D02*
X405700Y266253D01*
X402419Y268412D02*
Y269662D01*
X403669Y268980*
Y269321*
X403825Y269548*
X403981Y269662*
X404450Y269775*
X404762*
X404762D02*
X405231Y269662D01*
X405544Y269435*
X405700Y269094*
Y268753*
X405544Y268412*
X405387Y268298*
X405387D02*
X405075Y268185D01*
X402527Y254911D02*
X402215Y254684D01*
X402059Y254343*
Y253888*
X402215Y253547*
X402527Y253320*
X402527D02*
X402840D01*
X403152Y253434*
X403152D02*
X403309Y253547D01*
X403465Y253775*
X403777Y254456*
X403777D02*
X403934Y254684D01*
X404090Y254797*
X404402Y254911*
X404402D02*
X404871D01*
X405184Y254684*
X405340Y254343*
Y253888*
X405184Y253547*
X404871Y253320*
X402840Y257638D02*
X402527Y257525D01*
X402527D02*
X402215Y257297D01*
X402059Y257070*
Y256615*
X402215Y256388*
X402527Y256161*
X402527D02*
X402840Y256047D01*
X403309Y255934*
X404090*
X404559Y256047*
X404871Y256161*
X405184Y256388*
X405340Y256615*
Y257070*
X405184Y257297*
X404871Y257525*
X404559Y257638*
X402059Y258661D02*
X405340D01*
Y260025*
X402419Y243780D02*
X405700D01*
X402419Y244803D02*
X405700D01*
X402419D02*
X405700Y246394D01*
X402419D02*
X405700D01*
X402419Y248212D02*
X405700D01*
X402419Y247416D02*
Y249007D01*
X403330Y224085D02*
X403017Y223971D01*
X403017D02*
X402705Y223744D01*
X402549Y223516*
Y223062*
X402705Y222835*
X403017Y222607*
X403017D02*
X403330Y222494D01*
X403799Y222380*
X404580*
X405049Y222494*
X405361Y222607*
X405674Y222835*
X405830Y223062*
Y223516*
X405674Y223744*
X405361Y223971*
X405049Y224085*
X404580*
Y223516D02*
Y224085D01*
X402549Y225107D02*
X405830D01*
X402549D02*
X405830Y226698D01*
X402549D02*
X405830D01*
X402549Y227721D02*
X405830D01*
X402549D02*
Y228516D01*
X402705Y228857*
X403017Y229085*
X403017D02*
X403330Y229198D01*
X403799Y229312*
X404580*
X405049Y229198*
X405361Y229085*
X405674Y228857*
X405830Y228516*
Y227721*
X507469Y261707D02*
Y262957D01*
X508719Y262275*
Y262616*
X508875Y262844*
X509031Y262957*
X509500Y263071*
X509812*
X509812D02*
X510281Y262957D01*
X510594Y262730*
X510750Y262389*
Y262048*
X510594Y261707*
X510437Y261594*
X510437D02*
X510125Y261480D01*
X507469Y264094D02*
X510750Y265003D01*
X507469Y265912D02*
X510750Y265003D01*
X507469Y267162D02*
Y268412D01*
X508719Y267730*
Y268071*
X508875Y268298*
X509031Y268412*
X509500Y268525*
X509812*
X509812D02*
X510281Y268412D01*
X510594Y268185*
X510750Y267844*
Y267503*
X510594Y267162*
X510437Y267048*
X510437D02*
X510125Y266935D01*
X507817Y254321D02*
X507505Y254094D01*
X507349Y253753*
Y253298*
X507505Y252957*
X507817Y252730*
X507817D02*
X508130D01*
X508442Y252844*
X508442D02*
X508599Y252957D01*
X508755Y253185*
X509067Y253866*
X509067D02*
X509224Y254094D01*
X509380Y254207*
X509692Y254321*
X509692D02*
X510161D01*
X510474Y254094*
X510630Y253753*
Y253298*
X510474Y252957*
X510161Y252730*
X508130Y257048D02*
X507817Y256935D01*
X507817D02*
X507505Y256707D01*
X507349Y256480*
Y256025*
X507505Y255798*
X507817Y255571*
X507817D02*
X508130Y255457D01*
X508599Y255344*
X509380*
X509849Y255457*
X510161Y255571*
X510474Y255798*
X510630Y256025*
Y256480*
X510474Y256707*
X510161Y256935*
X509849Y257048*
X507349Y258071D02*
X510630D01*
Y259435*
X507219Y243970D02*
X510500D01*
X507219Y244993D02*
X510500D01*
X507219D02*
X510500Y246584D01*
X507219D02*
X510500D01*
X507219Y248402D02*
X510500D01*
X507219Y247606D02*
Y249197D01*
X507817Y234111D02*
X507505Y233884D01*
X507349Y233543*
Y233088*
X507505Y232747*
X507817Y232520*
X507817D02*
X508130D01*
X508442Y232634*
X508442D02*
X508599Y232747D01*
X508755Y232975*
X509067Y233656*
X509067D02*
X509224Y233884D01*
X509380Y233997*
X509692Y234111*
X509692D02*
X510161D01*
X510474Y233884*
X510630Y233543*
Y233088*
X510474Y232747*
X510161Y232520*
X507349Y235134D02*
X510630D01*
X507349D02*
Y235929D01*
X507505Y236270*
X507817Y236497*
X507817D02*
X508130Y236611D01*
X508599Y236725*
X509380*
X509849Y236611*
X510161Y236497*
X510474Y236270*
X510630Y235929*
Y235134*
X507349Y238656D02*
X510630Y237747D01*
X507349Y238656D02*
X510630Y239565D01*
X509536Y238088D02*
Y239225D01*
X507920Y224165D02*
X507607Y224051D01*
X507607D02*
X507295Y223824D01*
X507139Y223596*
Y223142*
X507295Y222915*
X507607Y222687*
X507607D02*
X507920Y222574D01*
X508389Y222460*
X509170*
X509639Y222574*
X509951Y222687*
X510264Y222915*
X510420Y223142*
Y223596*
X510264Y223824*
X509951Y224051*
X509639Y224165*
X509170*
Y223596D02*
Y224165D01*
X507139Y225187D02*
X510420D01*
X507139D02*
X510420Y226778D01*
X507139D02*
X510420D01*
X507139Y227801D02*
X510420D01*
X507139D02*
Y228596D01*
X507295Y228937*
X507607Y229165*
X507607D02*
X507920Y229278D01*
X508389Y229392*
X509170*
X509639Y229278*
X509951Y229165*
X510264Y228937*
X510420Y228596*
Y227801*
X440350Y223875D02*
X440037Y223761D01*
X440037D02*
X439725Y223534D01*
X439569Y223306*
Y222852*
X439725Y222625*
X440037Y222397*
X440037D02*
X440350Y222284D01*
X440819Y222170*
X441600*
X442069Y222284*
X442381Y222397*
X442694Y222625*
X442850Y222852*
Y223306*
X442694Y223534*
X442381Y223761*
X442069Y223875*
X441600*
Y223306D02*
Y223875D01*
X439569Y224897D02*
X442850D01*
X439569D02*
X442850Y226488D01*
X439569D02*
X442850D01*
X439569Y227511D02*
X442850D01*
X439569D02*
Y228306D01*
X439725Y228647*
X440037Y228875*
X440037D02*
X440350Y228988D01*
X440819Y229102*
X441600*
X442069Y228988*
X442381Y228875*
X442694Y228647*
X442850Y228306*
Y227511*
X440247Y233821D02*
X439935Y233594D01*
X439779Y233253*
Y232798*
X439935Y232457*
X440247Y232230*
X440247D02*
X440560D01*
X440872Y232344*
X440872D02*
X441029Y232457D01*
X441185Y232685*
X441497Y233366*
X441497D02*
X441654Y233594D01*
X441810Y233707*
X442122Y233821*
X442122D02*
X442591D01*
X442904Y233594*
X443060Y233253*
Y232798*
X442904Y232457*
X442591Y232230*
X439779Y234844D02*
X443060D01*
X439779D02*
Y235639D01*
X439935Y235980*
X440247Y236207*
X440247D02*
X440560Y236321D01*
X441029Y236435*
X441810*
X442279Y236321*
X442591Y236207*
X442904Y235980*
X443060Y235639*
Y234844*
X439779Y238366D02*
X443060Y237457D01*
X439779Y238366D02*
X443060Y239275D01*
X441966Y237798D02*
Y238935D01*
X439649Y243680D02*
X442930D01*
X439649Y244703D02*
X442930D01*
X439649D02*
X442930Y246294D01*
X439649D02*
X442930D01*
X439649Y248112D02*
X442930D01*
X439649Y247316D02*
Y248907D01*
X440247Y254031D02*
X439935Y253804D01*
X439779Y253463*
Y253008*
X439935Y252667*
X440247Y252440*
X440247D02*
X440560D01*
X440872Y252554*
X440872D02*
X441029Y252667D01*
X441185Y252895*
X441497Y253576*
X441497D02*
X441654Y253804D01*
X441810Y253917*
X442122Y254031*
X442122D02*
X442591D01*
X442904Y253804*
X443060Y253463*
Y253008*
X442904Y252667*
X442591Y252440*
X440560Y256758D02*
X440247Y256645D01*
X440247D02*
X439935Y256417D01*
X439779Y256190*
Y255735*
X439935Y255508*
X440247Y255281*
X440247D02*
X440560Y255167D01*
X441029Y255054*
X441810*
X442279Y255167*
X442591Y255281*
X442904Y255508*
X443060Y255735*
Y256190*
X442904Y256417*
X442591Y256645*
X442279Y256758*
X439779Y257781D02*
X443060D01*
Y259145*
X439899Y261417D02*
Y262667D01*
X441149Y261985*
Y262326*
X441305Y262554*
X441461Y262667*
X441930Y262781*
X442242*
X442242D02*
X442711Y262667D01*
X443024Y262440*
X443180Y262099*
Y261758*
X443024Y261417*
X442867Y261304*
X442867D02*
X442555Y261190D01*
X439899Y263804D02*
X443180Y264713D01*
X439899Y265622D02*
X443180Y264713D01*
X439899Y266872D02*
Y268122D01*
X441149Y267440*
Y267781*
X441305Y268008*
X441461Y268122*
X441930Y268235*
X442242*
X442242D02*
X442711Y268122D01*
X443024Y267895*
X443180Y267554*
Y267213*
X443024Y266872*
X442867Y266758*
X442867D02*
X442555Y266645D01*
G54D71*
X315004Y204311D02*
Y219282D01*
X331976*
Y204311*
X315004*
G54D130*
X410405Y208166D02*
X413555D01*
G54D132*
X406382Y214826D02*
X406061D01*
Y208148*
X406445*
X417564Y214874D02*
X417884D01*
Y208196*
X417501*
G54D141*
X262420Y233501D02*
Y224901D01*
X258020*
Y233501*
X262420*
X422620Y252711D02*
Y244111D01*
X418220*
Y252711*
X422620*
Y266651D02*
Y258051D01*
X418220*
Y266651*
X422620*
Y242441D02*
Y233841D01*
X418220*
Y242441*
X422620*
X398760Y246781D02*
Y238181D01*
X394360*
Y246781*
X398760*
X394360Y254379D02*
Y262979D01*
X398760*
Y254379*
X394360*
X499970Y244961D02*
Y236361D01*
X495570*
Y244961*
X499970*
Y256711D02*
Y248111D01*
X495570*
Y256711*
X499970*
X501720Y236359D02*
Y244959D01*
X506120*
Y236359*
X501720*
X506120Y256711D02*
Y248111D01*
X501720*
Y256711*
X506120*
X456800Y258249D02*
Y266849D01*
X461200*
Y258249*
X456800*
Y243819D02*
Y252419D01*
X461200*
Y243819*
X456800*
Y229549D02*
Y238149D01*
X461200*
Y229549*
X456800*
G74*
X0Y0D02*
M02*
