*
*
G04 PADS 9.5 Build Number: 522968 generated Gerber (RS-274-X) file*
G04 PC Version=2.1*
*
%IN "PIC32USB_01.pcb"*%
*
%MOIN*%
*
%FSLAX35Y35*%
*
*
*
*
G04 PC Standard Apertures*
*
*
G04 Thermal Relief Aperture macro.*
%AMTER*
1,1,$1,0,0*
1,0,$1-$2,0,0*
21,0,$3,$4,0,0,45*
21,0,$3,$4,0,0,135*
%
*
*
G04 Annular Aperture macro.*
%AMANN*
1,1,$1,0,0*
1,0,$2,0,0*
%
*
*
G04 Odd Aperture macro.*
%AMODD*
1,1,$1,0,0*
1,0,$1-0.005,0,0*
%
*
*
G04 PC Custom Aperture Macros*
*
*
*
*
*
*
G04 PC Aperture Table*
*
%ADD010C,0.001*%
%ADD032C,0.01*%
%ADD086C,0.024*%
%ADD087R,0.05321X0.04337*%
%ADD088R,0.0355X0.03353*%
%ADD089R,0.04337X0.06699*%
%ADD094R,0.03353X0.0355*%
%ADD096R,0.05124X0.05124*%
%ADD103R,0.03943X0.02369*%
%ADD113R,0.03156X0.04337*%
%ADD114R,0.02762X0.04337*%
%ADD143R,0.05912X0.05912*%
%ADD144C,0.05912*%
%ADD157C,0.05124*%
%ADD158R,0.038X0.054*%
%ADD159C,0.019*%
%ADD160O,0.02447X0.06699*%
%ADD167O,0.10243X0.05124*%
%ADD168R,0.0355X0.1418*%
%ADD169R,0.04337X0.1418*%
%ADD170C,0.094*%
%ADD171O,0.02369X0.01384*%
%ADD172R,0.02959X0.05715*%
*
*
*
*
G04 PC Circuitry*
G04 Layer Name PIC32USB_01.pcb - circuitry*
%LPD*%
*
*
G04 PC Custom Flashes*
G04 Layer Name PIC32USB_01.pcb - flashes*
%LPD*%
*
*
G04 PC Circuitry*
G04 Layer Name PIC32USB_01.pcb - circuitry*
%LPD*%
*
G54D10*
G54D32*
G01X242160Y218920D02*
X248260D01*
Y228820*
X246850*
X246740Y228866*
X246656Y228950*
X246610Y229060*
Y236120*
X243810*
Y229060*
X243764Y228950*
X243680Y228866*
X243570Y228820*
X242160*
Y218920*
X242210D02*
Y228820D01*
X242710Y218920D02*
Y228820D01*
X243210Y218920D02*
Y228820D01*
X243710Y218920D02*
Y228896D01*
X244210Y218920D02*
Y236120D01*
X244710Y218920D02*
Y236120D01*
X245210Y218920D02*
Y236120D01*
X245710Y218920D02*
Y236120D01*
X246210Y218920D02*
Y236120D01*
X246710Y218920D02*
Y228896D01*
X247210Y218920D02*
Y228820D01*
X247710Y218920D02*
Y228820D01*
X248210Y218920D02*
Y228820D01*
X199940Y199990D02*
Y287050D01*
X524803*
Y199990*
X199940*
G54D86*
X481080Y243410D03*
X310090Y204280D03*
X373480D03*
X305090Y213170D03*
X300110Y216550D03*
X295050Y219820D03*
X290070Y223160D03*
X364160Y219820D03*
X361100Y223160D03*
X370410Y213170D03*
X367170Y216550D03*
X419320Y219830D03*
X305100Y249480D03*
X315100Y233960D03*
X320130Y245440D03*
X315100Y241370D03*
X350070Y237480D03*
X285070Y259800D03*
X295090Y256250D03*
X300120Y252460D03*
X309920Y259800D03*
X335090Y254270D03*
X340090Y260460D03*
X345130Y257160D03*
G54D87*
X229490Y234047D03*
Y226173D03*
G54D88*
X284607Y274650D03*
X290513D03*
X347167Y219450D03*
X353073D03*
G54D89*
X322784Y277870D03*
X334596D03*
X257246Y244780D03*
X245434D03*
G54D94*
X310080Y275467D03*
Y281373D03*
X491740Y240637D03*
Y246543D03*
G54D96*
X341064Y208589D03*
G54D103*
X396560Y210819D03*
Y204910D03*
Y276041D03*
Y281950D03*
X260180Y232139D03*
Y226230D03*
X420380Y251349D03*
Y245440D03*
Y265289D03*
Y259380D03*
Y241079D03*
Y235170D03*
X396520Y245419D03*
Y239510D03*
X396600Y255741D03*
Y261650D03*
X497730Y243599D03*
Y237690D03*
Y255349D03*
Y249440D03*
X503960Y237721D03*
Y243630D03*
X503880Y255349D03*
Y249440D03*
X459040Y259611D03*
Y265520D03*
Y245181D03*
Y251090D03*
Y230911D03*
Y236820D03*
G54D113*
X415720Y216234D03*
X408240D03*
Y206786D03*
X415720D03*
G54D114*
X411980Y216234D03*
G54D143*
X269761Y266454D03*
X376911Y265674D03*
X411901D03*
X386911D03*
X448601Y265624D03*
X516351D03*
G54D144*
X269761Y256454D03*
Y246454D03*
Y236454D03*
Y226454D03*
X376911Y255674D03*
Y245674D03*
Y235674D03*
Y225674D03*
X411901Y255674D03*
Y245674D03*
Y235674D03*
Y225674D03*
X386911Y255674D03*
Y245674D03*
Y235674D03*
Y225674D03*
X448601Y255624D03*
Y245624D03*
Y235624D03*
Y225624D03*
X516351Y255624D03*
Y245624D03*
Y235624D03*
Y225624D03*
G54D157*
X220810Y231545D03*
Y241334D03*
Y249241D03*
Y259034D03*
X351064Y208589D03*
X361064D03*
G54D158*
X251110Y233920D03*
X239310D03*
G54D159*
X245210Y222270D03*
G54D160*
X285090Y228486D03*
X290090D03*
X295090D03*
X300090D03*
X305090D03*
X310090D03*
X315090D03*
X320090D03*
X325090D03*
X330090D03*
X335090D03*
X340090D03*
X345090D03*
X350106D03*
X350090Y266674D03*
X345090D03*
X340090D03*
X335090D03*
X330090D03*
X325090D03*
X320090D03*
X315090D03*
X310090D03*
X305090D03*
X300090D03*
X295090D03*
X290090D03*
X285090D03*
G54D167*
X210810Y222030D03*
Y268630D03*
G54D168*
X317191Y211810D03*
X329789D03*
G54D169*
X323490D03*
G54D170*
X445270Y279250D03*
Y207710D03*
X516830Y279250D03*
Y207710D03*
G54D171*
X484850Y240951D03*
Y243510D03*
Y246069D03*
X477370D03*
Y243510D03*
Y240951D03*
G54D172*
X481110Y243510D03*
X0Y0D02*
M02*
