*
*
G04 PADS 9.5 Build Number: 522968 generated Gerber (RS-274-X) file*
G04 PC Version=2.1*
*
%IN "PIC32USB_01.pcb"*%
*
%MOIN*%
*
%FSLAX35Y35*%
*
*
*
*
G04 PC Standard Apertures*
*
*
G04 Thermal Relief Aperture macro.*
%AMTER*
1,1,$1,0,0*
1,0,$1-$2,0,0*
21,0,$3,$4,0,0,45*
21,0,$3,$4,0,0,135*
%
*
*
G04 Annular Aperture macro.*
%AMANN*
1,1,$1,0,0*
1,0,$2,0,0*
%
*
*
G04 Odd Aperture macro.*
%AMODD*
1,1,$1,0,0*
1,0,$1-0.005,0,0*
%
*
*
G04 PC Custom Aperture Macros*
*
*
*
*
*
*
G04 PC Aperture Table*
*
%ADD010C,0.001*%
%ADD032C,0.01*%
%ADD086C,0.024*%
%ADD096R,0.05124X0.05124*%
%ADD143R,0.05912X0.05912*%
%ADD144C,0.05912*%
%ADD157C,0.05124*%
%ADD167O,0.10243X0.05124*%
%ADD170C,0.094*%
*
*
*
*
G04 PC Circuitry*
G04 Layer Name PIC32USB_01.pcb - circuitry*
%LPD*%
*
*
G04 PC Custom Flashes*
G04 Layer Name PIC32USB_01.pcb - flashes*
%LPD*%
*
*
G04 PC Circuitry*
G04 Layer Name PIC32USB_01.pcb - circuitry*
%LPD*%
*
G54D10*
G54D32*
G01X199940Y199990D02*
Y287050D01*
X524803*
Y199990*
X199940*
G54D86*
X481080Y243410D03*
X310090Y204280D03*
X373480D03*
X305090Y213170D03*
X300110Y216550D03*
X295050Y219820D03*
X290070Y223160D03*
X364160Y219820D03*
X361100Y223160D03*
X370410Y213170D03*
X367170Y216550D03*
X419320Y219830D03*
X305100Y249480D03*
X315100Y233960D03*
X320130Y245440D03*
X315100Y241370D03*
X350070Y237480D03*
X285070Y259800D03*
X295090Y256250D03*
X300120Y252460D03*
X309920Y259800D03*
X335090Y254270D03*
X340090Y260460D03*
X345130Y257160D03*
G54D96*
X341064Y208589D03*
G54D143*
X269761Y266454D03*
X376911Y265674D03*
X411901D03*
X386911D03*
X448601Y265624D03*
X516351D03*
G54D144*
X269761Y256454D03*
Y246454D03*
Y236454D03*
Y226454D03*
X376911Y255674D03*
Y245674D03*
Y235674D03*
Y225674D03*
X411901Y255674D03*
Y245674D03*
Y235674D03*
Y225674D03*
X386911Y255674D03*
Y245674D03*
Y235674D03*
Y225674D03*
X448601Y255624D03*
Y245624D03*
Y235624D03*
Y225624D03*
X516351Y255624D03*
Y245624D03*
Y235624D03*
Y225624D03*
G54D157*
X220810Y231545D03*
Y241334D03*
Y249241D03*
Y259034D03*
X351064Y208589D03*
X361064D03*
G54D167*
X210810Y222030D03*
Y268630D03*
G54D170*
X445270Y279250D03*
Y207710D03*
X516830Y279250D03*
Y207710D03*
X0Y0D02*
M02*
